<?xml version="1.0" encoding="utf-8"?>
<!-- Generator: Adobe Illustrator 19.0.0, SVG Export Plug-In . SVG Version: 6.00 Build 0)  -->
<svg version="1.1" xmlns="http://www.w3.org/2000/svg" xmlns:xlink="http://www.w3.org/1999/xlink" x="0px" y="0px"
	 viewBox="-200 101 399 399" style="enable-background:new -200 101 399 399;" xml:space="preserve">
<style type="text/css">
	.st0{display:none;}
	.st1{display:inline;}
	.st2{fill:#114A9F;}
	.st3{fill:#FFFFFF;}
	.st4{fill:url(#SVGID_1_);}
	.st5{display:none;fill:#FFFFFF;}
	.st6{fill:url(#SVGID_2_);}
	.st7{fill:#00FAB2;}
	.st8{fill:#FAFBF6;}
	.st9{font-family:'BebasNeue-Bold';}
	.st10{font-size:19.2986px;}
	.st11{letter-spacing:3;}
	.st12{font-family:'BebasNeue-Book';}
	.st13{font-size:10px;}
	.st14{letter-spacing:2;}
	.st15{display:inline;fill:url(#SVGID_3_);}
	.st16{display:inline;fill:url(#SVGID_4_);}
	.st17{display:inline;fill:url(#SVGID_5_);}
	.st18{display:inline;fill:url(#SVGID_6_);}
	.st19{display:inline;fill:url(#SVGID_7_);}
	.st20{display:inline;fill:url(#SVGID_8_);}
	.st21{display:inline;fill:url(#SVGID_9_);}
	.st22{display:inline;fill:url(#SVGID_10_);}
	.st23{display:inline;fill:url(#SVGID_11_);}
	.st24{display:inline;fill:url(#SVGID_12_);}
	.st25{display:inline;fill:url(#SVGID_13_);}
	.st26{display:inline;fill:url(#SVGID_14_);}
	.st27{display:inline;fill:url(#SVGID_15_);}
</style>
<g id="Layer_1" class="st0">
	<title>API-icon</title>
	<desc>Created with Sketch.</desc>
	<g id="Page-1" class="st1">
		<g id="API-icon" transform="translate(-1.000000, -1.000000)">
			<path id="Path" class="st2" d="M179.9,253L49,122.1C36.1,109.2,18.7,102,0.5,102s-35.6,7.2-48.5,20.1L-178.9,253
				c-12.9,12.9-20.1,30.3-20.1,48.5c0,18.2,7.2,35.6,20.1,48.5L-48,480.9C-35.1,493.8-17.7,501,0.5,501s35.6-7.2,48.5-20.1
				L179.9,350c12.9-12.9,20.1-30.3,20.1-48.5C200,283.3,192.8,265.9,179.9,253z"/>
			<path id="Shape" class="st3" d="M-6.4,251.6v44.7h3.4v-31h55v65.4H28v3.4h27.5v-82.6H-6.4z M-2.9,261.9v-6.9h55v6.9H-2.9
				L-2.9,261.9z M2.2,256.8h3.4v3.4H2.2V256.8z M9.1,256.8h3.4v3.4H9.1V256.8z M16,256.8h3.4v3.4H16V256.8z M10.8,272.3v3.4H2.2
				v-3.4H10.8z M10.8,286h13.8v3.4H10.8L10.8,286L10.8,286z M10.8,292.9h13.8v3.4H10.8L10.8,292.9L10.8,292.9z M28,286h10.3v3.4H28
				L28,286L28,286z M2.2,279.1h22.4v3.4H2.2L2.2,279.1L2.2,279.1z M28,292.9h18.9v3.4H28L28,292.9L28,292.9z M38.4,282.6H28v-3.4
				h10.3L38.4,282.6L38.4,282.6z M10.8,299.8v3.4H2.2v-3.4H10.8z M10.8,313.5h13.8v3.4H10.8L10.8,313.5L10.8,313.5z M28,313.5h10.3
				v3.4H28L28,313.5L28,313.5z M2.2,306.7h22.4v3.4H2.2L2.2,306.7L2.2,306.7z M28,320.4h18.9v3.4H28L28,320.4L28,320.4z M28,310.1
				v-3.4h10.3v3.4H28L28,310.1z M-45.9,261.9c2.9,0,5.2-2.3,5.2-5.2c0-2.9-2.3-5.2-5.2-5.2c-2.9,0-5.2,2.3-5.2,5.2
				C-51.1,259.6-48.8,261.9-45.9,261.9L-45.9,261.9z M-45.9,255.1c0.7,0,1.3,0.4,1.6,1.1c0.3,0.6,0.1,1.4-0.4,1.9s-1.2,0.6-1.9,0.4
				c-0.6-0.3-1.1-0.9-1.1-1.6C-47.6,255.8-46.9,255.1-45.9,255.1L-45.9,255.1z M-33.9,261.9h-3.4v-10.3h3.4L-33.9,261.9L-33.9,261.9
				z M-27,261.9h-3.4v-10.3h3.4V261.9L-27,261.9z M-47.7,301.5h3.4v10.3h-3.4V301.5z M-51.1,311.8h-3.4v-10.3h3.4V311.8z M50.4,341
				c-2.9,0-5.2,2.3-5.2,5.2c0,2.9,2.3,5.2,5.2,5.2c2.9,0,5.2-2.3,5.2-5.2C55.5,343.4,53.2,341.1,50.4,341L50.4,341z M50.4,347.9
				c-0.7,0-1.3-0.4-1.6-1.1c-0.3-0.6-0.1-1.4,0.4-1.9s1.2-0.6,1.9-0.4c0.6,0.3,1.1,0.9,1.1,1.6c0,0.5-0.2,0.9-0.5,1.2
				C51.3,347.8,50.8,347.9,50.4,347.9L50.4,347.9z M38.3,341h3.4v10.3h-3.4L38.3,341L38.3,341z M31.5,341h3.4v10.3h-3.4V341z
				 M-44.2,330.7h-3.4v-3.4h3.4V330.7z M-37.3,330.7h-3.4v-3.4h3.4V330.7z M-30.5,330.7h-3.4v-3.4h3.4V330.7z M-23.6,330.7H-27v-3.4
				h3.4V330.7z M-16.7,330.7h-3.4v-3.4h3.4V330.7z M-9.8,330.7h-3.4v-3.4h3.4V330.7z M-2.9,330.7h-3.5v-3.4h3.4L-2.9,330.7
				L-2.9,330.7z M4,330.7H0.5v-3.4h3.4L4,330.7L4,330.7z M10.8,330.7H7.4v-3.4h3.4L10.8,330.7L10.8,330.7z M17.7,330.7h-3.4v-3.4
				h3.4V330.7z M-44.2,334.2h3.4v3.4h-3.4V334.2z M-37.3,334.2h3.4v3.4h-3.5L-37.3,334.2L-37.3,334.2z M-30.4,334.2h3.4v3.4h-3.4
				V334.2z M-23.5,334.2h3.4v3.4h-3.4V334.2z M-16.7,334.2h3.4v3.4h-3.4V334.2z M-9.8,334.2h3.4v3.4h-3.4L-9.8,334.2L-9.8,334.2z
				 M-2.9,334.2h3.4v3.4h-3.4L-2.9,334.2L-2.9,334.2z M4,334.2h3.4v3.4H3.9L4,334.2L4,334.2z M10.9,334.2h3.4v3.4h-3.4V334.2z
				 M-44.2,344.5h-3.4V341h3.4V344.5z M-40.7,341h3.4v3.4h-3.4V341z M-33.8,341H4v3.4h-37.8V341z M7.4,341h3.4v3.4H7.4L7.4,341
				L7.4,341z M14.3,341h3.4v3.4h-3.4V341z M-13.2,318.7c0-1.4-0.5-2.7-1.5-3.6c-1-1-2.3-1.5-3.6-1.5h-17.3c-1,0-1.7-0.8-1.7-1.7
				c0-0.5,0.2-0.9,0.5-1.2c0.3-0.3,0.8-0.5,1.2-0.5h27.5c1.4,0,2.7-0.5,3.6-1.5c1-1,1.5-2.3,1.5-3.6v-5.2h-3.4v5.2
				c0,0.5-0.2,0.9-0.5,1.2c-0.3,0.3-0.8,0.5-1.2,0.5h-27.5c-2.9,0-5.2,2.3-5.2,5.2c0,2.9,2.3,5.2,5.2,5.2h17.2
				c0.5,0,0.9,0.2,1.2,0.5s0.5,0.8,0.5,1.2v1.7h-37.8v31h79.1v-31h-37.8L-13.2,318.7L-13.2,318.7z M21.2,347.9h-72.3v-24.1h72.2
				L21.2,347.9L21.2,347.9z M-33.8,279.1h3.4v3.4h-3.4V279.1z M-27,279.1h3.4v3.4H-27V279.1z M-16.6,282.6h-3.4v-3.4h3.4V282.6z
				 M-40.7,274c0-2.8,2.3-5.2,5.2-5.2h1.7v3.4h-1.7c-0.5,0-0.9,0.2-1.2,0.5c-0.3,0.3-0.5,0.8-0.5,1.2v13.8c0,0.5,0.2,0.9,0.5,1.2
				c0.3,0.3,0.8,0.5,1.2,0.5h1.7v3.4h-1.7c-2.8,0-5.2-2.3-5.2-5.2L-40.7,274L-40.7,274z M-14.9,272.3h-1.7v-3.4h1.7
				c2.8,0,5.2,2.3,5.2,5.2v13.8c0,2.8-2.3,5.2-5.2,5.2h-1.7v-3.4h1.7c0.5,0,0.9-0.2,1.2-0.5c0.3-0.3,0.5-0.8,0.5-1.2V274
				c0-0.5-0.2-0.9-0.5-1.2C-14,272.4-14.5,272.2-14.9,272.3L-14.9,272.3z"/>
		</g>
	</g>
</g>
<g id="Layer_2">
	
		<linearGradient id="SVGID_1_" gradientUnits="userSpaceOnUse" x1="-0.2209" y1="622.9453" x2="-0.2209" y2="157.6473" gradientTransform="matrix(-1 0 0 -1 -0.4419 594.3069)">
		<stop  offset="0" style="stop-color:#42E8E0"/>
		<stop  offset="1" style="stop-color:#24126A"/>
	</linearGradient>
	<path class="st4" d="M38,116.9l142,142c21.1,21.1,21.1,55.4,0,76.5l-142,142c-21.1,21.1-55.4,21.1-76.5,0l-142-142
		c-21.1-21.1-21.1-55.4,0-76.5l142-142C-17.3,95.8,16.9,95.8,38,116.9z"/>
	<path id="Shape_1_" class="st5" d="M-7.4,250.6v44.7h3.4v-31h55v65.4H27v3.4h27.5v-82.6H-7.4z M-3.9,260.9v-6.9h55v6.9H-3.9
		L-3.9,260.9z M1.2,255.8h3.4v3.4H1.2V255.8z M8.1,255.8h3.4v3.4H8.1V255.8z M15,255.8h3.4v3.4H15V255.8z M9.8,271.3v3.4H1.2v-3.4
		H9.8z M9.8,285h13.8v3.4H9.8L9.8,285L9.8,285z M9.8,291.9h13.8v3.4H9.8L9.8,291.9L9.8,291.9z M27,285h10.3v3.4H27L27,285L27,285z
		 M1.2,278.1h22.4v3.4H1.2L1.2,278.1L1.2,278.1z M27,291.9h18.9v3.4H27L27,291.9L27,291.9z M37.4,281.6H27v-3.4h10.3L37.4,281.6
		L37.4,281.6z M9.8,298.8v3.4H1.2v-3.4H9.8z M9.8,312.5h13.8v3.4H9.8L9.8,312.5L9.8,312.5z M27,312.5h10.3v3.4H27L27,312.5L27,312.5
		z M1.2,305.7h22.4v3.4H1.2L1.2,305.7L1.2,305.7z M27,319.4h18.9v3.4H27L27,319.4L27,319.4z M27,309.1v-3.4h10.3v3.4H27L27,309.1z
		 M-46.9,260.9c2.9,0,5.2-2.3,5.2-5.2c0-2.9-2.3-5.2-5.2-5.2c-2.9,0-5.2,2.3-5.2,5.2C-52.1,258.6-49.8,260.9-46.9,260.9L-46.9,260.9
		z M-46.9,254.1c0.7,0,1.3,0.4,1.6,1.1s0.1,1.4-0.4,1.9s-1.2,0.6-1.9,0.4c-0.6-0.3-1.1-0.9-1.1-1.6
		C-48.6,254.8-47.9,254.1-46.9,254.1L-46.9,254.1z M-34.9,260.9h-3.4v-10.3h3.4L-34.9,260.9L-34.9,260.9z M-28,260.9h-3.4v-10.3h3.4
		V260.9L-28,260.9z M-48.7,300.5h3.4v10.3h-3.4V300.5z M-52.1,310.8h-3.4v-10.3h3.4V310.8z M49.4,340c-2.9,0-5.2,2.3-5.2,5.2
		c0,2.9,2.3,5.2,5.2,5.2c2.9,0,5.2-2.3,5.2-5.2C54.5,342.4,52.2,340.1,49.4,340L49.4,340z M49.4,346.9c-0.7,0-1.3-0.4-1.6-1.1
		c-0.3-0.6-0.1-1.4,0.4-1.9s1.2-0.6,1.9-0.4c0.6,0.3,1.1,0.9,1.1,1.6c0,0.5-0.2,0.9-0.5,1.2C50.3,346.8,49.8,346.9,49.4,346.9
		L49.4,346.9z M37.3,340h3.4v10.3h-3.4L37.3,340L37.3,340z M30.5,340h3.4v10.3h-3.4V340z M-45.2,329.7h-3.4v-3.4h3.4V329.7z
		 M-38.3,329.7h-3.4v-3.4h3.4V329.7z M-31.5,329.7h-3.4v-3.4h3.4V329.7z M-24.6,329.7H-28v-3.4h3.4V329.7z M-17.7,329.7h-3.4v-3.4
		h3.4V329.7z M-10.8,329.7h-3.4v-3.4h3.4V329.7z M-3.9,329.7h-3.5v-3.4h3.4L-3.9,329.7L-3.9,329.7z M3,329.7h-3.5v-3.4h3.4L3,329.7
		L3,329.7z M9.8,329.7H6.4v-3.4h3.4L9.8,329.7L9.8,329.7z M16.7,329.7h-3.4v-3.4h3.4V329.7z M-45.2,333.2h3.4v3.4h-3.4V333.2z
		 M-38.3,333.2h3.4v3.4h-3.5L-38.3,333.2L-38.3,333.2z M-31.4,333.2h3.4v3.4h-3.4V333.2z M-24.5,333.2h3.4v3.4h-3.4V333.2z
		 M-17.7,333.2h3.4v3.4h-3.4V333.2z M-10.8,333.2h3.4v3.4h-3.4L-10.8,333.2L-10.8,333.2z M-3.9,333.2h3.4v3.4h-3.4L-3.9,333.2
		L-3.9,333.2z M3,333.2h3.4v3.4H2.9L3,333.2L3,333.2z M9.9,333.2h3.4v3.4H9.9V333.2z M-45.2,343.5h-3.4V340h3.4V343.5z M-41.7,340
		h3.4v3.4h-3.4V340z M-34.8,340H3v3.4h-37.8V340z M6.4,340h3.4v3.4H6.4L6.4,340L6.4,340z M13.3,340h3.4v3.4h-3.4V340z M-14.2,317.7
		c0-1.4-0.5-2.7-1.5-3.6c-1-1-2.3-1.5-3.6-1.5h-17.3c-1,0-1.7-0.8-1.7-1.7c0-0.5,0.2-0.9,0.5-1.2c0.3-0.3,0.8-0.5,1.2-0.5h27.5
		c1.4,0,2.7-0.5,3.6-1.5c1-1,1.5-2.3,1.5-3.6v-5.2h-3.4v5.2c0,0.5-0.2,0.9-0.5,1.2c-0.3,0.3-0.8,0.5-1.2,0.5h-27.5
		c-2.9,0-5.2,2.3-5.2,5.2c0,2.9,2.3,5.2,5.2,5.2h17.2c0.5,0,0.9,0.2,1.2,0.5s0.5,0.8,0.5,1.2v1.7h-37.8v31h79.1v-31h-37.8
		L-14.2,317.7L-14.2,317.7z M20.2,346.9h-72.3v-24.1h72.2L20.2,346.9L20.2,346.9z M-34.8,278.1h3.4v3.4h-3.4V278.1z M-28,278.1h3.4
		v3.4H-28V278.1z M-17.6,281.6h-3.4v-3.4h3.4V281.6z M-41.7,273c0-2.8,2.3-5.2,5.2-5.2h1.7v3.4h-1.7c-0.5,0-0.9,0.2-1.2,0.5
		c-0.3,0.3-0.5,0.8-0.5,1.2v13.8c0,0.5,0.2,0.9,0.5,1.2c0.3,0.3,0.8,0.5,1.2,0.5h1.7v3.4h-1.7c-2.8,0-5.2-2.3-5.2-5.2L-41.7,273
		L-41.7,273z M-15.9,271.3h-1.7v-3.4h1.7c2.8,0,5.2,2.3,5.2,5.2v13.8c0,2.8-2.3,5.2-5.2,5.2h-1.7v-3.4h1.7c0.5,0,0.9-0.2,1.2-0.5
		c0.3-0.3,0.5-0.8,0.5-1.2V273c0-0.5-0.2-0.9-0.5-1.2C-15,271.4-15.5,271.2-15.9,271.3L-15.9,271.3z"/>
	<g class="st0">
		<g class="st1">
			
				<linearGradient id="SVGID_2_" gradientUnits="userSpaceOnUse" x1="62.5673" y1="261.0117" x2="92.3688" y2="261.0117" gradientTransform="matrix(0.7071 0.7071 -0.7071 0.7071 90.3549 156.661)">
				<stop  offset="0" style="stop-color:#00FAB2"/>
				<stop  offset="1" style="stop-color:#009BFF"/>
			</linearGradient>
			<path class="st6" d="M-29,385.4c-0.3-0.2-0.6-0.4-1.1-0.4c-6.2,0-12.4,0-18.7,0.1c-1.1,0-1.7,0.6-1.7,1.8
				c0,6.1,0.1,12.3,0.1,18.4c0,1.1,0.4,1.7,1.8,1.7c6.1,0,12.3,0,18.4-0.1c1.2,0,1.8-0.6,1.8-1.8c0-1.2,0-2.3,0-3.5
				c0-5-0.1-10-0.1-15C-28.5,386.2-28.7,385.8-29,385.4z"/>
			<path class="st7" d="M-46.9,416.3c-0.1-1.3-0.1-2.6,0-4c0-2.2,0-2.1-2.1-2.2c-1.7-0.1-3-0.9-3.9-2.4c-0.6-1.1-0.6-2.2-0.6-3.4
				c0-0.5-0.1-0.8-0.6-0.7c-1.9,0-3.7,0-5.6,0.1c-0.2,0-0.3,0-0.5,0.1c0,0.2-0.1,0.4-0.1,0.6c0,4,0,8.1,0.1,12.1
				c0,0.5,0.2,0.6,0.6,0.6c4,0,8.1,0,12.1-0.1C-47,417-46.8,416.9-46.9,416.3z"/>
			<path class="st7" d="M-32,375.6c0,1.8,0.1,3.5,0,5.3c0,0.7,0.1,1,0.9,0.9c2.3-0.2,4.2,0.5,5.3,2.8c0.5,0.9,0.4,2,0.4,3
				c0,0.3,0,0.5,0.1,0.8c0.2,0,0.3,0.1,0.5,0.1c1.8,0,3.7-0.1,5.5,0c0.6,0,0.7-0.1,0.7-0.7c0-4.1,0-8.1-0.1-12.2
				c0-0.4-0.1-0.6-0.6-0.6c-4.1,0-8.2,0.1-12.2,0.1C-31.8,375-32,375.1-32,375.6z"/>
			<path class="st7" d="M-53.6,387.9c-0.2-2.2,0.4-4,2.2-5.4c1-0.5,2-0.7,3.1-0.7c0.3,0,0.6,0,0.9,0c0.3,0,0.4,0,0.4-0.4
				c0-2-0.1-3.9,0-5.9c0-0.5-0.1-0.5-0.5-0.5c-3.8,0.1-11.4,0.1-11.4,0.1c-1.4-0.2-1.5-0.2-1.4,0.7c0,4,0.1,8,0.1,12.1
				c0,0.5,0.1,0.6,0.5,0.5c1.9,0,3.8-0.1,5.7,0C-53.6,388.5-53.6,388.3-53.6,387.9z"/>
			<path class="st7" d="M-24.6,403.5c-0.5,0-0.6,0-0.6,0.6c0,1.4,0.1,2.8-0.9,4.1c-0.8,0.8-1.5,1.6-2.6,1.8
				c-0.9,0.2-1.7,0.1-2.6,0.1c-0.3,0-0.5,0-0.5,0.4c0,2,0.1,3.9,0.1,5.9c0,0.5,0.1,0.5,0.6,0.5c1.6,0,11.7-0.1,12.2,0
				c0.5,0.1,0.7-0.2,0.6-0.7c0-4-0.1-8.1-0.1-12.1c0-0.6-0.3-0.7-0.7-0.6C-21,403.5-22.8,403.5-24.6,403.5z M-26.5,409
				c0,0,0,0.1,0.1,0.2c-0.1,0-0.1,0.1-0.2,0.1C-26.6,409.1-26.6,409.1-26.5,409z"/>
			<rect x="-60.3" y="391.6" class="st7" width="6.8" height="3.1"/>
			<rect x="-60.3" y="396.6" class="st7" width="6.8" height="3.1"/>
			<rect x="-38.4" y="375.1" class="st7" width="3.1" height="6.8"/>
			<rect x="-43.5" y="375.1" class="st7" width="3.1" height="6.8"/>
			<rect x="-25.2" y="391.6" class="st7" width="6.8" height="3.1"/>
			<rect x="-25.2" y="396.8" class="st7" width="6.8" height="3.1"/>
			<rect x="-38.4" y="410.3" class="st7" width="3.1" height="6.8"/>
			<rect x="-43.5" y="410.3" class="st7" width="3.1" height="6.8"/>
		</g>
		<g class="st1">
			<text transform="matrix(1 0 0 1 -10.5848 396.8123)"><tspan x="0" y="0" class="st8 st9 st10 st11">TECH</tspan><tspan x="58.3" y="0" class="st7 st12 st10 st11">LOGO</tspan></text>
			<g>
				<text transform="matrix(1 0 0 1 -11.4916 410.0564)" class="st7 st12 st13 st14">YOUR TAGLINE HERE</text>
			</g>
		</g>
	</g>
	<g>
		<g class="st0">
			<linearGradient id="SVGID_3_" gradientUnits="userSpaceOnUse" x1="-0.2569" y1="212.3333" x2="-0.2569" y2="355.305">
				<stop  offset="0" style="stop-color:#FFFFFF"/>
				<stop  offset="1" style="stop-color:#FFFFFF"/>
			</linearGradient>
			<path class="st15" d="M27.6,268.9c-0.9-0.6-1.7-1.2-3-1.2c-16.7,0.1-33.3,0.1-50,0.2c-3,0-4.5,1.7-4.4,4.8
				c0.1,16.4,0.2,32.8,0.4,49.2c0,3.1,1.1,4.6,4.7,4.6c16.4,0,32.8-0.1,49.2-0.1c3.2,0,4.7-1.6,4.7-4.8c0-3.1-0.1-6.2-0.1-9.2
				c-0.1-13.4-0.2-26.7-0.3-40.1C28.9,270.9,28.5,269.9,27.6,268.9z"/>
			<linearGradient id="SVGID_4_" gradientUnits="userSpaceOnUse" x1="-38.2008" y1="212.3333" x2="-38.2008" y2="355.305">
				<stop  offset="0" style="stop-color:#FFFFFF"/>
				<stop  offset="1" style="stop-color:#FFFFFF"/>
			</linearGradient>
			<path class="st16" d="M-20.2,351.5c-0.2-3.5-0.1-7.1-0.1-10.6c0-5.8,0.1-5.7-5.7-6c-4.6-0.2-8.1-2.4-10.4-6.5
				c-1.6-2.9-1.6-5.9-1.5-9c0-1.3-0.3-2-1.7-2c-5,0.1-10,0.1-15,0.1c-0.4,0-0.9,0.1-1.4,0.2c-0.1,0.6-0.2,1.1-0.2,1.6
				c0,10.8,0.1,21.6,0.1,32.4c0,1.3,0.4,1.7,1.7,1.7c10.8-0.1,21.6-0.1,32.4-0.1C-20.7,353.3-20.1,353-20.2,351.5z"/>
			<linearGradient id="SVGID_5_" gradientUnits="userSpaceOnUse" x1="37.6454" y1="212.3333" x2="37.6454" y2="355.305">
				<stop  offset="0" style="stop-color:#FFFFFF"/>
				<stop  offset="1" style="stop-color:#FFFFFF"/>
			</linearGradient>
			<path class="st17" d="M19.6,242.6c0.1,4.7,0.2,9.4,0.1,14.2c-0.1,1.9,0.3,2.6,2.4,2.4c6.2-0.5,11.3,1.5,14.2,7.5
				c1.2,2.5,1.1,5.2,1.1,7.9c0,0.7,0,1.4,0.3,2c0.4,0.1,0.9,0.2,1.3,0.1c4.9,0,9.8-0.2,14.7-0.1c1.6,0,1.9-0.4,1.9-1.8
				c-0.1-10.8-0.1-21.7-0.1-32.5c0-1.2-0.4-1.6-1.6-1.6c-10.9,0.1-21.8,0.2-32.7,0.2C20,240.9,19.6,241.2,19.6,242.6z"/>
			<linearGradient id="SVGID_6_" gradientUnits="userSpaceOnUse" x1="-38.6836" y1="212.3333" x2="-38.6836" y2="355.305">
				<stop  offset="0" style="stop-color:#FFFFFF"/>
				<stop  offset="1" style="stop-color:#FFFFFF"/>
			</linearGradient>
			<path class="st18" d="M-38.3,275.5c-0.5-5.8,1-10.8,5.9-14.4c2.6-1.3,5.3-1.9,8.2-1.9c0.8,0,1.6,0.1,2.5,0.1c0.7,0,1-0.1,1-1
				c-0.1-5.3-0.2-10.5-0.1-15.8c0-1.2-0.2-1.4-1.5-1.4c-10.2,0.2-30.5,0.3-30.5,0.3c-3.8-0.6-3.9-0.5-3.9,1.8
				c0.1,10.8,0.2,21.5,0.3,32.3c0,1.3,0.3,1.5,1.5,1.5c5.1-0.1,10.3-0.1,15.4,0C-38.2,277.1-38.1,276.7-38.3,275.5z"/>
			<linearGradient id="SVGID_7_" gradientUnits="userSpaceOnUse" x1="38.1469" y1="212.3333" x2="38.1469" y2="355.305">
				<stop  offset="0" style="stop-color:#FFFFFF"/>
				<stop  offset="1" style="stop-color:#FFFFFF"/>
			</linearGradient>
			<path class="st19" d="M39.2,317.2c-1.4,0-1.6,0.1-1.5,1.5c0.1,3.8,0.2,7.6-2.3,10.8c-2.1,2-3.9,4.4-7.1,4.9
				c-2.3,0.4-4.6,0.4-6.9,0.3c-0.9,0-1.3,0-1.2,1c0.1,5.3,0.1,10.5,0.1,15.8c0,1.2,0.3,1.5,1.5,1.4c4.2-0.1,31.4-0.3,32.5-0.1
				c1.3,0.2,1.8-0.5,1.7-1.8c-0.1-10.8-0.2-21.5-0.2-32.3c0-1.6-0.7-1.8-1.9-1.7C49.1,317.1,44.2,317.2,39.2,317.2z M34.2,331.9
				c0,0.1,0.1,0.3,0.3,0.4c-0.2,0.1-0.3,0.2-0.5,0.2C33.9,332.3,34,332.1,34.2,331.9z"/>
			<linearGradient id="SVGID_8_" gradientUnits="userSpaceOnUse" x1="-47.1667" y1="212.3333" x2="-47.1667" y2="355.305">
				<stop  offset="0" style="stop-color:#FFFFFF"/>
				<stop  offset="1" style="stop-color:#FFFFFF"/>
			</linearGradient>
			<rect x="-56.2" y="285.3" class="st20" width="18.1" height="8.2"/>
			<linearGradient id="SVGID_9_" gradientUnits="userSpaceOnUse" x1="-47.1667" y1="212.3333" x2="-47.1667" y2="355.305">
				<stop  offset="0" style="stop-color:#FFFFFF"/>
				<stop  offset="1" style="stop-color:#FFFFFF"/>
			</linearGradient>
			<rect x="-56.2" y="298.9" class="st21" width="18.1" height="8.2"/>
			<linearGradient id="SVGID_10_" gradientUnits="userSpaceOnUse" x1="6.5358" y1="212.3333" x2="6.5358" y2="355.305">
				<stop  offset="0" style="stop-color:#FFFFFF"/>
				<stop  offset="1" style="stop-color:#FFFFFF"/>
			</linearGradient>
			<rect x="2.4" y="241.2" class="st22" width="8.2" height="18.1"/>
			<linearGradient id="SVGID_11_" gradientUnits="userSpaceOnUse" x1="-7.0496" y1="212.3333" x2="-7.0496" y2="355.305">
				<stop  offset="0" style="stop-color:#FFFFFF"/>
				<stop  offset="1" style="stop-color:#FFFFFF"/>
			</linearGradient>
			<rect x="-11.2" y="241.2" class="st23" width="8.2" height="18.1"/>
			<linearGradient id="SVGID_12_" gradientUnits="userSpaceOnUse" x1="46.7009" y1="212.3333" x2="46.7009" y2="355.305">
				<stop  offset="0" style="stop-color:#FFFFFF"/>
				<stop  offset="1" style="stop-color:#FFFFFF"/>
			</linearGradient>
			<rect x="37.6" y="285.3" class="st24" width="18.1" height="8.2"/>
			<linearGradient id="SVGID_13_" gradientUnits="userSpaceOnUse" x1="46.7009" y1="212.3333" x2="46.7009" y2="355.305">
				<stop  offset="0" style="stop-color:#FFFFFF"/>
				<stop  offset="1" style="stop-color:#FFFFFF"/>
			</linearGradient>
			<rect x="37.6" y="299.3" class="st25" width="18.1" height="8.2"/>
			<linearGradient id="SVGID_14_" gradientUnits="userSpaceOnUse" x1="6.5358" y1="212.3333" x2="6.5358" y2="355.305">
				<stop  offset="0" style="stop-color:#FFFFFF"/>
				<stop  offset="1" style="stop-color:#FFFFFF"/>
			</linearGradient>
			<rect x="2.4" y="335.5" class="st26" width="8.2" height="18.1"/>
			<linearGradient id="SVGID_15_" gradientUnits="userSpaceOnUse" x1="-7.0496" y1="212.3333" x2="-7.0496" y2="355.305">
				<stop  offset="0" style="stop-color:#FFFFFF"/>
				<stop  offset="1" style="stop-color:#FFFFFF"/>
			</linearGradient>
			<rect x="-11.2" y="335.5" class="st27" width="8.2" height="18.1"/>
		</g>
	</g>
	<g>
		<g>
			<path class="st3" d="M-13.5,352.8c6.9,0.3,20.3-10.2,22.7-10.6c8.5-1.5,14.7,2.3,21,7.2c7.5,5.8,16.5,4.4,22.8-3.1
				c5.2-6.2,3.8-15.5-3.4-22.1c-5.7-5.2-15.6-4.7-21.6,1.2c-1.9,1.9-3.9,3.3-6.4,4.4c-7.5,3.2-14.5,1.6-21.3-2.1c0,0,0,0,0,0
				c-11.5-10.1-11.2-24.2-1.7-34c4.8-4.9,5.6-11.7,2.2-17.7c-3-5.3-7.8-9.3-14.6-8.9c-7.1,0.4-12.3,3.8-14.9,10.6
				c-2.2,5.9-0.5,11.1,2.8,16.1c1.9,2.8,4.7,4.9,5.8,8.4c2.8,8.9,0.9,16.4-5.4,23.4c-4.8,5.4-5.8,11.9-2.4,18.6
				C-24.9,350-19.8,352.5-13.5,352.8z"/>
			<path class="st3" d="M-55.8,260.8c1.7,5.9,6,9.9,12.5,11.1c6.4,1.2,11.2-1.7,15.9-5.5c7.7-6.3,17-6.8,25.2-1.6
				C6,270,8.7,277.7,8,287c-1.7,4.6-3.9,8.7-7.3,12.5c-4,4.4-5,10.5-2.7,16.1c2.6,6.3,7.6,10.2,14.7,10.3c6.3,0.1,11.7-2.5,14.6-8.2
				c3.4-6.5,2.6-13-2-18.7c-3.2-4-6-8.1-7.1-13.2c0,0,0,0,0,0c0,0,0,0,0,0c-0.3-7.2,1.6-13.8,6.7-19c4.9-5,5.6-10.8,3.1-16.6
				c-2.7-6.4-7.8-10.2-15.4-10c-5.7,0.1-9.7,3.4-13.7,6.6c-6.5,5.1-16.3,5.6-23.2,1.2c-3.3-2.1-6-5-9.8-6.5
				c-6-2.5-11.5-1.6-16.4,2.3C-56,248.1-57.8,254.3-55.8,260.8z"/>
		</g>
	</g>
	<g class="st0">
		<g class="st1">
			<path class="st3" d="M49.9,263.4c2.2-1.3,3.1-3.3,3-5.7c-0.1-2.5-1.7-4.8-4-5.9c-0.7-0.3-1.4-0.5-2.1-0.5
				c-2.2-0.1-3.9,0.9-4.5,1.3c-2.7,1.6-21.5,13-47.2,28.8c-0.7,0.4-1.2,1-1.4,1.8c-0.4,1.3-0.4,2.3-0.4,2.8c0,2.5,0,23.8,0.1,53.1
				c1,3.7,3.3,5.8,6.6,5.8c3.3,0,5.7-2,6.6-5.8c0.3-2.4,0.2-44.3,0.1-50.1c0-0.4,0.2-0.8,0.6-1C11.7,285.4,41.4,268.4,49.9,263.4z"
				/>
			<path class="st3" d="M23.1,339.2c0.1-12.9,0-37.4-0.1-41.8c0-0.4,0.2-0.8,0.6-1c4.6-2.6,34.2-19.4,42.8-24.4
				c2.2-1.3,3.1-3.3,3-5.7c-0.1-2.5-1.7-4.8-4-5.8c-0.7-0.3-1.4-0.5-2.1-0.5c-2.2-0.1-3.9,0.9-4.5,1.3c-2.7,1.6-21.5,12.9-47.2,28.5
				c-0.7,0.4-1.2,1-1.4,1.8c-0.4,1.3-0.4,2.3-0.4,2.8c0,2.3,0,19.9,0.1,44.8c0,3.2,2.6,5.8,5.8,5.8h1.8
				C20.4,344.9,23.1,342.4,23.1,339.2z"/>
			<path class="st3" d="M-24.8,288c0.4,0.2,0.6,0.6,0.6,1c-0.1,5.8-0.2,47.7,0.1,50.1c1,3.8,3.3,5.8,6.6,5.8c3.3,0,5.7-2,6.6-5.8
				c0.1-29.3,0.1-50.6,0.1-53.1c0-0.5,0-1.6-0.4-2.8c-0.2-0.8-0.8-1.4-1.4-1.8c-25.8-15.8-44.5-27.1-47.2-28.8
				c-0.6-0.4-2.4-1.4-4.5-1.3c-0.7,0-1.4,0.2-2.1,0.5c-2.3,1-3.9,3.3-4,5.9c-0.1,2.4,0.8,4.5,3,5.7C-59,268.4-29.3,285.4-24.8,288z"
				/>
		</g>
	</g>
</g>
</svg>
