<?xml version="1.0" encoding="utf-8"?>
<!-- Generator: Adobe Illustrator 19.0.0, SVG Export Plug-In . SVG Version: 6.00 Build 0)  -->
<svg version="1.1" xmlns="http://www.w3.org/2000/svg" xmlns:xlink="http://www.w3.org/1999/xlink" x="0px" y="0px"
	 viewBox="0 0 1200 800" enable-background="new 0 0 1200 800" xml:space="preserve">
<g id="Background">
	<rect x="0" fill="#F7F7F7" width="1200" height="800"/>
</g>
<g id="Object">
	<g id="XMLID_6_" display="none">
		<path display="inline" fill="#0064AA" d="M399.7,146.7L399.7,146.7c-8.3,0-15.2-6.8-15.2-15.2v0c0-8.3,6.8-15.2,15.2-15.2h0
			c8.3,0,15.2,6.8,15.2,15.2v0C414.8,139.8,408,146.7,399.7,146.7z"/>
		<path display="inline" fill="#0064AA" d="M511.6,111.5c0-24.2-19.8-43.9-43.9-43.9h0c-24.2,0-43.9,19.8-43.9,43.9l0,0v64.2
			C423.8,175.6,511.6,165.9,511.6,111.5C511.6,111.5,511.6,111.5,511.6,111.5L511.6,111.5z"/>
		<path display="inline" fill="#0064AA" d="M353.7,196.7C353.7,196.7,353.7,196.7,353.7,196.7L353.7,196.7
			c0,16.8,13.7,30.6,30.5,30.6h0c16.8,0,30.5-13.7,30.5-30.5v0v-44.6C414.8,152.1,353.8,158.9,353.7,196.7z M384.3,204.7
			c-4.4,0-8-3.6-8-8s3.6-8,8-8s8,3.6,8,8S388.7,204.7,384.3,204.7z"/>
		<g display="inline">
			<path fill="#0064AA" d="M429.6,208.2c-1.6-0.9-2.9-2.1-3.8-3.7c-0.9-1.6-1.4-3.3-1.4-5.3c0-2,0.5-3.7,1.4-5.3
				c0.9-1.6,2.2-2.8,3.8-3.7c1.6-0.9,3.4-1.3,5.5-1.3c1.6,0,3.1,0.3,4.5,0.9c1.4,0.6,2.5,1.4,3.4,2.5l-2.4,2.3
				c-1.4-1.6-3.2-2.3-5.3-2.3c-1.4,0-2.6,0.3-3.7,0.9c-1.1,0.6-1.9,1.4-2.5,2.5c-0.6,1.1-0.9,2.3-0.9,3.6s0.3,2.6,0.9,3.6
				c0.6,1.1,1.5,1.9,2.5,2.5c1.1,0.6,2.3,0.9,3.7,0.9c2.1,0,3.9-0.8,5.3-2.4l2.4,2.3c-0.9,1.1-2.1,1.9-3.4,2.5
				c-1.4,0.6-2.9,0.9-4.5,0.9C433,209.5,431.2,209.1,429.6,208.2z"/>
			<path fill="#0064AA" d="M449.9,208.2c-1.6-0.9-2.9-2.1-3.9-3.7c-0.9-1.6-1.4-3.3-1.4-5.3c0-1.9,0.5-3.7,1.4-5.3
				c0.9-1.6,2.2-2.8,3.9-3.7c1.6-0.9,3.5-1.3,5.5-1.3c2,0,3.9,0.4,5.5,1.3c1.6,0.9,2.9,2.1,3.9,3.7c0.9,1.6,1.4,3.3,1.4,5.3
				c0,2-0.5,3.7-1.4,5.3c-0.9,1.6-2.2,2.8-3.9,3.7c-1.6,0.9-3.5,1.3-5.5,1.3C453.4,209.5,451.5,209.1,449.9,208.2z M459,205.4
				c1.1-0.6,1.9-1.4,2.5-2.5c0.6-1.1,0.9-2.3,0.9-3.6c0-1.3-0.3-2.5-0.9-3.6c-0.6-1.1-1.4-1.9-2.5-2.5c-1.1-0.6-2.3-0.9-3.6-0.9
				c-1.3,0-2.5,0.3-3.6,0.9c-1.1,0.6-1.9,1.4-2.5,2.5c-0.6,1.1-0.9,2.3-0.9,3.6c0,1.3,0.3,2.5,0.9,3.6c0.6,1.1,1.4,1.9,2.5,2.5
				c1.1,0.6,2.3,0.9,3.6,0.9C456.7,206.3,457.9,206,459,205.4z"/>
			<path fill="#0064AA" d="M488.5,209.3l0-13.2l-6.6,11h-1.7l-6.6-10.8v13.1h-3.5v-20h3.1l7.9,13.2l7.8-13.2h3.1l0,20H488.5z"/>
			<path fill="#0064AA" d="M510.1,190.1c1.3,0.6,2.3,1.4,3,2.5c0.7,1.1,1,2.3,1,3.8c0,1.4-0.3,2.7-1,3.8c-0.7,1.1-1.7,1.9-3,2.5
				c-1.3,0.6-2.8,0.9-4.5,0.9h-4.5v5.8h-3.7v-20h8.2C507.3,189.3,508.8,189.6,510.1,190.1z M509.1,199.3c0.8-0.7,1.3-1.7,1.3-2.9
				c0-1.3-0.4-2.3-1.3-2.9c-0.8-0.7-2.1-1-3.7-1h-4.3v7.9h4.3C507,200.3,508.3,200,509.1,199.3z"/>
			<path fill="#0064AA" d="M529.7,204.6h-10l-2,4.6H514l9-20h3.7l9,20h-3.9L529.7,204.6z M528.5,201.7l-3.8-8.7l-3.7,8.7H528.5z"/>
			<path fill="#0064AA" d="M555.9,189.3v20h-3.1l-11-13.5v13.5h-3.7v-20h3.1l11,13.5v-13.5H555.9z"/>
			<path fill="#0064AA" d="M569.9,202.2v7h-3.7v-7l-7.8-13h4l5.8,9.7l5.9-9.7h3.7L569.9,202.2z"/>
		</g>
	</g>
	<g id="XMLID_5_" display="none">
		<g display="inline">
			<path fill="#F6B217" d="M776.4,69.1h-84.4l-42.2,73.1l42.2,73.1h84.4l42.2-73.1L776.4,69.1z M772.6,207.8l-0.3,0.6H696
				l-38.2-66.1L696,76.1h0.6l8.7,15l9.2-16h1.2l-9.8,17l4.6,8L725,75.1h1.6l-15.3,26.5l4.3,7.5l19.6-34h2.4l-20.8,36.1l3.9,6.8
				l24.8-42.9h3.2l-26.4,45.7l3.6,6.2l29.9-51.9h4l-32,55.4l3.1,5.4l35.1-60.8h4.9l-37.5,65l3,5.2l37.6-65.1l3.2,5.6l-37.6,65.1
				L772.6,207.8z"/>
		</g>
		<g display="inline">
			<g>
				<path fill="#F6B217" d="M661.7,240.4c0.4,0.6,0.7,1.3,0.7,2.1c0,1.2-0.4,2.1-1.3,2.7c-0.9,0.6-2.2,0.9-3.9,0.9h-6.7v-13.4h6.3
					c1.6,0,2.8,0.3,3.7,0.9c0.9,0.6,1.3,1.5,1.3,2.6c0,0.7-0.2,1.3-0.5,1.8c-0.3,0.5-0.7,0.9-1.3,1.2
					C660.7,239.4,661.3,239.8,661.7,240.4z M652.9,234.7v3.7h3.5c0.9,0,1.5-0.2,2-0.5c0.5-0.3,0.7-0.8,0.7-1.4
					c0-0.6-0.2-1.1-0.7-1.4c-0.5-0.3-1.1-0.5-2-0.5H652.9z M659.8,242.3c0-1.3-1-1.9-2.9-1.9h-4v3.9h4
					C658.9,244.2,659.8,243.6,659.8,242.3z"/>
				<path fill="#F6B217" d="M677.6,246.2l-2.7-3.9c-0.1,0-0.3,0-0.5,0h-3v3.9h-2.5v-13.4h5.5c1.2,0,2.2,0.2,3,0.6
					c0.9,0.4,1.5,0.9,2,1.6c0.5,0.7,0.7,1.6,0.7,2.6c0,1-0.2,1.9-0.7,2.6c-0.5,0.7-1.2,1.3-2.1,1.6l3.1,4.4H677.6z M676.7,235.6
					c-0.6-0.5-1.4-0.7-2.5-0.7h-2.9v5.4h2.9c1.1,0,1.9-0.2,2.5-0.7c0.6-0.5,0.8-1.1,0.8-2C677.6,236.7,677.3,236,676.7,235.6z"/>
				<path fill="#F6B217" d="M695.4,243.1h-6.7l-1.3,3.1h-2.6l6-13.4h2.5l6.1,13.4h-2.6L695.4,243.1z M694.6,241.1l-2.5-5.9l-2.5,5.9
					H694.6z"/>
				<path fill="#F6B217" d="M716.8,232.8v13.4h-2.1l-7.4-9.1v9.1h-2.5v-13.4h2.1l7.4,9.1v-9.1H716.8z"/>
				<path fill="#F6B217" d="M724.3,232.8h5.9c1.4,0,2.7,0.3,3.8,0.8c1.1,0.6,2,1.3,2.6,2.4c0.6,1,0.9,2.2,0.9,3.5
					c0,1.3-0.3,2.5-0.9,3.5c-0.6,1-1.5,1.8-2.6,2.4c-1.1,0.6-2.4,0.8-3.8,0.8h-5.9V232.8z M730,244.1c1,0,1.9-0.2,2.6-0.6
					c0.7-0.4,1.3-0.9,1.7-1.6c0.4-0.7,0.6-1.5,0.6-2.4c0-0.9-0.2-1.7-0.6-2.4c-0.4-0.7-1-1.2-1.7-1.6c-0.7-0.4-1.6-0.6-2.6-0.6h-3.3
					v9.2H730z"/>
				<path fill="#F6B217" d="M765,232.8v13.4H763l-7.4-9.1v9.1h-2.5v-13.4h2.1l7.4,9.1v-9.1H765z"/>
				<path fill="#F6B217" d="M781.2,243.1h-6.7l-1.3,3.1h-2.6l6-13.4h2.5l6.1,13.4h-2.6L781.2,243.1z M780.3,241.1l-2.5-5.9l-2.5,5.9
					H780.3z"/>
				<path fill="#F6B217" d="M803,246.2l0-8.9l-4.4,7.4h-1.1l-4.4-7.2v8.8h-2.4v-13.4h2.1l5.3,8.9l5.2-8.9h2.1l0,13.4H803z"/>
				<path fill="#F6B217" d="M822.9,244.1v2.1h-10.1v-13.4h9.8v2.1h-7.3v3.5h6.5v2.1h-6.5v3.7H822.9z"/>
			</g>
		</g>
	</g>
	<g id="XMLID_7_" display="none">
		<g display="inline">
			<polygon fill="#CE5959" points="123.5,71.2 149.7,97.4 222.7,97.4 222.7,170.4 248.9,196.6 248.9,71.2 			"/>
			<path fill="#CE5959" d="M101.5,97.4v121.2h121.2v-48.2l-73-73H101.5z M199.6,200.8h-78.9v-81.5h5.6v75.9h73.4V200.8z"/>
		</g>
		<g display="inline">
			<path fill="#CE5959" d="M111.2,245.7c0.1,0,0.2,0,0.3,0.1l0.7,0.8c-0.6,0.7-1.2,1.2-2,1.5c-0.8,0.4-1.8,0.5-2.9,0.5
				c-1,0-1.9-0.2-2.7-0.5c-0.8-0.3-1.5-0.8-2.1-1.4c-0.6-0.6-1-1.4-1.3-2.2c-0.3-0.9-0.5-1.8-0.5-2.8c0-1,0.2-2,0.5-2.8
				c0.3-0.9,0.8-1.6,1.4-2.2c0.6-0.6,1.3-1.1,2.2-1.4c0.8-0.3,1.8-0.5,2.8-0.5c1,0,1.9,0.2,2.6,0.5c0.7,0.3,1.4,0.7,2,1.3l-0.6,0.9
				c0,0.1-0.1,0.1-0.2,0.2c-0.1,0-0.1,0.1-0.2,0.1c-0.1,0-0.2,0-0.3-0.1c-0.1-0.1-0.2-0.1-0.3-0.2c-0.1-0.1-0.3-0.2-0.5-0.3
				c-0.2-0.1-0.4-0.2-0.6-0.3c-0.2-0.1-0.5-0.2-0.8-0.2c-0.3-0.1-0.7-0.1-1.1-0.1c-0.7,0-1.4,0.1-2,0.4c-0.6,0.3-1.1,0.6-1.6,1.1
				c-0.4,0.5-0.8,1-1,1.7c-0.2,0.7-0.4,1.4-0.4,2.3c0,0.9,0.1,1.6,0.4,2.3c0.2,0.7,0.6,1.2,1,1.7c0.4,0.5,0.9,0.8,1.5,1.1
				c0.6,0.2,1.2,0.4,1.9,0.4c0.4,0,0.8,0,1.1-0.1c0.3,0,0.6-0.1,0.9-0.2c0.3-0.1,0.5-0.2,0.8-0.4c0.2-0.2,0.5-0.3,0.7-0.6
				C111,245.8,111.1,245.7,111.2,245.7z"/>
			<path fill="#CE5959" d="M132.2,241.7c0,1-0.2,2-0.5,2.8c-0.3,0.9-0.8,1.6-1.4,2.2s-1.3,1.1-2.1,1.4c-0.8,0.3-1.8,0.5-2.8,0.5
				c-1,0-1.9-0.2-2.8-0.5c-0.8-0.3-1.5-0.8-2.1-1.4c-0.6-0.6-1.1-1.4-1.4-2.2c-0.3-0.9-0.5-1.8-0.5-2.8c0-1,0.2-2,0.5-2.8
				c0.3-0.9,0.8-1.6,1.4-2.2c0.6-0.6,1.3-1.1,2.1-1.5c0.8-0.3,1.8-0.5,2.8-0.5c1,0,1.9,0.2,2.8,0.5c0.8,0.3,1.5,0.8,2.1,1.5
				c0.6,0.6,1.1,1.4,1.4,2.2C132.1,239.7,132.2,240.7,132.2,241.7z M130.3,241.7c0-0.8-0.1-1.6-0.3-2.3c-0.2-0.7-0.6-1.2-1-1.7
				c-0.4-0.5-0.9-0.8-1.5-1.1c-0.6-0.2-1.3-0.4-2-0.4c-0.7,0-1.4,0.1-2,0.4c-0.6,0.2-1.1,0.6-1.5,1.1c-0.4,0.5-0.8,1-1,1.7
				c-0.2,0.7-0.3,1.4-0.3,2.3c0,0.8,0.1,1.6,0.3,2.3c0.2,0.7,0.6,1.2,1,1.7c0.4,0.5,0.9,0.8,1.5,1.1c0.6,0.2,1.3,0.4,2,0.4
				c0.7,0,1.4-0.1,2-0.4c0.6-0.2,1.1-0.6,1.5-1.1c0.4-0.5,0.7-1,1-1.7C130.2,243.3,130.3,242.5,130.3,241.7z"/>
			<path fill="#CE5959" d="M146.6,244.1c0.1,0.2,0.1,0.3,0.2,0.5c0.1-0.2,0.1-0.4,0.2-0.5c0.1-0.2,0.2-0.3,0.2-0.5l4.7-8.4
				c0.1-0.1,0.2-0.2,0.3-0.3c0.1,0,0.2,0,0.4,0h1.4v13.7h-1.6v-10.1c0-0.1,0-0.3,0-0.4c0-0.2,0-0.3,0-0.5l-4.7,8.6
				c-0.2,0.3-0.4,0.4-0.7,0.4h-0.3c-0.3,0-0.5-0.1-0.7-0.4l-4.8-8.6c0,0.2,0,0.3,0,0.5c0,0.2,0,0.3,0,0.4v10.1h-1.6v-13.7h1.4
				c0.2,0,0.3,0,0.4,0c0.1,0,0.2,0.1,0.3,0.3l4.7,8.5C146.4,243.8,146.5,243.9,146.6,244.1z"/>
			<path fill="#CE5959" d="M164.1,243.4v5.1h-1.9v-13.7h4.1c0.9,0,1.6,0.1,2.3,0.3c0.6,0.2,1.2,0.5,1.6,0.9c0.4,0.4,0.7,0.8,0.9,1.3
				c0.2,0.5,0.3,1.1,0.3,1.8c0,0.6-0.1,1.2-0.3,1.8c-0.2,0.5-0.6,1-1,1.4c-0.4,0.4-1,0.7-1.6,0.9c-0.6,0.2-1.4,0.3-2.2,0.3H164.1z
				 M164.1,242h2.2c0.5,0,1-0.1,1.4-0.2c0.4-0.1,0.7-0.3,1-0.6c0.3-0.3,0.5-0.6,0.6-0.9c0.1-0.4,0.2-0.7,0.2-1.2
				c0-0.9-0.3-1.6-0.8-2.1c-0.5-0.5-1.4-0.7-2.5-0.7h-2.2V242z"/>
			<path fill="#CE5959" d="M188.5,248.6h-1.4c-0.2,0-0.3,0-0.4-0.1c-0.1-0.1-0.2-0.2-0.2-0.3l-1.3-3.3H179l-1.3,3.3
				c0,0.1-0.1,0.2-0.2,0.3c-0.1,0.1-0.2,0.1-0.4,0.1h-1.4l5.5-13.7h1.9L188.5,248.6z M179.5,243.5h5.1l-2.2-5.6
				c-0.1-0.3-0.3-0.8-0.4-1.3c-0.1,0.3-0.1,0.5-0.2,0.7c-0.1,0.2-0.1,0.4-0.2,0.6L179.5,243.5z"/>
			<path fill="#CE5959" d="M196.4,234.9c0.1,0,0.2,0.1,0.3,0.3l8,10.4c0-0.2,0-0.3,0-0.5c0-0.2,0-0.3,0-0.5v-9.7h1.6v13.7h-0.9
				c-0.1,0-0.3,0-0.4-0.1c-0.1-0.1-0.2-0.1-0.3-0.3l-7.9-10.3c0,0.2,0,0.3,0,0.5c0,0.2,0,0.3,0,0.4v9.8H195v-13.7h1
				C196.2,234.8,196.3,234.9,196.4,234.9z"/>
			<path fill="#CE5959" d="M219.6,243.1v5.5h-1.9v-5.5l-5-8.3h1.6c0.2,0,0.3,0,0.4,0.1c0.1,0.1,0.2,0.2,0.3,0.3l3.1,5.3
				c0.1,0.2,0.2,0.4,0.3,0.6c0.1,0.2,0.2,0.4,0.2,0.6c0.1-0.2,0.1-0.4,0.2-0.6c0.1-0.2,0.2-0.4,0.3-0.6l3.1-5.3
				c0.1-0.1,0.1-0.2,0.2-0.3c0.1-0.1,0.2-0.1,0.4-0.1h1.6L219.6,243.1z"/>
		</g>
	</g>
	<g id="XMLID_8_" display="none">
		<g display="inline">
			<path fill="#0064AA" d="M958.1,485.5c0.5,0,0.8,0,1.2-0.1c0.3-0.1,0.6-0.2,0.9-0.3c0.2-0.1,0.4-0.2,0.6-0.4
				c0.2-0.1,0.3-0.2,0.4-0.4c0.1-0.1,0.3-0.2,0.4-0.3c0.1-0.1,0.2-0.1,0.4-0.1c0.1,0,0.2,0,0.3,0.1c0.1,0,0.2,0.1,0.2,0.2l1.4,1.7
				c-0.8,0.9-1.7,1.6-2.8,2.1c-1.1,0.5-2.3,0.7-3.7,0.7c-1.1,0-2.1-0.2-3-0.6c-0.9-0.4-1.6-1-2.2-1.7c-0.6-0.7-1.1-1.5-1.4-2.5
				c-0.3-1-0.5-2-0.5-3.1c0-1,0.1-2,0.3-2.9c0.2-0.9,0.6-1.8,1-2.6c0.4-0.8,0.9-1.5,1.5-2.1c0.6-0.6,1.2-1.2,2-1.6
				c0.7-0.4,1.5-0.8,2.3-1c0.8-0.2,1.7-0.4,2.6-0.4c0.7,0,1.3,0.1,1.9,0.2c0.6,0.1,1.1,0.3,1.5,0.5c0.4,0.2,0.9,0.5,1.2,0.8
				c0.4,0.3,0.7,0.7,0.9,1l-1.4,1.6c-0.1,0.1-0.2,0.2-0.3,0.3c-0.1,0.1-0.3,0.1-0.5,0.1c-0.1,0-0.3,0-0.4-0.1
				c-0.1-0.1-0.2-0.1-0.4-0.2c-0.1-0.1-0.3-0.2-0.4-0.3c-0.1-0.1-0.3-0.2-0.5-0.3c-0.2-0.1-0.5-0.2-0.7-0.2c-0.3-0.1-0.6-0.1-1-0.1
				c-0.8,0-1.5,0.2-2.1,0.5c-0.7,0.3-1.2,0.8-1.7,1.4c-0.5,0.6-0.9,1.3-1.1,2.2c-0.3,0.9-0.4,1.8-0.4,2.9c0,0.8,0.1,1.5,0.3,2.1
				c0.2,0.6,0.4,1.1,0.8,1.5c0.3,0.4,0.7,0.7,1.2,1C957.1,485.4,957.6,485.5,958.1,485.5z"/>
			<path fill="#0064AA" d="M988.7,478.5c0,1-0.1,1.9-0.3,2.8c-0.2,0.9-0.5,1.7-1,2.5c-0.4,0.8-0.9,1.5-1.5,2.1
				c-0.6,0.6-1.3,1.2-2,1.6c-0.7,0.4-1.5,0.8-2.4,1c-0.9,0.2-1.8,0.4-2.7,0.4c-1.2,0-2.3-0.2-3.2-0.6c-0.9-0.4-1.7-1-2.4-1.7
				c-0.7-0.7-1.2-1.6-1.5-2.6c-0.4-1-0.5-2-0.5-3.2c0-1,0.1-1.9,0.3-2.8c0.2-0.9,0.5-1.7,1-2.5c0.4-0.8,0.9-1.5,1.5-2.1
				c0.6-0.6,1.3-1.2,2-1.6c0.7-0.4,1.5-0.8,2.4-1c0.9-0.2,1.8-0.4,2.7-0.4c1.2,0,2.2,0.2,3.2,0.6c0.9,0.4,1.7,1,2.4,1.7
				c0.7,0.7,1.2,1.6,1.5,2.6C988.5,476.3,988.7,477.3,988.7,478.5z M984.6,478.6c0-0.7-0.1-1.4-0.3-2c-0.2-0.6-0.4-1.1-0.8-1.6
				c-0.3-0.4-0.8-0.8-1.3-1c-0.5-0.2-1.1-0.4-1.7-0.4c-0.8,0-1.6,0.2-2.2,0.5c-0.7,0.3-1.2,0.8-1.7,1.4c-0.5,0.6-0.8,1.4-1.1,2.2
				c-0.2,0.9-0.4,1.8-0.4,2.9c0,0.7,0.1,1.4,0.3,2c0.2,0.6,0.4,1.1,0.8,1.5c0.3,0.4,0.8,0.8,1.2,1c0.5,0.2,1.1,0.4,1.7,0.4
				c0.8,0,1.6-0.2,2.2-0.5c0.7-0.3,1.2-0.8,1.7-1.4c0.5-0.6,0.8-1.4,1.1-2.2C984.4,480.6,984.6,479.6,984.6,478.6z"/>
			<path fill="#0064AA" d="M1005.6,482.3c0.1-0.3,0.3-0.5,0.4-0.8c0.1-0.3,0.3-0.5,0.5-0.8l5.5-9.5c0.2-0.3,0.4-0.5,0.6-0.5
				c0.2-0.1,0.5-0.1,0.7-0.1h3.2l-2.2,18h-3.5l1.3-10.5c0-0.2,0.1-0.5,0.1-0.7c0.1-0.3,0.1-0.5,0.2-0.8l-5.4,9.3
				c-0.2,0.3-0.4,0.5-0.6,0.6c-0.3,0.1-0.6,0.2-0.9,0.2h-0.5c-0.3,0-0.6-0.1-0.8-0.2c-0.2-0.1-0.4-0.3-0.5-0.6l-3.2-9.3
				c0,0.3,0,0.6,0,0.8c0,0.3,0,0.5-0.1,0.7l-1.2,10.6h-3.6l2.2-18h3.1c0.2,0,0.3,0,0.5,0c0.1,0,0.3,0,0.4,0.1c0.1,0,0.2,0.1,0.3,0.2
				c0.1,0.1,0.1,0.2,0.2,0.4l3.2,9.5C1005.3,481.2,1005.4,481.8,1005.6,482.3z"/>
			<path fill="#0064AA" d="M1027.8,482.6l-0.7,6.1h-4l2.2-18h6c1.1,0,2,0.1,2.8,0.4c0.8,0.3,1.4,0.6,1.9,1.1c0.5,0.5,0.9,1,1.1,1.6
				c0.2,0.6,0.3,1.3,0.3,2c0,1-0.2,1.9-0.5,2.7c-0.3,0.8-0.8,1.6-1.4,2.2c-0.6,0.6-1.4,1.1-2.4,1.4c-0.9,0.3-2.1,0.5-3.4,0.5H1027.8
				z M1028.9,473.6l-0.7,5.9h1.9c0.6,0,1.1-0.1,1.5-0.3c0.4-0.2,0.7-0.4,1-0.7c0.2-0.3,0.4-0.7,0.5-1.1c0.1-0.4,0.2-0.9,0.2-1.4
				c0-0.4,0-0.7-0.1-1c-0.1-0.3-0.2-0.6-0.4-0.8c-0.2-0.2-0.4-0.4-0.7-0.5c-0.3-0.1-0.7-0.2-1.1-0.2H1028.9z"/>
			<path fill="#0064AA" d="M1057.1,488.6h-3.1c-0.3,0-0.6-0.1-0.8-0.2c-0.2-0.2-0.3-0.4-0.4-0.6l-0.6-3.2h-6.1l-1.3,3.2
				c-0.1,0.2-0.3,0.4-0.5,0.6c-0.3,0.2-0.6,0.3-0.9,0.3h-3.2l8.6-18h4.1L1057.1,488.6z M1047.2,481.8h4.5l-0.9-5.2
				c-0.1-0.4-0.2-0.9-0.2-1.3c-0.1-0.4-0.2-0.8-0.2-1.2c-0.1,0.2-0.2,0.4-0.3,0.7c-0.1,0.3-0.2,0.5-0.3,0.7
				c-0.1,0.2-0.2,0.5-0.3,0.7c-0.1,0.2-0.2,0.4-0.2,0.5L1047.2,481.8z"/>
			<path fill="#0064AA" d="M1069.1,470.6c0.1,0,0.2,0,0.3,0.1c0.1,0,0.2,0.1,0.3,0.2c0.1,0.1,0.1,0.2,0.2,0.3l6.3,11.1
				c0-0.3,0-0.6,0.1-0.8c0-0.3,0.1-0.5,0.1-0.7l1.2-10.2h3.6l-2.2,18h-2.1c-0.3,0-0.6,0-0.8-0.1c-0.2-0.1-0.4-0.3-0.5-0.5l-6.3-11.1
				c0,0.2,0,0.5-0.1,0.7c0,0.2,0,0.4-0.1,0.6l-1.2,10.5h-3.6l2.2-18h2.1C1068.9,470.6,1069,470.6,1069.1,470.6z"/>
			<path fill="#0064AA" d="M1097.1,481.7l-0.9,6.9h-4l0.9-6.9l-4.6-11.2h3.6c0.3,0,0.6,0.1,0.8,0.2c0.2,0.2,0.3,0.4,0.4,0.6l1.7,5.5
				c0.1,0.4,0.2,0.7,0.3,1.1c0.1,0.3,0.2,0.7,0.2,1c0.2-0.3,0.3-0.6,0.5-1c0.2-0.3,0.4-0.7,0.6-1.1l3.1-5.5c0.1-0.2,0.3-0.4,0.5-0.6
				c0.2-0.2,0.5-0.3,0.9-0.3h3.3L1097.1,481.7z"/>
		</g>
		<g display="inline">
			<g>
				<polygon fill="#0064AA" points="1118.8,451.5 1062.6,351.1 1027.4,414 1048.4,451.5 				"/>
				<polygon fill="#0064AA" points="1041,451.5 1023.7,420.6 1006.4,451.5 				"/>
			</g>
			<polygon fill="#0064AA" points="1021.9,309.4 942.9,451.5 998.2,451.5 1049.6,358.8 			"/>
		</g>
	</g>
	<g id="XMLID_9_" display="none">
		<g display="inline">
			<path fill="#CE5959" d="M778.7,395.1c-1.2-1.6-1.8-3.9-1.8-6.8v-9.8c0-3,0.6-5.3,1.8-6.9c1.2-1.6,3.2-2.3,6.1-2.3
				c2.7,0,4.6,0.7,5.7,2c1.1,1.4,1.7,3.3,1.7,5.9v2.3h-4.8v-2.4c0-1,0-1.7-0.1-2.3c-0.1-0.6-0.3-1-0.7-1.4c-0.4-0.4-1-0.5-1.8-0.5
				c-0.8,0-1.4,0.2-1.8,0.6c-0.4,0.4-0.7,0.9-0.8,1.5c-0.1,0.6-0.2,1.4-0.2,2.4v11.9c0,1.6,0.2,2.7,0.6,3.4c0.4,0.7,1.1,1,2.2,1
				c0.8,0,1.3-0.2,1.7-0.5c0.4-0.4,0.6-0.8,0.7-1.4c0.1-0.6,0.2-1.4,0.2-2.4v-2.5h4.8v2.2c0,2.7-0.6,4.7-1.7,6.2
				c-1.1,1.5-3,2.2-5.8,2.2C781.9,397.5,779.9,396.7,778.7,395.1z"/>
			<path fill="#CE5959" d="M798.8,395.2c-1.2-1.5-1.8-3.8-1.8-6.7v-10.3c0-2.9,0.6-5.1,1.8-6.6c1.2-1.5,3.3-2.2,6.1-2.2
				c2.8,0,4.9,0.7,6.1,2.2c1.2,1.5,1.8,3.7,1.8,6.6v10.3c0,2.9-0.6,5.2-1.9,6.7c-1.2,1.5-3.3,2.3-6.1,2.3
				C802.1,397.5,800,396.7,798.8,395.2z M807.2,392.7c0.4-0.7,0.6-1.7,0.6-3.1V377c0-1.3-0.2-2.3-0.6-3c-0.4-0.7-1.1-1-2.3-1
				c-1.1,0-1.9,0.3-2.3,1c-0.4,0.7-0.6,1.7-0.6,3v12.7c0,1.3,0.2,2.4,0.6,3.1c0.4,0.7,1.1,1.1,2.3,1.1
				C806.1,393.8,806.8,393.4,807.2,392.7z"/>
			<path fill="#CE5959" d="M818.7,369.6h5.2l3.9,19.1l4-19.1h5.1l0.5,27.5h-3.7l-0.4-19.1l-3.9,19.1h-3l-4-19.2l-0.4,19.2h-3.8
				L818.7,369.6z"/>
			<path fill="#CE5959" d="M843.2,369.6h8.1c4.7,0,7,2.6,7,7.8c0,5-2.5,7.5-7.4,7.5h-2.8v12.2h-5V369.6z M850.1,381.3
				c1.4,0,2.3-0.3,2.8-0.9c0.5-0.6,0.7-1.6,0.7-3.1c0-1.1-0.1-1.9-0.2-2.5c-0.2-0.6-0.5-1-1-1.3c-0.5-0.3-1.2-0.4-2.3-0.4h-1.9v8.2
				H850.1z"/>
			<path fill="#CE5959" d="M865.5,369.6h5.4l5.5,27.5h-4.7l-1.1-6.4h-4.8l-1.1,6.4H860L865.5,369.6z M870.1,387.5l-1.9-11.6
				l-1.9,11.6H870.1z"/>
			<path fill="#CE5959" d="M880.8,369.6h3.5l6.7,15.7v-15.7h4.1v27.5h-3.3l-6.7-16.5v16.5h-4.3V369.6z"/>
			<path fill="#CE5959" d="M904.9,386.6l-5.6-17h4.7l3.4,10.9l3.2-10.9h4.6l-5.5,17v10.5h-4.8V386.6z"/>
		</g>
		<g display="inline">
			<path fill="#CE5959" d="M786.4,409.1v1.4h-4.1v11.2h-1.7v-11.2h-4.1v-1.4H786.4z"/>
			<path fill="#CE5959" d="M799.2,421.8h-1.3c-0.2,0-0.3,0-0.4-0.1c-0.1-0.1-0.2-0.2-0.2-0.3l-1.2-3h-5.7l-1.2,3
				c0,0.1-0.1,0.2-0.2,0.3c-0.1,0.1-0.2,0.1-0.4,0.1h-1.3l5-12.6h1.7L799.2,421.8z M790.9,417.1h4.7l-2-5.1
				c-0.1-0.3-0.3-0.7-0.4-1.2c-0.1,0.2-0.1,0.5-0.2,0.7c-0.1,0.2-0.1,0.4-0.2,0.5L790.9,417.1z"/>
			<path fill="#CE5959" d="M807.8,420.5c0.3,0,0.7,0,0.9,0c0.3,0,0.6-0.1,0.8-0.1c0.3-0.1,0.5-0.1,0.7-0.2c0.2-0.1,0.4-0.2,0.7-0.3
				V417h-2c-0.1,0-0.2,0-0.3-0.1c-0.1-0.1-0.1-0.1-0.1-0.2v-1h3.9v4.8c-0.3,0.2-0.6,0.4-1,0.6c-0.3,0.2-0.7,0.3-1.1,0.4
				c-0.4,0.1-0.8,0.2-1.3,0.3c-0.4,0.1-0.9,0.1-1.5,0.1c-0.9,0-1.8-0.2-2.5-0.5c-0.8-0.3-1.4-0.8-2-1.3c-0.6-0.6-1-1.2-1.3-2
				c-0.3-0.8-0.5-1.7-0.5-2.6c0-1,0.2-1.8,0.5-2.6c0.3-0.8,0.7-1.5,1.3-2c0.6-0.6,1.2-1,2-1.3c0.8-0.3,1.7-0.5,2.7-0.5
				c0.5,0,1,0,1.4,0.1c0.4,0.1,0.8,0.2,1.2,0.3c0.4,0.1,0.7,0.3,1,0.5c0.3,0.2,0.6,0.4,0.9,0.7l-0.5,0.8c-0.1,0.2-0.2,0.2-0.4,0.2
				c-0.1,0-0.2,0-0.3-0.1c-0.1-0.1-0.3-0.2-0.5-0.3c-0.2-0.1-0.4-0.2-0.7-0.3c-0.3-0.1-0.6-0.2-0.9-0.3s-0.8-0.1-1.3-0.1
				c-0.7,0-1.4,0.1-1.9,0.3c-0.6,0.2-1.1,0.6-1.5,1c-0.4,0.4-0.7,1-0.9,1.6c-0.2,0.6-0.3,1.3-0.3,2.1c0,0.8,0.1,1.5,0.3,2.1
				c0.2,0.6,0.5,1.2,1,1.6c0.4,0.4,0.9,0.8,1.5,1C806.5,420.4,807.2,420.5,807.8,420.5z"/>
			<path fill="#CE5959" d="M823.8,420.3h5.5v1.4h-7.2v-12.6h1.7V420.3z"/>
			<path fill="#CE5959" d="M834.9,421.8h-1.7v-12.6h1.7V421.8z"/>
			<path fill="#CE5959" d="M841.3,409.2c0.1,0,0.2,0.1,0.3,0.2l7.3,9.5c0-0.2,0-0.3,0-0.4c0-0.1,0-0.3,0-0.4v-8.9h1.5v12.6h-0.9
				c-0.1,0-0.2,0-0.3-0.1c-0.1,0-0.2-0.1-0.3-0.2l-7.3-9.5c0,0.1,0,0.3,0,0.4c0,0.1,0,0.3,0,0.4v9h-1.5v-12.6h0.9
				C841.1,409.1,841.2,409.2,841.3,409.2z"/>
			<path fill="#CE5959" d="M862.9,409.1v1.4h-6.1v4.2h4.9v1.3h-4.9v4.3h6.1v1.4h-7.8v-12.6H862.9z"/>
		</g>
		<g display="inline">
			<path fill="#CE5959" d="M683.7,331.1l75.9,21.6v75.5l-75.9-21.6V331.1 M678.9,324.7v85.7l85.7,24.3V349L678.9,324.7L678.9,324.7z
				"/>
			<polygon fill="#CE5959" points="724.8,474.5 639.1,450.1 639.1,364.4 724.8,388.8 			"/>
			<path fill="#CE5959" d="M680.3,330.2l74.9,21.3l-31.9,31.9L648.4,362L680.3,330.2 M678.9,324.7l-39.8,39.8l85.7,24.3l39.8-39.8
				L678.9,324.7L678.9,324.7z"/>
			<g>
				<polygon fill="#CE5959" points="729.6,469.6 764.5,434.7 729.6,424.8 				"/>
			</g>
		</g>
	</g>
	<g id="XMLID_10_" display="none">
		<g display="inline">
			<path fill="#F6B217" d="M387.5,497.4c0.1,0,0.2,0,0.3,0.1l0.8,0.9c-0.6,0.7-1.4,1.3-2.3,1.7c-0.9,0.4-1.9,0.6-3.2,0.6
				c-1.1,0-2.1-0.2-3-0.6c-0.9-0.4-1.6-0.9-2.3-1.6c-0.6-0.7-1.1-1.5-1.5-2.4c-0.3-0.9-0.5-2-0.5-3.1s0.2-2.2,0.6-3.1
				c0.4-0.9,0.9-1.8,1.6-2.4c0.7-0.7,1.5-1.2,2.4-1.6c0.9-0.4,2-0.6,3.1-0.6c1.1,0,2.1,0.2,2.9,0.5c0.8,0.3,1.5,0.8,2.1,1.4
				l-0.7,0.9c0,0.1-0.1,0.1-0.2,0.2c-0.1,0-0.2,0.1-0.3,0.1c-0.1,0-0.2,0-0.3-0.1c-0.1-0.1-0.2-0.1-0.4-0.2
				c-0.1-0.1-0.3-0.2-0.5-0.3c-0.2-0.1-0.4-0.2-0.7-0.3c-0.3-0.1-0.6-0.2-0.9-0.2c-0.3-0.1-0.7-0.1-1.2-0.1c-0.8,0-1.5,0.1-2.2,0.4
				c-0.7,0.3-1.3,0.7-1.7,1.2c-0.5,0.5-0.9,1.1-1.1,1.9c-0.3,0.7-0.4,1.6-0.4,2.5c0,0.9,0.1,1.8,0.4,2.5c0.3,0.7,0.6,1.4,1.1,1.9
				c0.5,0.5,1,0.9,1.7,1.2c0.6,0.3,1.3,0.4,2.1,0.4c0.5,0,0.9,0,1.2-0.1c0.4-0.1,0.7-0.1,1-0.2s0.6-0.3,0.9-0.4
				c0.3-0.2,0.5-0.4,0.8-0.6C387.2,497.4,387.3,497.4,387.5,497.4z"/>
			<path fill="#F6B217" d="M410.6,493c0,1.1-0.2,2.2-0.5,3.1c-0.4,0.9-0.9,1.8-1.5,2.4c-0.7,0.7-1.4,1.2-2.4,1.6
				c-0.9,0.4-1.9,0.6-3,0.6c-1.1,0-2.1-0.2-3-0.6s-1.7-0.9-2.4-1.6c-0.7-0.7-1.2-1.5-1.5-2.4c-0.4-0.9-0.5-2-0.5-3.1
				c0-1.1,0.2-2.2,0.5-3.1c0.4-0.9,0.9-1.8,1.5-2.4c0.7-0.7,1.4-1.2,2.4-1.6c0.9-0.4,1.9-0.6,3-0.6c1.1,0,2.1,0.2,3,0.6
				c0.9,0.4,1.7,0.9,2.4,1.6c0.7,0.7,1.2,1.5,1.5,2.4C410.4,490.8,410.6,491.8,410.6,493z M408.5,493c0-0.9-0.1-1.8-0.4-2.5
				c-0.3-0.7-0.6-1.4-1.1-1.9s-1-0.9-1.7-1.2c-0.7-0.3-1.4-0.4-2.2-0.4c-0.8,0-1.5,0.1-2.2,0.4c-0.7,0.3-1.2,0.7-1.7,1.2
				s-0.8,1.1-1.1,1.9c-0.3,0.7-0.4,1.6-0.4,2.5c0,0.9,0.1,1.8,0.4,2.5c0.3,0.7,0.6,1.4,1.1,1.9c0.5,0.5,1,0.9,1.7,1.2
				c0.7,0.3,1.4,0.4,2.2,0.4c0.8,0,1.6-0.1,2.2-0.4c0.7-0.3,1.2-0.7,1.7-1.2c0.5-0.5,0.8-1.1,1.1-1.9
				C408.3,494.7,408.5,493.9,408.5,493z"/>
			<path fill="#F6B217" d="M426.3,495.6c0.1,0.2,0.1,0.4,0.2,0.6c0.1-0.2,0.1-0.4,0.2-0.6c0.1-0.2,0.2-0.4,0.3-0.5l5.1-9.3
				c0.1-0.2,0.2-0.3,0.3-0.3c0.1,0,0.2-0.1,0.4-0.1h1.5v15.1h-1.8v-11.1c0-0.1,0-0.3,0-0.5c0-0.2,0-0.3,0-0.5l-5.2,9.4
				c-0.2,0.3-0.4,0.5-0.7,0.5h-0.3c-0.3,0-0.6-0.2-0.7-0.5l-5.3-9.5c0,0.2,0,0.4,0,0.5c0,0.2,0,0.3,0,0.5v11.1h-1.8v-15.1h1.5
				c0.2,0,0.3,0,0.4,0.1c0.1,0,0.2,0.1,0.3,0.3l5.2,9.3C426.2,495.2,426.2,495.4,426.3,495.6z"/>
			<path fill="#F6B217" d="M445.5,494.9v5.7h-2v-15.1h4.5c1,0,1.8,0.1,2.5,0.3c0.7,0.2,1.3,0.5,1.8,0.9c0.5,0.4,0.8,0.9,1,1.5
				c0.2,0.6,0.3,1.2,0.3,1.9c0,0.7-0.1,1.3-0.4,1.9c-0.2,0.6-0.6,1.1-1.1,1.5c-0.5,0.4-1.1,0.8-1.8,1c-0.7,0.2-1.5,0.4-2.4,0.4
				H445.5z M445.5,493.2h2.4c0.6,0,1.1-0.1,1.5-0.2c0.4-0.2,0.8-0.4,1.1-0.6c0.3-0.3,0.5-0.6,0.7-1c0.2-0.4,0.2-0.8,0.2-1.3
				c0-1-0.3-1.7-0.9-2.3c-0.6-0.5-1.5-0.8-2.7-0.8h-2.4V493.2z"/>
			<path fill="#F6B217" d="M472.4,500.5h-1.6c-0.2,0-0.3,0-0.4-0.1c-0.1-0.1-0.2-0.2-0.3-0.3l-1.4-3.6H462l-1.4,3.6
				c0,0.1-0.1,0.2-0.3,0.3c-0.1,0.1-0.3,0.1-0.4,0.1h-1.6l6-15.1h2.1L472.4,500.5z M462.5,494.9h5.6l-2.4-6.1
				c-0.2-0.4-0.3-0.9-0.5-1.4c-0.1,0.3-0.2,0.6-0.2,0.8c-0.1,0.2-0.1,0.5-0.2,0.6L462.5,494.9z"/>
			<path fill="#F6B217" d="M481.1,485.5c0.1,0,0.2,0.1,0.3,0.3l8.8,11.4c0-0.2,0-0.4,0-0.5c0-0.2,0-0.3,0-0.5v-10.7h1.8v15.1h-1
				c-0.2,0-0.3,0-0.4-0.1c-0.1-0.1-0.2-0.2-0.3-0.3l-8.7-11.4c0,0.2,0,0.3,0,0.5c0,0.2,0,0.3,0,0.5v10.8h-1.8v-15.1h1.1
				C480.8,485.4,481,485.4,481.1,485.5z"/>
			<path fill="#F6B217" d="M506.6,494.5v6h-2v-6l-5.5-9.1h1.8c0.2,0,0.3,0,0.4,0.1c0.1,0.1,0.2,0.2,0.3,0.3l3.5,5.9
				c0.1,0.2,0.3,0.5,0.4,0.7c0.1,0.2,0.2,0.4,0.3,0.6c0.1-0.2,0.2-0.4,0.3-0.7c0.1-0.2,0.2-0.4,0.3-0.7l3.4-5.9
				c0.1-0.1,0.1-0.2,0.3-0.3c0.1-0.1,0.3-0.2,0.4-0.2h1.8L506.6,494.5z"/>
		</g>
		<g display="inline">
			<g>
				<path fill="#F6B217" d="M425.3,460c0.9,0.1,1.8,0.2,2.6,0.3c13.6-6.1,25.1-16,33.2-29c7.8-12.6,11.6-26.8,11.3-41.2l-14.9-14.9
					C463.6,406.6,451.8,439.9,425.3,460z"/>
				<path fill="#F6B217" d="M420,459.4c0.1,0,0.3,0.1,0.4,0.1c28.3-20.2,40.5-55.5,32.5-87.9l-21.2-21.2
					C448.7,385,445.3,427.6,420,459.4z"/>
				<path fill="#F6B217" d="M491.8,407.6c-3.6,16.2-12.2,30.7-24.9,41.8c-3.7,3.2-7.7,6.1-11.8,8.5c20.8-6.1,37.6-21.6,45.4-41.7
					L491.8,407.6z"/>
				<path fill="#F6B217" d="M488.5,405.2l-12.2-12.2c-0.2,14-4.2,27.7-11.7,39.9c-7.4,11.9-17.6,21.4-29.7,27.8c0,0,0,0,0.1,0h0
					c2.8,0,5.5-0.2,8.2-0.5C466,450.7,483.5,430.4,488.5,405.2z"/>
				<path fill="#F6B217" d="M421.8,341.4l-14.6-14.6c-25.9,10-44.4,35.2-44.4,64.6v0c0,32.3,22.5,59.7,52.6,67.2
					C443.5,424.5,445,376.8,421.8,341.4z"/>
			</g>
			<path fill="#F6B217" d="M522.2,402.9c0-38-31.1-69.2-69.2-69.2h0c-8.7,0-17.1,1.6-24.8,4.6l89.3,89.3
				C520.5,420,522.2,411.6,522.2,402.9L522.2,402.9z"/>
		</g>
	</g>
	<g id="XMLID_11_" display="none">
		<g display="inline">
			<path fill="#0064AA" d="M201.9,699.2c0.8,1,1.3,2.3,1.3,3.6c0,1.9-0.6,3.5-1.9,4.6c-1.3,1.1-3.2,1.7-5.6,1.7h-9.9V686h9.7
				c2.3,0,4.1,0.5,5.4,1.5c1.3,1,1.9,2.5,1.9,4.3c0,1.4-0.4,2.6-1.1,3.5c-0.8,0.9-1.7,1.5-3,1.8
				C199.9,697.5,201.1,698.2,201.9,699.2z M190.3,695.7h4.2c1.2,0,2-0.3,2.6-0.8c0.6-0.5,0.9-1.2,0.9-2.2c0-1-0.3-1.7-0.9-2.2
				c-0.6-0.5-1.5-0.8-2.7-0.8h-4.1V695.7z M197.5,704.6c0.7-0.5,1-1.3,1-2.3c0-1-0.3-1.8-1-2.4c-0.7-0.6-1.6-0.8-2.8-0.8h-4.3v6.3
				h4.4C195.9,705.4,196.8,705.1,197.5,704.6z"/>
			<path fill="#0064AA" d="M221.7,709.1l-5.4-9h-2v9h-4.6V686h8.8c2.7,0,4.7,0.7,6.1,2c1.4,1.3,2.1,3,2.1,5.2c0,1.7-0.5,3.2-1.5,4.4
				c-1,1.2-2.4,2-4.2,2.4l5.8,9.2H221.7z M214.3,697h3.8c2.6,0,4-1.2,4-3.5c0-1.1-0.3-2-1-2.6c-0.6-0.6-1.6-0.9-3-0.9h-3.8V697z"/>
			<path fill="#0064AA" d="M247.1,704.5h-9.3l-1.6,4.6h-4.9l8.5-22.8h5.3l8.5,22.8h-4.9L247.1,704.5z M245.9,701l-3.4-9.7l-3.4,9.7
				H245.9z"/>
			<path fill="#0064AA" d="M278.9,709.1h-4.6L264,693.4v15.7h-4.6V686h4.6l10.3,15.8V686h4.6V709.1z"/>
			<path fill="#0064AA" d="M305.2,703.6c-1,1.7-2.3,3.1-4.2,4.1c-1.8,1-4,1.5-6.5,1.5h-8.2V686h8.2c2.5,0,4.7,0.5,6.5,1.4
				c1.8,0.9,3.2,2.3,4.2,4c1,1.7,1.4,3.8,1.4,6.1C306.7,699.8,306.2,701.9,305.2,703.6z M299.9,703c1.4-1.3,2-3.1,2-5.5
				c0-2.4-0.7-4.2-2-5.5c-1.4-1.3-3.3-2-5.8-2H291V705h3.2C296.7,705,298.6,704.3,299.9,703z"/>
		</g>
		<g display="inline">
			<g>
				<path fill="#0064AA" d="M153.9,685.1c-9.2,0-18.2-2.4-26.1-7l10.1-17.4c4.9,2.8,10.4,4.3,16,4.3c17.7,0,32-14.4,32-32
					c0-17.7-14.4-32-32-32c-5.6,0-11.2,1.5-16,4.3l-10.1-17.4c7.9-4.6,17-7,26.1-7c28.8,0,52.1,23.4,52.1,52.1
					C206.1,661.7,182.7,685.1,153.9,685.1z"/>
			</g>
			<g>
				<circle fill="#0064AA" cx="132.8" cy="669.5" r="21.2"/>
			</g>
			<g>
				<path fill="#0064AA" d="M131.5,721.4c-28.7,0-52.1-23.4-52.1-52.1c0-28.7,23.4-52.1,52.1-52.1c15.6,0,30.2,6.9,40.2,18.9
					l-15.5,12.8c-6.1-7.4-15.1-11.6-24.7-11.6c-17.6,0-31.9,14.3-31.9,31.9c0,17.6,14.3,31.9,31.9,31.9c8.9,0,17.2-3.6,23.3-10.1
					l14.7,13.8C159.6,715.5,145.8,721.4,131.5,721.4z"/>
			</g>
		</g>
	</g>
	<g id="XMLID_12_" display="none">
		<g display="inline">
			<path fill="#403449" d="M925.6,200.2c0.7,0.9,1.1,2,1.1,3.2c0,1.7-0.6,3.1-1.7,4.1c-1.2,1-2.8,1.5-5,1.5h-8.8v-20.5h8.6
				c2.1,0,3.7,0.5,4.8,1.4c1.1,0.9,1.7,2.2,1.7,3.8c0,1.3-0.3,2.3-1,3.1c-0.7,0.8-1.5,1.3-2.6,1.6
				C923.8,198.7,924.8,199.3,925.6,200.2z M915.3,197.1h3.7c1,0,1.8-0.2,2.3-0.7c0.5-0.5,0.8-1.1,0.8-2c0-0.9-0.3-1.5-0.8-2
				c-0.5-0.5-1.3-0.7-2.4-0.7h-3.6V197.1z M921.6,204.9c0.6-0.5,0.9-1.2,0.9-2.1c0-0.9-0.3-1.6-0.9-2.1c-0.6-0.5-1.4-0.7-2.5-0.7
				h-3.9v5.6h3.9C920.2,205.7,921.1,205.4,921.6,204.9z"/>
			<path fill="#403449" d="M943.1,209l-4.8-8h-1.8v8h-4.1v-20.5h7.8c2.4,0,4.2,0.6,5.4,1.7c1.2,1.2,1.9,2.7,1.9,4.6
				c0,1.5-0.4,2.8-1.3,3.9c-0.9,1-2.1,1.7-3.7,2.1l5.1,8.2H943.1z M936.5,198.2h3.4c2.3,0,3.5-1,3.5-3.1c0-1-0.3-1.8-0.9-2.3
				c-0.6-0.6-1.5-0.8-2.7-0.8h-3.4V198.2z"/>
			<path fill="#403449" d="M965.7,204.9h-8.2L956,209h-4.3l7.5-20.2h4.7l7.5,20.2h-4.3L965.7,204.9z M964.6,201.8l-3-8.6l-3,8.6
				H964.6z"/>
			<path fill="#403449" d="M993.9,209h-4.1l-9.2-13.9V209h-4.1v-20.5h4.1l9.2,14v-14h4.1V209z"/>
			<path fill="#403449" d="M1017.2,204.1c-0.9,1.5-2.1,2.8-3.7,3.6c-1.6,0.9-3.5,1.3-5.8,1.3h-7.3v-20.5h7.3c2.2,0,4.1,0.4,5.8,1.3
				c1.6,0.8,2.8,2,3.7,3.6c0.9,1.5,1.3,3.3,1.3,5.4C1018.5,200.7,1018.1,202.5,1017.2,204.1z M1012.5,203.6c1.2-1.2,1.8-2.8,1.8-4.9
				c0-2.1-0.6-3.7-1.8-4.9c-1.2-1.2-2.9-1.7-5.1-1.7h-2.8v13.3h2.8C1009.6,205.3,1011.3,204.8,1012.5,203.6z"/>
		</g>
		<path display="inline" fill="#403449" d="M968.2,74.7c0,0,52.8,19.9,51.7,48.8h0v48.8c0,0-52.8-19.9-51.7-48.8h0V74.7z"/>
		<g display="inline">
			<path fill="#403449" d="M1067,160.8c9.8-6.7,21.3-11.1,33.5-12.4v-15.3c-7.1,2.7-13.8,6.6-19.7,11.7
				C1075.3,149.5,1070.7,154.9,1067,160.8z"/>
			<path fill="#403449" d="M1061,165.4c4.3-8.6,10.3-16.4,17.9-22.8c6.5-5.5,13.9-9.8,21.7-12.6V86c0,0-75.2,28.4-73.6,69.5h0v69.5
				c0,0,3.4-1.3,8.6-3.6c0-2.2,0.1-4.5,0.2-6.7C1037.4,194.7,1046.9,177.4,1061,165.4z"/>
			<path fill="#403449" d="M1053.8,191.2c0.4-4.9,1.3-9.6,2.6-14.2c-8.8,10.4-14.5,23.4-15.7,37.9c-0.1,1.3-0.2,2.6-0.2,4
				c4.3-2.1,9.2-4.6,14.5-7.6C1053.7,204.7,1053.2,198,1053.8,191.2z"/>
			<path fill="#403449" d="M1056.8,191.4c-0.5,6.2-0.2,12.3,0.9,18.2c20.5-12.3,43.6-31.3,42.7-54.2h0v-2
				c-14.9,1.7-28.6,8.3-39.1,18.3C1058.9,177.9,1057.4,184.6,1056.8,191.4z"/>
		</g>
	</g>
	<g id="XMLID_4_" display="none">
		<g display="inline">
			<g>
				<path fill="#CE5959" d="M367.2,742.4V726h6c1.1,0,2.1,0.1,2.9,0.3c0.8,0.2,1.4,0.5,1.9,0.9c0.5,0.4,0.9,0.8,1.1,1.4
					c0.2,0.5,0.3,1.2,0.3,1.8c0,0.4-0.1,0.7-0.2,1.1c-0.1,0.3-0.3,0.7-0.5,1c-0.2,0.3-0.5,0.6-0.9,0.8c-0.4,0.2-0.8,0.5-1.3,0.6
					c1.1,0.3,1.9,0.7,2.4,1.3c0.5,0.6,0.8,1.3,0.8,2.3c0,0.7-0.1,1.3-0.4,1.9c-0.3,0.6-0.7,1.1-1.2,1.6c-0.5,0.4-1.2,0.8-1.9,1
					c-0.8,0.3-1.6,0.4-2.6,0.4H367.2z M371,732.9h2c0.4,0,0.8,0,1.1-0.1c0.3-0.1,0.6-0.2,0.9-0.3c0.2-0.1,0.4-0.4,0.5-0.6
					c0.1-0.3,0.2-0.6,0.2-1c0-0.4,0-0.7-0.1-1c-0.1-0.3-0.2-0.5-0.4-0.6c-0.2-0.2-0.5-0.3-0.8-0.3c-0.3-0.1-0.7-0.1-1.1-0.1H371
					V732.9z M371,735.5v4.1h2.7c0.5,0,0.9-0.1,1.2-0.2c0.3-0.1,0.6-0.3,0.7-0.5c0.2-0.2,0.3-0.4,0.4-0.7c0.1-0.3,0.1-0.5,0.1-0.8
					c0-0.3,0-0.6-0.1-0.8c-0.1-0.2-0.2-0.4-0.4-0.6c-0.2-0.2-0.4-0.3-0.8-0.4c-0.3-0.1-0.7-0.1-1.2-0.1H371z"/>
				<path fill="#CE5959" d="M390.2,736.3v6.1h-3.8V726h5.3c1.2,0,2.2,0.1,3,0.4c0.8,0.2,1.5,0.6,2,1c0.5,0.4,0.9,0.9,1.2,1.5
					c0.2,0.6,0.4,1.2,0.4,1.9c0,0.5-0.1,1-0.2,1.5c-0.1,0.5-0.4,0.9-0.6,1.3c-0.3,0.4-0.6,0.8-1,1.1c-0.4,0.3-0.9,0.6-1.4,0.8
					c0.3,0.1,0.5,0.3,0.7,0.5c0.2,0.2,0.4,0.4,0.6,0.7l3.5,5.7h-3.4c-0.6,0-1.1-0.2-1.4-0.7l-2.7-4.7c-0.1-0.2-0.3-0.4-0.4-0.4
					c-0.2-0.1-0.4-0.1-0.7-0.1H390.2z M390.2,733.7h1.5c0.5,0,1-0.1,1.3-0.2c0.4-0.1,0.7-0.3,0.9-0.5c0.2-0.2,0.4-0.5,0.5-0.8
					c0.1-0.3,0.2-0.6,0.2-1c0-0.7-0.2-1.3-0.7-1.7c-0.5-0.4-1.2-0.6-2.2-0.6h-1.5V733.7z"/>
				<path fill="#CE5959" d="M421.1,742.4h-2.9c-0.3,0-0.6-0.1-0.8-0.2c-0.2-0.2-0.4-0.3-0.4-0.6l-1-2.9h-6.2l-1,2.9
					c-0.1,0.2-0.2,0.4-0.4,0.6c-0.2,0.2-0.5,0.3-0.8,0.3h-3l6.3-16.4h3.9L421.1,742.4z M410.6,736.1h4.5l-1.5-4.5
					c-0.1-0.3-0.2-0.6-0.3-1c-0.1-0.4-0.3-0.8-0.4-1.3c-0.1,0.5-0.2,0.9-0.4,1.3c-0.1,0.4-0.2,0.7-0.4,1L410.6,736.1z"/>
				<path fill="#CE5959" d="M429.3,726.1c0.1,0,0.2,0,0.3,0.1c0.1,0,0.2,0.1,0.3,0.2c0.1,0.1,0.2,0.2,0.3,0.3l7.8,9.8
					c0-0.3-0.1-0.6-0.1-0.9c0-0.3,0-0.6,0-0.8V726h3.3v16.4h-2c-0.3,0-0.5,0-0.7-0.1c-0.2-0.1-0.4-0.3-0.6-0.5l-7.7-9.7
					c0,0.3,0,0.6,0.1,0.8c0,0.3,0,0.5,0,0.8v8.8h-3.3V726h2C429.1,726,429.2,726,429.3,726.1z"/>
				<path fill="#CE5959" d="M463.2,734.2c0,1.2-0.2,2.3-0.6,3.3c-0.4,1-1,1.9-1.7,2.6c-0.7,0.7-1.6,1.3-2.7,1.7
					c-1,0.4-2.2,0.6-3.5,0.6h-6.4V726h6.4c1.3,0,2.4,0.2,3.5,0.6c1,0.4,1.9,1,2.7,1.7c0.7,0.7,1.3,1.6,1.7,2.6
					C463,732,463.2,733,463.2,734.2z M459.3,734.2c0-0.8-0.1-1.5-0.3-2.2c-0.2-0.7-0.5-1.2-0.9-1.7c-0.4-0.5-0.9-0.8-1.4-1
					c-0.6-0.2-1.2-0.4-1.9-0.4h-2.5v10.5h2.5c0.7,0,1.4-0.1,1.9-0.4c0.6-0.2,1-0.6,1.4-1c0.4-0.5,0.7-1,0.9-1.7
					C459.2,735.8,459.3,735,459.3,734.2z"/>
				<path fill="#CE5959" d="M480.8,726.1c0.1,0,0.2,0,0.3,0.1c0.1,0,0.2,0.1,0.3,0.2c0.1,0.1,0.2,0.2,0.3,0.3l7.8,9.8
					c0-0.3-0.1-0.6-0.1-0.9c0-0.3,0-0.6,0-0.8V726h3.3v16.4h-2c-0.3,0-0.5,0-0.7-0.1c-0.2-0.1-0.4-0.3-0.6-0.5l-7.7-9.7
					c0,0.3,0,0.6,0.1,0.8c0,0.3,0,0.5,0,0.8v8.8h-3.3V726h2C480.5,726,480.6,726,480.8,726.1z"/>
				<path fill="#CE5959" d="M515,742.4h-2.9c-0.3,0-0.6-0.1-0.8-0.2c-0.2-0.2-0.4-0.3-0.4-0.6l-1-2.9h-6.2l-1,2.9
					c-0.1,0.2-0.2,0.4-0.4,0.6c-0.2,0.2-0.5,0.3-0.8,0.3h-3l6.3-16.4h3.9L515,742.4z M504.5,736.1h4.5l-1.5-4.5
					c-0.1-0.3-0.2-0.6-0.3-1c-0.1-0.4-0.3-0.8-0.4-1.3c-0.1,0.5-0.2,0.9-0.4,1.3c-0.1,0.4-0.2,0.7-0.4,1L504.5,736.1z"/>
				<path fill="#CE5959" d="M529.7,735.8c0.1,0.3,0.3,0.6,0.4,0.9c0.1-0.3,0.3-0.7,0.4-1c0.1-0.3,0.3-0.6,0.4-0.9l4.2-8.3
					c0.1-0.1,0.2-0.3,0.2-0.3c0.1-0.1,0.2-0.1,0.3-0.2c0.1,0,0.2-0.1,0.3-0.1c0.1,0,0.3,0,0.4,0h2.9v16.3h-3.3V733
					c0-0.5,0-1,0.1-1.5l-4.3,8.4c-0.1,0.3-0.3,0.5-0.5,0.6c-0.2,0.1-0.5,0.2-0.8,0.2h-0.5c-0.3,0-0.6-0.1-0.8-0.2
					c-0.2-0.1-0.4-0.3-0.5-0.6l-4.4-8.4c0,0.3,0.1,0.5,0.1,0.8c0,0.3,0,0.5,0,0.7v9.4h-3.3V726h2.9c0.2,0,0.3,0,0.4,0
					c0.1,0,0.2,0,0.3,0.1c0.1,0,0.2,0.1,0.3,0.2c0.1,0.1,0.2,0.2,0.2,0.3l4.2,8.3C529.4,735.2,529.5,735.5,529.7,735.8z"/>
				<path fill="#CE5959" d="M557,726v2.9h-6.7v3.8h5.1v2.8h-5.1v3.9h6.7v2.9h-10.5V726H557z"/>
			</g>
		</g>
		<path display="inline" fill="#CE5959" d="M524.1,600.2l-62.4,108.1l-62.4-108.1H524.1 M527.2,594.1h-131c-3.3,0-5.4,3.6-3.8,6.5
			L458,714.1c0.8,1.4,2.3,2.2,3.8,2.2c1.5,0,2.9-0.7,3.8-2.2L531,600.6C532.7,597.7,530.6,594.1,527.2,594.1L527.2,594.1z"/>
		<path display="inline" fill="#CE5959" d="M461.7,553.7l-73,126.5h146L461.7,553.7z M444,602.5l4.1,7.2l-20,34.6l-4.1-7.2
			L444,602.5z M431,649.4l20-34.6l32.9,57h-40L431,649.4z"/>
	</g>
	<g id="XMLID_3_" display="none">
		<g display="inline">
			<path fill="#F6B217" d="M1036.9,577.1c26.3,15.6,34.9,49.6,19.3,75.9c-5.4,9.1-13.1,16.1-21.8,20.7c18.6-0.3,36.6-9.9,46.8-27.1
				c15.6-26.3,7-60.2-19.3-75.9c-17.2-10.2-37.6-10-54-1.4C1017.7,569.2,1027.7,571.7,1036.9,577.1z"/>
			<g>
				<path fill="#F6B217" d="M973.6,657.9c2.6,9.1,6.9,17.4,12.6,24.7c4.1,3,8.6,5.6,13.3,7.7c-6.7-8-11.9-17.4-14.8-27.7
					c-4-14.1-4.1-28.4-0.8-41.7c-2.3-6.6-3.8-13.6-4.2-20.9C970.4,617,967.9,637.6,973.6,657.9z"/>
				<path fill="#F6B217" d="M987.4,661.7c3.3,11.8,9.7,22.3,18,30.9c7.9,2.8,16.5,4.3,25.4,4.3c27.5,0,51.6-14.6,65-36.4
					c-11.6,7.1-25.3,11.3-39.9,11.3c-31.5,0-58.6-19.1-70.2-46.4C983.5,637.1,983.9,649.5,987.4,661.7z"/>
				<path fill="#F6B217" d="M979.6,594.6c0.2-14.3,4.3-27.7,11.3-39c-21.8,13.4-36.4,37.5-36.4,65c0,21.9,9.2,41.6,24,55.5
					c-3.2-5.5-5.8-11.3-7.5-17.5C964.5,636,968.1,613,979.6,594.6z"/>
			</g>
			<path fill="#F6B217" d="M1008.6,585c0,0-18.9,50.8,31.6,68.5C1059.5,603.7,1008.6,585,1008.6,585z"/>
		</g>
		<g display="inline">
			<path fill="#F6B217" d="M951.7,734.6c-1.4-0.8-2.5-1.8-3.3-3.2c-0.8-1.4-1.2-2.9-1.2-4.6c0-1.7,0.4-3.3,1.2-4.6
				c0.8-1.4,1.9-2.4,3.4-3.2c1.4-0.8,3-1.2,4.8-1.2c1.4,0,2.7,0.3,3.9,0.8c1.2,0.5,2.2,1.2,3,2.2l-2.1,2c-1.3-1.4-2.8-2-4.7-2
				c-1.2,0-2.3,0.3-3.2,0.8s-1.7,1.3-2.2,2.2s-0.8,2-0.8,3.2c0,1.2,0.3,2.2,0.8,3.2c0.5,0.9,1.3,1.7,2.2,2.2c1,0.5,2,0.8,3.2,0.8
				c1.8,0,3.4-0.7,4.7-2.1l2.1,2c-0.8,1-1.8,1.7-3,2.2c-1.2,0.5-2.5,0.8-3.9,0.8C954.7,735.8,953.1,735.4,951.7,734.6z"/>
			<path fill="#F6B217" d="M974.6,734.6c-1.4-0.8-2.6-1.9-3.4-3.2c-0.8-1.4-1.2-2.9-1.2-4.6s0.4-3.2,1.2-4.6
				c0.8-1.4,1.9-2.5,3.4-3.2c1.4-0.8,3-1.2,4.8-1.2c1.8,0,3.4,0.4,4.8,1.2c1.4,0.8,2.6,1.8,3.4,3.2c0.8,1.4,1.2,2.9,1.2,4.6
				c0,1.7-0.4,3.3-1.2,4.6c-0.8,1.4-1.9,2.4-3.4,3.2c-1.4,0.8-3,1.2-4.8,1.2C977.6,735.8,976,735.4,974.6,734.6z M982.5,732.1
				c0.9-0.5,1.7-1.3,2.2-2.2s0.8-2,0.8-3.2c0-1.2-0.3-2.2-0.8-3.2s-1.3-1.7-2.2-2.2s-2-0.8-3.2-0.8c-1.2,0-2.2,0.3-3.2,0.8
				s-1.7,1.3-2.2,2.2s-0.8,2-0.8,3.2c0,1.2,0.3,2.2,0.8,3.2s1.3,1.7,2.2,2.2c0.9,0.5,2,0.8,3.2,0.8
				C980.5,732.9,981.6,732.7,982.5,732.1z"/>
			<path fill="#F6B217" d="M1013.3,735.5l0-11.6l-5.8,9.6h-1.5l-5.8-9.5v11.5h-3.1V718h2.7l7,11.6l6.8-11.6h2.7l0,17.5H1013.3z"/>
			<path fill="#F6B217" d="M1037.3,718.8c1.1,0.5,2,1.2,2.6,2.2c0.6,0.9,0.9,2,0.9,3.3c0,1.3-0.3,2.4-0.9,3.3
				c-0.6,0.9-1.5,1.7-2.6,2.2s-2.4,0.8-4,0.8h-3.9v5h-3.3V718h7.2C1034.8,718,1036.2,718.3,1037.3,718.8z M1036.4,726.8
				c0.7-0.6,1.1-1.5,1.1-2.6c0-1.1-0.4-2-1.1-2.6c-0.7-0.6-1.8-0.9-3.2-0.9h-3.8v7h3.8C1034.6,727.7,1035.7,727.4,1036.4,726.8z"/>
			<path fill="#F6B217" d="M1059.5,731.5h-8.8l-1.7,4h-3.4l7.9-17.5h3.2l7.9,17.5h-3.4L1059.5,731.5z M1058.4,728.9l-3.3-7.7
				l-3.3,7.7H1058.4z"/>
			<path fill="#F6B217" d="M1087.4,718v17.5h-2.7l-9.7-11.8v11.8h-3.2V718h2.7l9.7,11.9V718H1087.4z"/>
			<path fill="#F6B217" d="M1104.7,729.4v6.2h-3.3v-6.1l-6.9-11.4h3.5l5.1,8.5l5.2-8.5h3.2L1104.7,729.4z"/>
		</g>
	</g>
	<g id="XMLID_2_" display="none">
		<g display="inline">
			<path fill="#403449" d="M722.3,698.1h7.1c3.2,0,5.6,0.5,7.1,1.5c1.5,1,2.3,2.5,2.3,4.7c0,0.3,0,0.6-0.1,0.9
				c0,0.3-0.1,0.7-0.3,1.2s-0.4,0.9-0.7,1.3c-0.3,0.4-0.7,0.8-1.2,1.2c-0.5,0.4-1.2,0.7-1.9,0.9c1.7,0.3,2.9,1,3.8,2.1
				c0.9,1.1,1.3,2.4,1.3,4c0,2.3-0.7,4-2.2,5.2c-1.5,1.2-3.7,1.8-6.6,1.8h-8.7V698.1z M725.2,708.8h5.3c1.7,0,3-0.3,3.9-0.9
				c0.9-0.6,1.3-1.7,1.3-3.2c0-1.6-0.5-2.6-1.6-3.2c-1.1-0.6-2.7-0.9-4.9-0.9h-4.1V708.8z M725.2,711.1v9.4h5.2
				c2.1,0,3.7-0.4,4.7-1.2c1.1-0.8,1.6-2,1.6-3.6c0-1.7-0.6-2.9-1.7-3.6c-1.1-0.7-2.9-1-5.3-1H725.2z"/>
			<path fill="#403449" d="M769.3,722.9h-3.4l-3.4-7.8c-0.9-2.1-1.5-3.4-1.8-3.8c-0.8,0.1-1.8,0.1-2.9,0.1l-4.4-0.1v11.6h-3v-25.1
				h7.9c0.9,0,1.7,0,2.4,0.1c0.7,0,1.4,0.1,2.1,0.2c0.7,0.1,1.3,0.3,1.8,0.5c0.5,0.2,1,0.5,1.4,0.8c0.4,0.3,0.8,0.7,1.1,1.2
				c0.3,0.5,0.5,1,0.6,1.6c0.2,0.6,0.2,1.3,0.2,2.1c0,1.6-0.4,2.9-1.2,4c-0.8,1.1-2,1.9-3.5,2.4c0,0,0.1,0.2,0.3,0.6
				c0.2,0.4,0.5,0.8,0.8,1.4c0.3,0.6,0.5,1,0.7,1.4L769.3,722.9z M753.3,700.4v8.4c0.5,0,1.4,0,2.8,0c1.4,0,2.5,0,3.3,0
				c2.1,0,3.6-0.4,4.5-1.1c0.8-0.7,1.3-1.8,1.3-3.4c0-1.4-0.4-2.4-1.2-3c-0.8-0.7-2.2-1-4-1H753.3z"/>
			<path fill="#403449" d="M796.1,722.9l-2.9-7.9h-9.9l-3,7.9h-3l9.5-24.9h3l9.3,24.9H796.1z M792.2,712.6
				c-2.4-6.9-3.7-10.7-3.9-11.6l-4.1,11.6H792.2z"/>
			<path fill="#403449" d="M828.5,722.9h-3.3l-12.9-19.5l-0.8-1.2c0.1,2.4,0.1,4.5,0.1,6.3v14.4h-2.7v-24.8h3.2l12.9,19.5l0.9,1.2
				c-0.1-3.6-0.1-5.6-0.1-6.2v-14.5h2.7V722.9z"/>
			<path fill="#403449" d="M861.7,710.5c0,4-1.1,7.1-3.4,9.3c-2.3,2.1-5.5,3.2-9.6,3.2h-7.4v-24.8h6.9c2.1,0,3.9,0.2,5.6,0.7
				c1.6,0.5,3.1,1.2,4.3,2.2c1.2,1,2.1,2.3,2.8,3.9C861.4,706.5,861.7,708.4,861.7,710.5z M858.6,710.6c0-3.5-0.9-6-2.7-7.6
				c-1.8-1.6-4.4-2.4-7.8-2.4h-3.9v19.8h4.4c3.3,0,5.8-0.8,7.5-2.5C857.7,716.3,858.6,713.8,858.6,710.6z"/>
		</g>
		<g display="inline">
			<g>
				<polygon fill="#403449" points="750.5,603.8 765.9,603.8 765.9,580.3 667.1,580.3 667.1,679.1 765.9,679.1 765.9,647.1 
					750.5,647.1 				"/>
				<rect x="774.9" y="603.8" fill="#403449" width="27.9" height="43.3"/>
			</g>
			<path fill="#403449" d="M667.1,689.3V724h34.8v-34.8H667.1z M693.1,715.2h-17.1l17.1-17.1V715.2z"/>
		</g>
	</g>
	<g id="XMLID_1_">
		<g>
			<g>
				<polygon fill="#403449" points="158,397.7 159.1,395.8 181.9,356.2 162.4,322.3 118.8,397.7 162.4,473.2 181.9,439.3 
					159.1,399.7 				"/>
			</g>
			<g>
				<polygon fill="#403449" points="135.1,433.6 118.8,461.7 81.9,397.7 118.8,333.8 135.1,361.9 138.4,356.2 118.8,322.3 
					75.2,397.7 118.8,473.2 138.4,439.3 				"/>
			</g>
			<g>
				<polygon fill="#403449" points="204.9,388.5 205,388.5 205,376.4 177.5,424 181,430 				"/>
				<polygon fill="#403449" points="204.9,371.9 205,371.9 205,359.7 172.7,415.6 176.2,421.7 				"/>
				<polygon fill="#403449" points="166.6,405 204.9,338.6 205,338.6 205,324 162.4,397.7 				"/>
				<polygon fill="#403449" points="204.9,355.3 205,355.3 205,343.1 167.9,407.3 171.4,413.4 				"/>
				<polygon fill="#403449" points="206.9,324 206.9,471.5 249.5,397.7 				"/>
				<polygon fill="#403449" points="204.9,405.2 205,405.2 205,393 182.3,432.3 185.8,438.3 				"/>
				<polygon fill="#403449" points="204.9,421.8 205,421.8 205,409.7 187.1,440.6 190.6,446.6 				"/>
				<polygon fill="#403449" points="205,455.7 200.4,463.6 205,471.5 				"/>
				<polygon fill="#403449" points="199.1,461.3 204.9,451.2 205,451.2 205,442.9 196.7,457.2 199.1,461.3 				"/>
				<polygon fill="#403449" points="204.9,438.4 205,438.5 205,426.3 191.9,448.9 195.4,455 				"/>
			</g>
		</g>
		<g>
			<path fill="#403449" d="M121,502.1c0.8,0.9,1.2,2,1.2,3.2c0,1.6-0.6,2.9-1.7,3.9c-1.1,1-2.7,1.5-4.8,1.5h-7.5v-20.1h7.4
				c2,0,3.5,0.4,4.6,1.3c1,0.9,1.6,2.1,1.6,3.7c0,1.3-0.3,2.3-1,3.1c-0.7,0.8-1.6,1.3-2.7,1.5C119.2,500.6,120.2,501.2,121,502.1z
				 M110.8,499.4h4.3c1.3,0,2.2-0.3,2.9-0.9c0.7-0.6,1-1.4,1-2.5c0-1-0.3-1.8-1-2.4c-0.7-0.6-1.7-0.9-3.1-0.9h-4.2V499.4z
				 M118.3,507.6c0.8-0.6,1.1-1.5,1.1-2.7c0-1.1-0.4-2-1.2-2.6c-0.8-0.6-1.8-1-3.2-1h-4.3v7.2h4.4
				C116.5,508.5,117.6,508.2,118.3,507.6z"/>
			<path fill="#403449" d="M141.8,510.7l-5.3-8.2h-2.8v8.2h-2.6v-20.1h6.6c2.3,0,4,0.5,5.1,1.6c1.1,1.1,1.7,2.5,1.7,4.4
				c0,1.6-0.5,3-1.4,4c-0.9,1-2.2,1.6-4,1.9l5.5,8.3H141.8z M133.7,500.6h3.8c2.9,0,4.4-1.3,4.4-3.9c0-2.6-1.5-3.9-4.4-3.9h-3.8
				V500.6z"/>
			<path fill="#403449" d="M165.2,506.1h-8.8l-1.7,4.7h-2.8l7.4-19.7h2.9l7.4,19.7h-2.8L165.2,506.1z M164.5,504l-3.7-10.2
				l-3.7,10.2H164.5z"/>
			<path fill="#403449" d="M193.7,510.7h-2.6l-10.4-15.9v15.9H178v-20.1h2.6l10.4,15.9v-15.9h2.6V510.7z"/>
			<path fill="#403449" d="M219.3,506c-0.8,1.5-2,2.7-3.6,3.5c-1.6,0.8-3.5,1.2-5.7,1.2h-6.4v-20.1h6.4c2.2,0,4.1,0.4,5.7,1.2
				c1.6,0.8,2.8,2,3.6,3.5c0.8,1.5,1.2,3.3,1.2,5.3C220.5,502.7,220.1,504.4,219.3,506z M215.8,506.3c1.4-1.4,2.1-3.3,2.1-5.7
				c0-2.5-0.7-4.4-2.1-5.7c-1.4-1.4-3.4-2-6-2h-3.6v15.5h3.6C212.4,508.4,214.4,507.7,215.8,506.3z"/>
		</g>
	</g>
</g>
</svg>
