<?xml version="1.0" encoding="utf-8"?>
<!-- Generator: Adobe Illustrator 19.0.0, SVG Export Plug-In . SVG Version: 6.00 Build 0)  -->
<svg version="1.1" xmlns="http://www.w3.org/2000/svg" xmlns:xlink="http://www.w3.org/1999/xlink" x="0px" y="0px"
	 viewBox="-1279 487 440 98" enable-background="new -1279 487 440 98" xml:space="preserve">
<g id="Layer_3">
	<rect x="-1167.7" y="511" fill="none" width="440" height="98"/>
	
		<text transform="matrix(1 0 0 1 -1167.6666 562.75)" fill="#FFFFFF" stroke="#FFFFFF" stroke-width="3" stroke-miterlimit="10" font-family="'Noway'" font-size="69px">LOGO</text>
</g>
<g id="Layer_4">
	<g>
		<path fill="#FFFFFF" d="M-1190,529.2c-1.2-1-2.6-1.7-4.1-2c-0.7-0.1-1.5-0.2-2.2-0.1c-0.8,0.1-1.6,0.3-2.4,0.3
			c-3,0.2-6-2.6-6.4-5.5c-0.2-1.5,0.3-3,0.2-4.5c-0.1-1.6-0.5-3.2-1.3-4.5c-1.6-2.8-4.9-4.5-8-4.4c-1.5,0-3.1,0.5-4.5,1.2
			c-1.5,0.8-2.9,1.9-4.3,2.8c-1.4,0.8-2.6,1.7-4.2,1.9c-1.3,0.2-2.6,0.5-3.9,0.7c-2.9,0.4-10.4,0.6-8.9-4.3c0.3-1.1,1-2.1,2.1-2.4
			c1.4-0.3,2.7,0.2,4.1,0.2c1.5,0.1,3.4,0.1,4.6-0.9c0.5-0.4,1.1-0.6,1.6-1c0.7-0.5,1.3-1,1.9-1.7c2-2.3,2.5-5.7,1.7-8.6
			c-0.9-3-3.5-5.4-6.6-6.1c-3-0.7-6.2,0.2-8.4,2.3c-1.9,1.8-2.9,4.6-2.8,7.2c0,0.8,0.2,1.5,0.2,2.2c0,0.7,0,1.4-0.2,2
			c-0.4,1.4-1.3,2.6-2.4,3.5c-1.1,0.9-2.6,1.4-4,1.3c-0.7,0-1.3-0.3-2-0.4c-0.8-0.1-1.6-0.1-2.4,0.1c-3.2,0.7-5.9,2.9-7,6
			c-1,2.9-0.5,6.2,1.4,8.6c1.8,2.4,5,3.8,7.9,3.5c4.3-0.5,4.3-4.6,10.3-6.4c2.8-0.9,5.6-0.8,7.2-0.8c1.9,0,3.5,0.1,5.5,0.7
			c2,0.6,3.5,1.7,5.2,2.8c1.5,0.9,2.9,2.1,4.5,2.9c1.7,0.7,3.4,0.9,5.2,0.8c1.8-0.1,3.8-0.3,5,1.4c1.1,1.6,0.7,3.5-0.8,4.7
			c-1.3,1-3.4,1-5,1c-1.9,0-3.8,0-5.6-0.5c-0.8-0.2-1.6-0.6-2.4-1c-0.5-0.3-1.2-0.4-1.7-0.8c-2.7-1.9-5.6-4.3-9.1-4.5
			c-3.7-0.3-6.7,2-9.5,4c-1.5,1.1-3.1,2-4.9,2.4c-1.8,0.4-3.7,0.5-5.6,0.5c-3.8-0.1-7.3-1.5-10.4-3.7c-1.5-1.1-2.9-2.2-4.7-2.7
			c-1.6-0.5-3.3-0.5-4.9-0.1c-3.3,0.9-6.1,3.9-6.7,7.3c-0.6,3.5,1.1,7.3,4.1,9.2c1.6,1,3.3,1.4,5.2,1.4c1.8,0,3.6-0.4,5.3,0
			c1.8,0.4,3.2,1.8,3.6,3.7c0.3,1.6,0,3.3,0,4.9c0.1,3.6,1.7,7.1,5.1,8.7c3.1,1.5,6.7,1.2,9.5-0.7c0.3-0.2,0.7-0.3,1-0.5
			c0.3-0.2,0.6-0.5,0.9-0.7c0.3-0.2,0.7-0.4,1-0.6c0.4-0.3,0.8-0.5,1.2-0.8c1.7-1,3.5-1.7,5.5-2.2c1.8-0.4,3.7-0.3,5.5-0.2
			c1.7,0.1,3.7,0.3,4.9,1.7c0.5,0.5,0.8,1.1,0.8,1.7c0,0.4,0.1,1,0,1.4c-0.1,0.4-2.1,2.2-2.3,2.4c-0.9,0.5-1.8,0.3-2.7,0.1
			c-0.8-0.1-1.6-0.3-2.5-0.3c-0.4,0-0.7-0.1-1,0c-0.5,0.1-0.9,0.2-1.4,0.3c-1.9,0.6-3.5,1.6-4.7,3.2c-2,2.7-2.4,6.3-1,9.4
			c1.5,3.3,5,5.5,8.6,5.3c3.6-0.1,7-2.5,8.2-6c0.6-1.7,0.5-3.4,0.4-5.2c0-0.8-0.1-1.7,0.1-2.5c0.1-0.9,0.6-1.7,1.2-2.4
			c1.1-1.4,2.7-2.4,4.5-2.6c1.7-0.2,3.4,0.3,5.1,0.1c3.6-0.4,6.7-3,7.7-6.5c1-3.3,0-7.1-2.6-9.4c-2.5-2.2-6.3-3.1-9.4-1.8
			c-1.7,0.7-3.1,1.9-4.5,3c-1.6,1.2-3.2,2.2-5.1,2.8c-1.7,0.5-3.6,0.9-5.4,0.9c-1.8,0-3.5-0.1-5.2-0.5c-1.8-0.5-3.5-1.4-5-2.6
			c-1.3-1-2.7-1.9-4.1-2.8c-1.7-0.9-3.5-1.4-5.4-1.3c-1.6,0.1-3.5,0.5-5-0.4c-1.4-0.9-1.9-2.6-1.3-4.1c0.7-1.8,2.6-2.2,4.4-2.4
			c1.9-0.2,4-0.2,5.9,0.1c0.8,0.1,6.3,2.7,7,3.2c0.9,0.6,1.7,1.2,2.6,1.8c1.5,1,3.1,1.7,4.9,1.9c3.9,0.3,7.1-2.4,10.2-4.4
			c1.5-1,3.2-1.8,4.9-2.2c1.8-0.4,3.7-0.5,5.5-0.3c3.8,0.2,7.2,1.6,10.1,4c1.3,1.1,2.6,2.1,4.3,2.6c1.6,0.5,3.4,0.6,5,0.2
			c3.4-0.8,6.1-3.5,6.7-7C-1186.2,534.7-1187.4,531.3-1190,529.2z M-1238.3,504.8"/>
	</g>
</g>
<g id="Layer_1" display="none">
	<title>logo</title>
	<desc>Created with Sketch.</desc>
	<g id="Page-1" display="inline">
		<g id="logo">
			<g id="Group" transform="translate(90.000000, 15.000000)">
				<path id="Path" fill="#FFFFFF" d="M-1278.9,519l2.6-3.1c3.8,3.5,7.5,5.2,12.7,5.2c5,0,8.2-2.6,8.2-6.3v-0.1c0-3.4-1.8-5.4-9.6-7
					c-8.5-1.8-12.4-4.6-12.4-10.7v-0.1c0-5.8,5.1-10.1,12.1-10.1c5.4,0,9.2,1.5,13,4.5l-2.4,3.2c-3.4-2.8-6.9-4-10.6-4
					c-4.8,0-7.9,2.6-7.9,6v0.1c0,3.5,1.9,5.4,10,7.2c8.2,1.8,12,4.8,12,10.4v0.1c0,6.3-5.3,10.4-12.6,10.4
					C-1269.7,524.9-1274.5,523-1278.9,519z"/>
				<path id="Path_1_" fill="#FFFFFF" d="M-1243.4,509v-21.5h4.2v21.2c0,8,4.2,12.4,11.3,12.4c6.8,0,11.1-4.1,11.1-12.2v-21.4h4.2
					v21.1c0,10.8-6.2,16.3-15.4,16.3C-1237.1,525-1243.4,519.4-1243.4,509z"/>
				<path id="Path_2_" fill="#FFFFFF" d="M-1204.4,506.1V506c0-10.1,7.4-19.1,18.5-19.1c6.2,0,10.1,1.8,13.8,4.9l-2.7,3.2
					c-2.8-2.5-6-4.2-11.2-4.2c-8.2,0-14,6.9-14,15.1v0.1c0,8.8,5.6,15.3,14.6,15.3c4.2,0,8.1-1.6,10.7-3.7v-9.2h-11.3v-3.7h15.2
					v14.7c-3.4,3.1-8.6,5.6-14.8,5.6C-1197.2,525-1204.4,516.6-1204.4,506.1z"/>
				<path id="Shape" fill="#FFFFFF" d="M-1147.8,487.2h3.9l16.9,37.2h-4.5l-4.3-9.8h-20.1l-4.4,9.8h-4.3L-1147.8,487.2z
					 M-1137.5,510.9l-8.4-18.8l-8.4,18.8H-1137.5z"/>
				<path id="Shape_1_" fill="#FFFFFF" d="M-1119.8,487.5h15.9c4.5,0,8.2,1.4,10.5,3.7c1.8,1.8,2.8,4.4,2.8,7.3v0.1
					c0,6.1-4.2,9.7-10,10.8l11.3,15.1h-5.1l-10.7-14.3h-10.5v14.3h-4.2V487.5z M-1104.3,506.3c5.5,0,9.5-2.8,9.5-7.6v-0.1
					c0-4.5-3.5-7.3-9.4-7.3h-11.4v15H-1104.3z"/>
				<polygon id="Path_3_" fill="#FFFFFF" points="-1064.8,487.5 -1038.3,487.5 -1038.3,491.3 -1060.7,491.3 -1060.7,504.5 
					-1040.7,504.5 -1040.7,508.3 -1060.7,508.3 -1060.7,524.4 -1064.9,524.4 -1064.9,487.5 				"/>
				<path id="Shape_2_" fill="#FFFFFF" d="M-1030.2,487.5h15.9c4.5,0,8.2,1.4,10.5,3.7c1.8,1.8,2.8,4.4,2.8,7.3v0.1
					c0,6.1-4.2,9.7-10,10.8l11.3,15.1h-5.1l-10.7-14.3h-10.5v14.3h-4.2V487.5z M-1014.7,506.3c5.5,0,9.5-2.8,9.5-7.6v-0.1
					c0-4.5-3.5-7.3-9.4-7.3h-11.4v15H-1014.7z"/>
				<polygon id="Path_4_" fill="#FFFFFF" points="-992.1,487.5 -965.4,487.5 -965.4,491.3 -987.9,491.3 -987.9,503.9 -967.8,503.9 
					-967.8,507.7 -987.9,507.7 -987.9,520.6 -965.1,520.6 -965.1,524.4 -992,524.4 -992,487.5 				"/>
				<polygon id="Path_5_" fill="#FFFFFF" points="-956.8,487.5 -930.1,487.5 -930.1,491.3 -952.6,491.3 -952.6,503.9 -932.5,503.9 
					-932.5,507.7 -952.6,507.7 -952.6,520.6 -929.8,520.6 -929.8,524.4 -956.7,524.4 -956.7,487.5 				"/>
			</g>
			<g id="Group_1_" transform="translate(91.000000, 64.000000)">
				<path id="Path_6_" fill="#FFFFFF" d="M-1278.6,500.8l2.9-3.4c1.8,1.3,3.8,1.9,5.7,1.9c1,0,1.4-0.3,1.4-0.7l0,0
					c0-0.5-0.5-0.7-2.2-1.1c-3.6-0.7-6.8-1.8-6.8-5.2l0,0c0-3.1,2.4-5.4,6.8-5.4c3.1,0,5.4,0.7,7.3,2.2l-2.6,3.6
					c-1.5-1.1-3.3-1.6-4.8-1.6c-0.8,0-1.2,0.3-1.2,0.7l0,0c0,0.4,0.4,0.7,2.1,1c4.1,0.8,6.9,2,6.9,5.2l0,0c0,3.4-2.8,5.5-7.1,5.5
					C-1273.6,503.5-1276.5,502.6-1278.6,500.8z"/>
				<path id="Shape_3_" fill="#FFFFFF" d="M-1232.5,495.2L-1232.5,495.2c0-4.7,3.9-8.5,8.8-8.5c4.9,0,8.8,3.7,8.8,8.4l0,0
					c0,4.7-3.9,8.4-8.8,8.4C-1228.6,503.5-1232.5,499.9-1232.5,495.2z M-1220.3,495.2L-1220.3,495.2c0-2-1.3-3.7-3.4-3.7
					c-2.1,0-3.3,1.7-3.3,3.6l0,0c0,1.9,1.3,3.6,3.4,3.6C-1221.6,498.8-1220.3,497.1-1220.3,495.2z"/>
				<polygon id="Path_7_" fill="#FFFFFF" points="-1183.5,487.1 -1170,487.1 -1170,491.7 -1178.1,491.7 -1178.1,493.8 
					-1170.6,493.8 -1170.6,498 -1178.1,498 -1178.1,503.3 -1183.5,503.3 				"/>
				<polygon id="Path_8_" fill="#FFFFFF" points="-1134.8,491.7 -1139.6,491.7 -1139.6,487.1 -1124.7,487.1 -1124.7,491.7 
					-1129.5,491.7 -1129.5,503.3 -1134.9,503.3 -1134.9,491.7 				"/>
				<polygon id="Path_9_" fill="#FFFFFF" points="-1094.5,487.1 -1088.9,487.1 -1086.6,494.8 -1084,487 -1079.3,487 -1076.7,494.8 
					-1074.4,487.1 -1068.8,487.1 -1074.1,503.4 -1078.8,503.4 -1081.6,495.4 -1084.4,503.4 -1089.1,503.4 				"/>
				<path id="Shape_4_" fill="#FFFFFF" d="M-1034.6,487h5.4l6.8,16.3h-5.9l-0.9-2.2h-5.7l-0.8,2.2h-5.8L-1034.6,487z M-1030.5,497.2
					l-1.5-3.9l-1.5,3.9H-1030.5z"/>
				<path id="Shape_5_" fill="#FFFFFF" d="M-991.9,487.1h7.9c2.9,0,4.7,0.7,5.8,1.8c1,1,1.5,2.2,1.5,3.8l0,0c0,2.4-1.2,4-3.2,4.9
					l3.8,5.5h-6.2l-3-4.6h-1.2v4.6h-5.4V487.1L-991.9,487.1z M-984.2,494.8c1.3,0,2.1-0.6,2.1-1.6l0,0c0-1-0.8-1.5-2.1-1.5h-2.4v3.2
					h2.4V494.8z"/>
				<polygon id="Path_10_" fill="#FFFFFF" points="-945.6,487.1 -931.8,487.1 -931.8,491.5 -940.3,491.5 -940.3,493.1 -932.4,493.1 
					-932.4,497 -940.3,497 -940.3,498.8 -931.7,498.8 -931.7,503.2 -945.6,503.2 				"/>
			</g>
			<path id="Shape_6_" fill="#FFFFFF" stroke="#FFFFFF" d="M-1208.5,512.8l-21.7-21.8c-6.1-6-15.9-6-22,0l-21.7,21.8
				c-2.9,2.9-4.6,6.8-4.6,11c0,4.1,1.6,8,4.5,11c-2.9,2.9-4.5,6.8-4.5,11s1.6,8.1,4.6,11l21.7,21.7c3,3,7,4.5,11,4.5s8-1.5,11-4.5
				l21.7-21.7c6-6,6.1-15.9,0-21.9C-1202.4,528.7-1202.4,518.8-1208.5,512.8z M-1211.3,531.9l-18.3-18.4v-16.2l18.3,18.3
				C-1206.8,520.1-1206.8,527.4-1211.3,531.9z M-1233.1,553.7c-4.5,4.5-11.8,4.5-16.3,0l-18.9-19l18.9-18.9c2.2-2.2,5.2-3.4,8.1-3.4
				c2.9,0,5.9,1.1,8.1,3.4l18.9,18.9L-1233.1,553.7z M-1241.2,490.5c2.7,0,5.4,1,7.6,2.8v17c-4.7-2.6-10.4-2.6-15.1,0v-17
				C-1246.6,491.5-1243.9,490.5-1241.2,490.5z M-1271.1,515.6l18.3-18.3v16.2l-18.3,18.4c-2.2-2.2-3.3-5-3.3-8.1
				C-1274.5,520.7-1273.3,517.8-1271.1,515.6z M-1274.5,545.7c0-3.1,1.2-5.9,3.3-8.1l18.3,18.3v16.2l-18.2-18.3
				C-1273.3,551.6-1274.5,548.8-1274.5,545.7z M-1248.8,576.1v-17c2.3,1.3,4.9,2,7.6,2c2.6,0,5.2-0.7,7.6-2v17
				C-1238,579.9-1244.4,579.9-1248.8,576.1z M-1211.3,553.8l-18.3,18.3v-16.2l18.3-18.3C-1206.8,542.1-1206.8,549.3-1211.3,553.8z"
				/>
		</g>
	</g>
</g>
</svg>
