<?xml version="1.0" encoding="utf-8"?>
<!-- Generator: Adobe Illustrator 19.0.0, SVG Export Plug-In . SVG Version: 6.00 Build 0)  -->
<svg version="1.1" id="Ñëîé_1" xmlns="http://www.w3.org/2000/svg" xmlns:xlink="http://www.w3.org/1999/xlink" x="0px" y="0px"
	 viewBox="0 0 600 450" style="enable-background:new 0 0 600 450;" xml:space="preserve">
<style type="text/css">
	.st0{fill:url(#XMLID_6_);}
	.st1{opacity:0.7;}
	.st2{filter:url(#Adobe_OpacityMaskFilter);}
	.st3{filter:url(#Adobe_OpacityMaskFilter_1_);}
	.st4{mask:url(#XMLID_7_);fill:url(#XMLID_41_);}
	.st5{opacity:0.66;fill:url(#XMLID_42_);}
	.st6{filter:url(#Adobe_OpacityMaskFilter_2_);}
	.st7{filter:url(#Adobe_OpacityMaskFilter_3_);}
	.st8{mask:url(#XMLID_43_);fill:url(#XMLID_44_);}
	.st9{opacity:0.66;fill:url(#XMLID_45_);}
	.st10{filter:url(#Adobe_OpacityMaskFilter_4_);}
	.st11{filter:url(#Adobe_OpacityMaskFilter_5_);}
	.st12{mask:url(#XMLID_46_);fill:url(#XMLID_47_);}
	.st13{opacity:0.66;fill:url(#XMLID_48_);}
	.st14{filter:url(#Adobe_OpacityMaskFilter_6_);}
	.st15{filter:url(#Adobe_OpacityMaskFilter_7_);}
	.st16{mask:url(#XMLID_49_);fill:url(#XMLID_50_);}
	.st17{opacity:0.66;fill:url(#XMLID_51_);}
	.st18{filter:url(#Adobe_OpacityMaskFilter_8_);}
	.st19{filter:url(#Adobe_OpacityMaskFilter_9_);}
	.st20{mask:url(#XMLID_52_);fill:url(#XMLID_53_);}
	.st21{opacity:0.66;fill:url(#XMLID_54_);}
	.st22{filter:url(#Adobe_OpacityMaskFilter_10_);}
	.st23{filter:url(#Adobe_OpacityMaskFilter_11_);}
	.st24{mask:url(#XMLID_55_);fill:url(#XMLID_56_);}
	.st25{opacity:0.66;fill:url(#XMLID_57_);}
	.st26{filter:url(#Adobe_OpacityMaskFilter_12_);}
	.st27{filter:url(#Adobe_OpacityMaskFilter_13_);}
	.st28{mask:url(#XMLID_58_);fill:url(#XMLID_59_);}
	.st29{opacity:0.66;fill:url(#XMLID_60_);}
	.st30{filter:url(#Adobe_OpacityMaskFilter_14_);}
	.st31{filter:url(#Adobe_OpacityMaskFilter_15_);}
	.st32{mask:url(#XMLID_61_);fill:url(#XMLID_62_);}
	.st33{opacity:0.66;fill:url(#XMLID_63_);}
	.st34{display:none;}
	.st35{display:inline;opacity:0.7;}
	.st36{fill:#FFFFFF;}
	.st37{display:inline;}
	.st38{fill:#42E8E0;}
	.st39{fill:#DA5AE5;}
	.st40{fill:url(#SVGID_1_);}
	.st41{fill:url(#SVGID_2_);}
	.st42{fill:url(#SVGID_4_);}
	.st43{fill:url(#SVGID_5_);}
	.st44{fill:url(#SVGID_6_);}
	.st45{fill:url(#SVGID_7_);}
	.st46{fill:url(#SVGID_8_);}
	.st47{fill:#24126A;}
	.st48{opacity:0.51;}
	.st49{fill:#453C9E;}
	.st50{fill:url(#SVGID_9_);}
	.st51{fill:url(#SVGID_10_);}
	.st52{fill:#2842A2;}
	.st53{fill:#ADB1F2;}
	.st54{fill:#9198DB;}
	.st55{fill:url(#SVGID_11_);}
	.st56{opacity:0.11;}
	.st57{clip-path:url(#SVGID_12_);}
	.st58{fill:url(#SVGID_13_);}
	.st59{fill:url(#SVGID_14_);}
	.st60{fill:url(#SVGID_15_);}
	.st61{fill:url(#SVGID_16_);}
	.st62{fill:url(#SVGID_17_);}
	.st63{fill:url(#SVGID_18_);}
	.st64{fill:url(#SVGID_19_);}
	.st65{opacity:0.5;fill:#42E8E0;}
</style>
<radialGradient id="XMLID_6_" cx="-73.1587" cy="69.8017" r="896.1033" fx="-66.9961" fy="74.3147" gradientUnits="userSpaceOnUse">
	<stop  offset="0" style="stop-color:#42E8E0"/>
	<stop  offset="3.457534e-002" style="stop-color:#3FD3D5"/>
	<stop  offset="0.1192" style="stop-color:#39A6BC"/>
	<stop  offset="0.2097" style="stop-color:#337EA6"/>
	<stop  offset="0.3048" style="stop-color:#2E5D93"/>
	<stop  offset="0.406" style="stop-color:#2B4184"/>
	<stop  offset="0.5153" style="stop-color:#282C79"/>
	<stop  offset="0.6368" style="stop-color:#261D70"/>
	<stop  offset="0.7801" style="stop-color:#24156B"/>
	<stop  offset="1" style="stop-color:#24126A"/>
</radialGradient>
<path id="XMLID_40_" class="st0" d="M97,366c10.2,15.1,5.2,20,17,34c19.8,23.6,54.2,34,84,32c34.4-2.3,37.4-19.4,97-37
	c19.5-5.8,34.7-10.3,55-11c36.5-1.3,51.4,11.1,88,21c18.1,4.9,105.4,28.6,162-5.3V0H0v323.3C36.2,325.7,76.5,335.6,97,366z"/>
<g id="XMLID_5_" class="st1">
	<defs>
		<filter id="Adobe_OpacityMaskFilter" filterUnits="userSpaceOnUse" x="-35.8" y="184.9" width="294.2" height="171.7">
			<feFlood  style="flood-color:white;flood-opacity:1" result="back"/>
			<feBlend  in="SourceGraphic" in2="back" mode="normal"/>
		</filter>
	</defs>
	<mask maskUnits="userSpaceOnUse" x="-35.8" y="184.9" width="294.2" height="171.7" id="XMLID_7_">
		<g id="XMLID_36_" class="st2">
			<defs>
				<filter id="Adobe_OpacityMaskFilter_1_" filterUnits="userSpaceOnUse" x="-35.8" y="184.9" width="294.2" height="171.7">
					<feFlood  style="flood-color:white;flood-opacity:1" result="back"/>
					<feBlend  in="SourceGraphic" in2="back" mode="normal"/>
				</filter>
			</defs>
			<mask maskUnits="userSpaceOnUse" x="-35.8" y="184.9" width="294.2" height="171.7" id="XMLID_7_">
				<g id="XMLID_37_" class="st3">
				</g>
			</mask>
			
				<linearGradient id="XMLID_41_" gradientUnits="userSpaceOnUse" x1="-496.0862" y1="1766.8013" x2="-496.0862" y2="1479.954" gradientTransform="matrix(0.8686 -0.4955 0.997 0.5825 -1076.3177 -920.6578)">
				<stop  offset="0" style="stop-color:#000000"/>
				<stop  offset="5.762670e-002" style="stop-color:#292929"/>
				<stop  offset="0.1455" style="stop-color:#626262"/>
				<stop  offset="0.2308" style="stop-color:#919191"/>
				<stop  offset="0.3114" style="stop-color:#B6B6B6"/>
				<stop  offset="0.3863" style="stop-color:#D0D0D0"/>
				<stop  offset="0.4531" style="stop-color:#E0E0E0"/>
				<stop  offset="0.5054" style="stop-color:#E6E6E6"/>
				<stop  offset="0.5514" style="stop-color:#DEDEDE"/>
				<stop  offset="0.6211" style="stop-color:#C9C9C9"/>
				<stop  offset="0.7058" style="stop-color:#A7A7A7"/>
				<stop  offset="0.8025" style="stop-color:#777777"/>
				<stop  offset="0.9076" style="stop-color:#3B3B3B"/>
				<stop  offset="1" style="stop-color:#000000"/>
			</linearGradient>
			<path id="XMLID_38_" class="st4" d="M-31,186.8l-1.4,0.8c-5.1,2.9-4.5,8,1.4,11.4l264.9,154.8c5.8,3.4,14.7,3.8,19.7,0.9l1.4-0.8
				c5.1-2.9,4.5-8-1.4-11.4L-11.3,187.8C-17.1,184.4-25.9,183.9-31,186.8z"/>
		</g>
	</mask>
	
		<linearGradient id="XMLID_42_" gradientUnits="userSpaceOnUse" x1="-496.0862" y1="1766.8013" x2="-496.0862" y2="1479.954" gradientTransform="matrix(0.8686 -0.4955 0.997 0.5825 -1076.3177 -920.6578)">
		<stop  offset="0" style="stop-color:#5761D7"/>
		<stop  offset="9.657808e-003" style="stop-color:#5665D7"/>
		<stop  offset="0.1262" style="stop-color:#4F94DA"/>
		<stop  offset="0.2375" style="stop-color:#49B8DD"/>
		<stop  offset="0.3408" style="stop-color:#45D3DF"/>
		<stop  offset="0.4332" style="stop-color:#43E2E0"/>
		<stop  offset="0.5054" style="stop-color:#42E8E0"/>
		<stop  offset="0.5719" style="stop-color:#43E0DF"/>
		<stop  offset="0.6727" style="stop-color:#46CCDE"/>
		<stop  offset="0.7952" style="stop-color:#4CA9DC"/>
		<stop  offset="0.9335" style="stop-color:#537AD9"/>
		<stop  offset="1" style="stop-color:#5761D7"/>
	</linearGradient>
	<path id="XMLID_39_" class="st5" d="M-31,186.8l-1.4,0.8c-5.1,2.9-4.5,8,1.4,11.4l264.9,154.8c5.8,3.4,14.7,3.8,19.7,0.9l1.4-0.8
		c5.1-2.9,4.5-8-1.4-11.4L-11.3,187.8C-17.1,184.4-25.9,183.9-31,186.8z"/>
	<defs>
		<filter id="Adobe_OpacityMaskFilter_2_" filterUnits="userSpaceOnUse" x="69.7" y="203.8" width="157.3" height="91.7">
			<feFlood  style="flood-color:white;flood-opacity:1" result="back"/>
			<feBlend  in="SourceGraphic" in2="back" mode="normal"/>
		</filter>
	</defs>
	<mask maskUnits="userSpaceOnUse" x="69.7" y="203.8" width="157.3" height="91.7" id="XMLID_43_">
		<g id="XMLID_32_" class="st6">
			<defs>
				<filter id="Adobe_OpacityMaskFilter_3_" filterUnits="userSpaceOnUse" x="69.7" y="203.8" width="157.3" height="91.7">
					<feFlood  style="flood-color:white;flood-opacity:1" result="back"/>
					<feBlend  in="SourceGraphic" in2="back" mode="normal"/>
				</filter>
			</defs>
			<mask maskUnits="userSpaceOnUse" x="69.7" y="203.8" width="157.3" height="91.7" id="XMLID_43_">
				<g id="XMLID_33_" class="st7">
				</g>
			</mask>
			
				<linearGradient id="XMLID_44_" gradientUnits="userSpaceOnUse" x1="-453.4682" y1="1698.1206" x2="-453.4682" y2="1548.635" gradientTransform="matrix(0.8686 -0.4955 0.997 0.5825 -1076.3177 -920.6578)">
				<stop  offset="0" style="stop-color:#000000"/>
				<stop  offset="5.762670e-002" style="stop-color:#292929"/>
				<stop  offset="0.1455" style="stop-color:#626262"/>
				<stop  offset="0.2308" style="stop-color:#919191"/>
				<stop  offset="0.3114" style="stop-color:#B6B6B6"/>
				<stop  offset="0.3863" style="stop-color:#D0D0D0"/>
				<stop  offset="0.4531" style="stop-color:#E0E0E0"/>
				<stop  offset="0.5054" style="stop-color:#E6E6E6"/>
				<stop  offset="0.5514" style="stop-color:#DEDEDE"/>
				<stop  offset="0.6211" style="stop-color:#C9C9C9"/>
				<stop  offset="0.7058" style="stop-color:#A7A7A7"/>
				<stop  offset="0.8025" style="stop-color:#777777"/>
				<stop  offset="0.9076" style="stop-color:#3B3B3B"/>
				<stop  offset="1" style="stop-color:#000000"/>
			</linearGradient>
			<path id="XMLID_34_" class="st8" d="M74.5,205.7l-1.4,0.8c-5.1,2.9-4.5,8,1.4,11.4l127.9,74.8c5.8,3.4,14.7,3.8,19.7,0.9l1.4-0.8
				c5.1-2.9,4.5-8-1.4-11.4L94.2,206.6C88.4,203.2,79.5,202.8,74.5,205.7z"/>
		</g>
	</mask>
	
		<linearGradient id="XMLID_45_" gradientUnits="userSpaceOnUse" x1="-453.4682" y1="1698.1206" x2="-453.4682" y2="1548.635" gradientTransform="matrix(0.8686 -0.4955 0.997 0.5825 -1076.3177 -920.6578)">
		<stop  offset="0" style="stop-color:#5761D7"/>
		<stop  offset="9.657808e-003" style="stop-color:#5665D7"/>
		<stop  offset="0.1262" style="stop-color:#4F94DA"/>
		<stop  offset="0.2375" style="stop-color:#49B8DD"/>
		<stop  offset="0.3408" style="stop-color:#45D3DF"/>
		<stop  offset="0.4332" style="stop-color:#43E2E0"/>
		<stop  offset="0.5054" style="stop-color:#42E8E0"/>
		<stop  offset="0.5719" style="stop-color:#43E0DF"/>
		<stop  offset="0.6727" style="stop-color:#46CCDE"/>
		<stop  offset="0.7952" style="stop-color:#4CA9DC"/>
		<stop  offset="0.9335" style="stop-color:#537AD9"/>
		<stop  offset="1" style="stop-color:#5761D7"/>
	</linearGradient>
	<path id="XMLID_35_" class="st9" d="M74.5,205.7l-1.4,0.8c-5.1,2.9-4.5,8,1.4,11.4l127.9,74.8c5.8,3.4,14.7,3.8,19.7,0.9l1.4-0.8
		c5.1-2.9,4.5-8-1.4-11.4L94.2,206.6C88.4,203.2,79.5,202.8,74.5,205.7z"/>
	<defs>
		<filter id="Adobe_OpacityMaskFilter_4_" filterUnits="userSpaceOnUse" x="137.3" y="200.6" width="270.3" height="157.6">
			<feFlood  style="flood-color:white;flood-opacity:1" result="back"/>
			<feBlend  in="SourceGraphic" in2="back" mode="normal"/>
		</filter>
	</defs>
	<mask maskUnits="userSpaceOnUse" x="137.3" y="200.6" width="270.3" height="157.6" id="XMLID_46_">
		<g id="XMLID_28_" class="st10">
			<defs>
				<filter id="Adobe_OpacityMaskFilter_5_" filterUnits="userSpaceOnUse" x="137.3" y="200.6" width="270.3" height="157.6">
					<feFlood  style="flood-color:white;flood-opacity:1" result="back"/>
					<feBlend  in="SourceGraphic" in2="back" mode="normal"/>
				</filter>
			</defs>
			<mask maskUnits="userSpaceOnUse" x="137.3" y="200.6" width="270.3" height="157.6" id="XMLID_46_">
				<g id="XMLID_29_" class="st11">
				</g>
			</mask>
			
				<linearGradient id="XMLID_47_" gradientUnits="userSpaceOnUse" x1="-410.7825" y1="1842.108" x2="-410.7825" y2="1579.3671" gradientTransform="matrix(0.8686 -0.4955 0.997 0.5825 -1076.3177 -920.6578)">
				<stop  offset="0" style="stop-color:#000000"/>
				<stop  offset="5.762670e-002" style="stop-color:#292929"/>
				<stop  offset="0.1455" style="stop-color:#626262"/>
				<stop  offset="0.2308" style="stop-color:#919191"/>
				<stop  offset="0.3114" style="stop-color:#B6B6B6"/>
				<stop  offset="0.3863" style="stop-color:#D0D0D0"/>
				<stop  offset="0.4531" style="stop-color:#E0E0E0"/>
				<stop  offset="0.5054" style="stop-color:#E6E6E6"/>
				<stop  offset="0.5514" style="stop-color:#DEDEDE"/>
				<stop  offset="0.6211" style="stop-color:#C9C9C9"/>
				<stop  offset="0.7058" style="stop-color:#A7A7A7"/>
				<stop  offset="0.8025" style="stop-color:#777777"/>
				<stop  offset="0.9076" style="stop-color:#3B3B3B"/>
				<stop  offset="1" style="stop-color:#000000"/>
			</linearGradient>
			<path id="XMLID_30_" class="st12" d="M142.1,202.5l-1.4,0.8c-5.1,2.9-4.5,8,1.4,11.4l241,140.7c5.8,3.4,14.7,3.8,19.7,0.9
				l1.4-0.8c5.1-2.9,4.5-8-1.4-11.4l-241-140.7C156,200,147.2,199.6,142.1,202.5z"/>
		</g>
	</mask>
	
		<linearGradient id="XMLID_48_" gradientUnits="userSpaceOnUse" x1="-410.7825" y1="1842.108" x2="-410.7825" y2="1579.3671" gradientTransform="matrix(0.8686 -0.4955 0.997 0.5825 -1076.3177 -920.6578)">
		<stop  offset="0" style="stop-color:#5761D7"/>
		<stop  offset="9.657808e-003" style="stop-color:#5665D7"/>
		<stop  offset="0.1262" style="stop-color:#4F94DA"/>
		<stop  offset="0.2375" style="stop-color:#49B8DD"/>
		<stop  offset="0.3408" style="stop-color:#45D3DF"/>
		<stop  offset="0.4332" style="stop-color:#43E2E0"/>
		<stop  offset="0.5054" style="stop-color:#42E8E0"/>
		<stop  offset="0.5719" style="stop-color:#43E0DF"/>
		<stop  offset="0.6727" style="stop-color:#46CCDE"/>
		<stop  offset="0.7952" style="stop-color:#4CA9DC"/>
		<stop  offset="0.9335" style="stop-color:#537AD9"/>
		<stop  offset="1" style="stop-color:#5761D7"/>
	</linearGradient>
	<path id="XMLID_31_" class="st13" d="M142.1,202.5l-1.4,0.8c-5.1,2.9-4.5,8,1.4,11.4l241,140.7c5.8,3.4,14.7,3.8,19.7,0.9l1.4-0.8
		c5.1-2.9,4.5-8-1.4-11.4l-241-140.7C156,200,147.2,199.6,142.1,202.5z"/>
	<defs>
		<filter id="Adobe_OpacityMaskFilter_6_" filterUnits="userSpaceOnUse" x="-2" y="76.4" width="478.9" height="280.2">
			<feFlood  style="flood-color:white;flood-opacity:1" result="back"/>
			<feBlend  in="SourceGraphic" in2="back" mode="normal"/>
		</filter>
	</defs>
	<mask maskUnits="userSpaceOnUse" x="-2" y="76.4" width="478.9" height="280.2" id="XMLID_49_">
		<g id="XMLID_24_" class="st14">
			<defs>
				<filter id="Adobe_OpacityMaskFilter_7_" filterUnits="userSpaceOnUse" x="-2" y="76.4" width="478.9" height="280.2">
					<feFlood  style="flood-color:white;flood-opacity:1" result="back"/>
					<feBlend  in="SourceGraphic" in2="back" mode="normal"/>
				</filter>
			</defs>
			<mask maskUnits="userSpaceOnUse" x="-2" y="76.4" width="478.9" height="280.2" id="XMLID_49_">
				<g id="XMLID_25_" class="st15">
				</g>
			</mask>
			
				<linearGradient id="XMLID_50_" gradientUnits="userSpaceOnUse" x1="-368.5196" y1="1875.0682" x2="-368.5196" y2="1402.5093" gradientTransform="matrix(0.8686 -0.4955 0.997 0.5825 -1076.3177 -920.6578)">
				<stop  offset="0" style="stop-color:#000000"/>
				<stop  offset="5.762670e-002" style="stop-color:#292929"/>
				<stop  offset="0.1455" style="stop-color:#626262"/>
				<stop  offset="0.2308" style="stop-color:#919191"/>
				<stop  offset="0.3114" style="stop-color:#B6B6B6"/>
				<stop  offset="0.3863" style="stop-color:#D0D0D0"/>
				<stop  offset="0.4531" style="stop-color:#E0E0E0"/>
				<stop  offset="0.5054" style="stop-color:#E6E6E6"/>
				<stop  offset="0.5514" style="stop-color:#DEDEDE"/>
				<stop  offset="0.6211" style="stop-color:#C9C9C9"/>
				<stop  offset="0.7058" style="stop-color:#A7A7A7"/>
				<stop  offset="0.8025" style="stop-color:#777777"/>
				<stop  offset="0.9076" style="stop-color:#3B3B3B"/>
				<stop  offset="1" style="stop-color:#000000"/>
			</linearGradient>
			<path id="XMLID_26_" class="st16" d="M2.8,78.4l-1.4,0.8c-5.1,2.9-4.5,8,1.4,11.4l449.5,263.2c5.8,3.4,14.7,3.8,19.7,0.9l1.4-0.8
				c5.1-2.9,4.5-8-1.4-11.4L22.6,79.3C16.7,75.9,7.9,75.5,2.8,78.4z"/>
		</g>
	</mask>
	
		<linearGradient id="XMLID_51_" gradientUnits="userSpaceOnUse" x1="-368.5196" y1="1875.0682" x2="-368.5196" y2="1402.5093" gradientTransform="matrix(0.8686 -0.4955 0.997 0.5825 -1076.3177 -920.6578)">
		<stop  offset="0" style="stop-color:#5761D7"/>
		<stop  offset="9.657808e-003" style="stop-color:#5665D7"/>
		<stop  offset="0.1262" style="stop-color:#4F94DA"/>
		<stop  offset="0.2375" style="stop-color:#49B8DD"/>
		<stop  offset="0.3408" style="stop-color:#45D3DF"/>
		<stop  offset="0.4332" style="stop-color:#43E2E0"/>
		<stop  offset="0.5054" style="stop-color:#42E8E0"/>
		<stop  offset="0.5719" style="stop-color:#43E0DF"/>
		<stop  offset="0.6727" style="stop-color:#46CCDE"/>
		<stop  offset="0.7952" style="stop-color:#4CA9DC"/>
		<stop  offset="0.9335" style="stop-color:#537AD9"/>
		<stop  offset="1" style="stop-color:#5761D7"/>
	</linearGradient>
	<path id="XMLID_27_" class="st17" d="M2.8,78.4l-1.4,0.8c-5.1,2.9-4.5,8,1.4,11.4l449.5,263.2c5.8,3.4,14.7,3.8,19.7,0.9l1.4-0.8
		c5.1-2.9,4.5-8-1.4-11.4L22.6,79.3C16.7,75.9,7.9,75.5,2.8,78.4z"/>
	<defs>
		<filter id="Adobe_OpacityMaskFilter_8_" filterUnits="userSpaceOnUse" x="-28.7" y="-63.2" width="534.6" height="312.5">
			<feFlood  style="flood-color:white;flood-opacity:1" result="back"/>
			<feBlend  in="SourceGraphic" in2="back" mode="normal"/>
		</filter>
	</defs>
	<mask maskUnits="userSpaceOnUse" x="-28.7" y="-63.2" width="534.6" height="312.5" id="XMLID_52_">
		<g id="XMLID_20_" class="st18">
			<defs>
				<filter id="Adobe_OpacityMaskFilter_9_" filterUnits="userSpaceOnUse" x="-28.7" y="-63.2" width="534.6" height="312.5">
					<feFlood  style="flood-color:white;flood-opacity:1" result="back"/>
					<feBlend  in="SourceGraphic" in2="back" mode="normal"/>
				</filter>
			</defs>
			<mask maskUnits="userSpaceOnUse" x="-28.7" y="-63.2" width="534.6" height="312.5" id="XMLID_52_">
				<g id="XMLID_21_" class="st19">
				</g>
			</mask>
			
				<linearGradient id="XMLID_53_" gradientUnits="userSpaceOnUse" x1="-244.6845" y1="1796.1554" x2="-244.6845" y2="1267.9377" gradientTransform="matrix(0.8686 -0.4955 0.997 0.5825 -1076.3177 -920.6578)">
				<stop  offset="0" style="stop-color:#000000"/>
				<stop  offset="5.762670e-002" style="stop-color:#292929"/>
				<stop  offset="0.1455" style="stop-color:#626262"/>
				<stop  offset="0.2308" style="stop-color:#919191"/>
				<stop  offset="0.3114" style="stop-color:#B6B6B6"/>
				<stop  offset="0.3863" style="stop-color:#D0D0D0"/>
				<stop  offset="0.4531" style="stop-color:#E0E0E0"/>
				<stop  offset="0.5054" style="stop-color:#E6E6E6"/>
				<stop  offset="0.5514" style="stop-color:#DEDEDE"/>
				<stop  offset="0.6211" style="stop-color:#C9C9C9"/>
				<stop  offset="0.7058" style="stop-color:#A7A7A7"/>
				<stop  offset="0.8025" style="stop-color:#777777"/>
				<stop  offset="0.9076" style="stop-color:#3B3B3B"/>
				<stop  offset="1" style="stop-color:#000000"/>
			</linearGradient>
			<path id="XMLID_22_" class="st20" d="M-23.9-61.3l-1.4,0.8c-5.1,2.9-4.5,8,1.4,11.4l505.2,295.5c5.8,3.4,14.7,3.8,19.7,0.9
				l1.4-0.8c5.1-2.9,4.5-8-1.4-11.4L-4.2-60.4C-10-63.8-18.8-64.2-23.9-61.3z"/>
		</g>
	</mask>
	
		<linearGradient id="XMLID_54_" gradientUnits="userSpaceOnUse" x1="-244.6845" y1="1796.1554" x2="-244.6845" y2="1267.9377" gradientTransform="matrix(0.8686 -0.4955 0.997 0.5825 -1076.3177 -920.6578)">
		<stop  offset="0" style="stop-color:#5761D7"/>
		<stop  offset="9.657808e-003" style="stop-color:#5665D7"/>
		<stop  offset="0.1262" style="stop-color:#4F94DA"/>
		<stop  offset="0.2375" style="stop-color:#49B8DD"/>
		<stop  offset="0.3408" style="stop-color:#45D3DF"/>
		<stop  offset="0.4332" style="stop-color:#43E2E0"/>
		<stop  offset="0.5054" style="stop-color:#42E8E0"/>
		<stop  offset="0.5719" style="stop-color:#43E0DF"/>
		<stop  offset="0.6727" style="stop-color:#46CCDE"/>
		<stop  offset="0.7952" style="stop-color:#4CA9DC"/>
		<stop  offset="0.9335" style="stop-color:#537AD9"/>
		<stop  offset="1" style="stop-color:#5761D7"/>
	</linearGradient>
	<path id="XMLID_23_" class="st21" d="M-23.9-61.3l-1.4,0.8c-5.1,2.9-4.5,8,1.4,11.4l505.2,295.5c5.8,3.4,14.7,3.8,19.7,0.9l1.4-0.8
		c5.1-2.9,4.5-8-1.4-11.4L-4.2-60.4C-10-63.8-18.8-64.2-23.9-61.3z"/>
	<defs>
		<filter id="Adobe_OpacityMaskFilter_10_" filterUnits="userSpaceOnUse" x="84.5" y="-37.7" width="371.4" height="216.8">
			<feFlood  style="flood-color:white;flood-opacity:1" result="back"/>
			<feBlend  in="SourceGraphic" in2="back" mode="normal"/>
		</filter>
	</defs>
	<mask maskUnits="userSpaceOnUse" x="84.5" y="-37.7" width="371.4" height="216.8" id="XMLID_55_">
		<g id="XMLID_16_" class="st22">
			<defs>
				<filter id="Adobe_OpacityMaskFilter_11_" filterUnits="userSpaceOnUse" x="84.5" y="-37.7" width="371.4" height="216.8">
					<feFlood  style="flood-color:white;flood-opacity:1" result="back"/>
					<feBlend  in="SourceGraphic" in2="back" mode="normal"/>
				</filter>
			</defs>
			<mask maskUnits="userSpaceOnUse" x="84.5" y="-37.7" width="371.4" height="216.8" id="XMLID_55_">
				<g id="XMLID_17_" class="st23">
				</g>
			</mask>
			
				<linearGradient id="XMLID_56_" gradientUnits="userSpaceOnUse" x1="-204.0415" y1="1710.511" x2="-204.0415" y2="1346.2186" gradientTransform="matrix(0.8686 -0.4955 0.997 0.5825 -1076.3177 -920.6578)">
				<stop  offset="0" style="stop-color:#000000"/>
				<stop  offset="5.762670e-002" style="stop-color:#292929"/>
				<stop  offset="0.1455" style="stop-color:#626262"/>
				<stop  offset="0.2308" style="stop-color:#919191"/>
				<stop  offset="0.3114" style="stop-color:#B6B6B6"/>
				<stop  offset="0.3863" style="stop-color:#D0D0D0"/>
				<stop  offset="0.4531" style="stop-color:#E0E0E0"/>
				<stop  offset="0.5054" style="stop-color:#E6E6E6"/>
				<stop  offset="0.5514" style="stop-color:#DEDEDE"/>
				<stop  offset="0.6211" style="stop-color:#C9C9C9"/>
				<stop  offset="0.7058" style="stop-color:#A7A7A7"/>
				<stop  offset="0.8025" style="stop-color:#777777"/>
				<stop  offset="0.9076" style="stop-color:#3B3B3B"/>
				<stop  offset="1" style="stop-color:#000000"/>
			</linearGradient>
			<path id="XMLID_18_" class="st24" d="M89.3-35.8L88-35c-5.1,2.9-4.5,8,1.4,11.4l342.1,199.9c5.8,3.4,14.7,3.8,19.7,0.9l1.4-0.8
				c5.1-2.9,4.5-8-1.4-11.4L109.1-34.9C103.2-38.3,94.4-38.7,89.3-35.8z"/>
		</g>
	</mask>
	
		<linearGradient id="XMLID_57_" gradientUnits="userSpaceOnUse" x1="-204.0415" y1="1710.511" x2="-204.0415" y2="1346.2186" gradientTransform="matrix(0.8686 -0.4955 0.997 0.5825 -1076.3177 -920.6578)">
		<stop  offset="0" style="stop-color:#5761D7"/>
		<stop  offset="9.657808e-003" style="stop-color:#5665D7"/>
		<stop  offset="0.1262" style="stop-color:#4F94DA"/>
		<stop  offset="0.2375" style="stop-color:#49B8DD"/>
		<stop  offset="0.3408" style="stop-color:#45D3DF"/>
		<stop  offset="0.4332" style="stop-color:#43E2E0"/>
		<stop  offset="0.5054" style="stop-color:#42E8E0"/>
		<stop  offset="0.5719" style="stop-color:#43E0DF"/>
		<stop  offset="0.6727" style="stop-color:#46CCDE"/>
		<stop  offset="0.7952" style="stop-color:#4CA9DC"/>
		<stop  offset="0.9335" style="stop-color:#537AD9"/>
		<stop  offset="1" style="stop-color:#5761D7"/>
	</linearGradient>
	<path id="XMLID_19_" class="st25" d="M89.3-35.8L88-35c-5.1,2.9-4.5,8,1.4,11.4l342.1,199.9c5.8,3.4,14.7,3.8,19.7,0.9l1.4-0.8
		c5.1-2.9,4.5-8-1.4-11.4L109.1-34.9C103.2-38.3,94.4-38.7,89.3-35.8z"/>
	<defs>
		<filter id="Adobe_OpacityMaskFilter_12_" filterUnits="userSpaceOnUse" x="89.5" y="87.2" width="316.9" height="185">
			<feFlood  style="flood-color:white;flood-opacity:1" result="back"/>
			<feBlend  in="SourceGraphic" in2="back" mode="normal"/>
		</filter>
	</defs>
	<mask maskUnits="userSpaceOnUse" x="89.5" y="87.2" width="316.9" height="185" id="XMLID_58_">
		<g id="XMLID_12_" class="st26">
			<defs>
				<filter id="Adobe_OpacityMaskFilter_13_" filterUnits="userSpaceOnUse" x="89.5" y="87.2" width="316.9" height="185">
					<feFlood  style="flood-color:white;flood-opacity:1" result="back"/>
					<feBlend  in="SourceGraphic" in2="back" mode="normal"/>
				</filter>
			</defs>
			<mask maskUnits="userSpaceOnUse" x="89.5" y="87.2" width="316.9" height="185" id="XMLID_58_">
				<g id="XMLID_13_" class="st27">
				</g>
			</mask>
			
				<linearGradient id="XMLID_59_" gradientUnits="userSpaceOnUse" x1="-325.6137" y1="1766.802" x2="-325.6137" y2="1457.1853" gradientTransform="matrix(0.8686 -0.4955 0.997 0.5825 -1076.3177 -920.6578)">
				<stop  offset="0" style="stop-color:#000000"/>
				<stop  offset="5.762670e-002" style="stop-color:#292929"/>
				<stop  offset="0.1455" style="stop-color:#626262"/>
				<stop  offset="0.2308" style="stop-color:#919191"/>
				<stop  offset="0.3114" style="stop-color:#B6B6B6"/>
				<stop  offset="0.3863" style="stop-color:#D0D0D0"/>
				<stop  offset="0.4531" style="stop-color:#E0E0E0"/>
				<stop  offset="0.5054" style="stop-color:#E6E6E6"/>
				<stop  offset="0.5514" style="stop-color:#DEDEDE"/>
				<stop  offset="0.6211" style="stop-color:#C9C9C9"/>
				<stop  offset="0.7058" style="stop-color:#A7A7A7"/>
				<stop  offset="0.8025" style="stop-color:#777777"/>
				<stop  offset="0.9076" style="stop-color:#3B3B3B"/>
				<stop  offset="1" style="stop-color:#000000"/>
			</linearGradient>
			<path id="XMLID_14_" class="st28" d="M94.4,89.1L93,89.9c-5.1,2.9-4.5,8,1.4,11.4l287.6,168c5.8,3.4,14.7,3.8,19.7,0.9l1.4-0.8
				c5.1-2.9,4.5-8-1.4-11.4L114.1,90C108.3,86.6,99.4,86.2,94.4,89.1z"/>
		</g>
	</mask>
	
		<linearGradient id="XMLID_60_" gradientUnits="userSpaceOnUse" x1="-325.6137" y1="1766.802" x2="-325.6137" y2="1457.1853" gradientTransform="matrix(0.8686 -0.4955 0.997 0.5825 -1076.3177 -920.6578)">
		<stop  offset="0" style="stop-color:#5761D7"/>
		<stop  offset="9.657808e-003" style="stop-color:#5665D7"/>
		<stop  offset="0.1262" style="stop-color:#4F94DA"/>
		<stop  offset="0.2375" style="stop-color:#49B8DD"/>
		<stop  offset="0.3408" style="stop-color:#45D3DF"/>
		<stop  offset="0.4332" style="stop-color:#43E2E0"/>
		<stop  offset="0.5054" style="stop-color:#42E8E0"/>
		<stop  offset="0.5719" style="stop-color:#43E0DF"/>
		<stop  offset="0.6727" style="stop-color:#46CCDE"/>
		<stop  offset="0.7952" style="stop-color:#4CA9DC"/>
		<stop  offset="0.9335" style="stop-color:#537AD9"/>
		<stop  offset="1" style="stop-color:#5761D7"/>
	</linearGradient>
	<path id="XMLID_15_" class="st29" d="M94.4,89.1L93,89.9c-5.1,2.9-4.5,8,1.4,11.4l287.6,168c5.8,3.4,14.7,3.8,19.7,0.9l1.4-0.8
		c5.1-2.9,4.5-8-1.4-11.4L114.1,90C108.3,86.6,99.4,86.2,94.4,89.1z"/>
	<defs>
		<filter id="Adobe_OpacityMaskFilter_14_" filterUnits="userSpaceOnUse" x="149.3" y="79.3" width="137.1" height="79.9">
			<feFlood  style="flood-color:white;flood-opacity:1" result="back"/>
			<feBlend  in="SourceGraphic" in2="back" mode="normal"/>
		</filter>
	</defs>
	<mask maskUnits="userSpaceOnUse" x="149.3" y="79.3" width="137.1" height="79.9" id="XMLID_61_">
		<g id="XMLID_8_" class="st30">
			<defs>
				<filter id="Adobe_OpacityMaskFilter_15_" filterUnits="userSpaceOnUse" x="149.3" y="79.3" width="137.1" height="79.9">
					<feFlood  style="flood-color:white;flood-opacity:1" result="back"/>
					<feBlend  in="SourceGraphic" in2="back" mode="normal"/>
				</filter>
			</defs>
			<mask maskUnits="userSpaceOnUse" x="149.3" y="79.3" width="137.1" height="79.9" id="XMLID_61_">
				<g id="XMLID_9_" class="st31">
				</g>
			</mask>
			
				<linearGradient id="XMLID_62_" gradientUnits="userSpaceOnUse" x1="-282.9933" y1="1609.2048" x2="-282.9933" y2="1479.9547" gradientTransform="matrix(0.8686 -0.4955 0.997 0.5825 -1076.3177 -920.6578)">
				<stop  offset="0" style="stop-color:#000000"/>
				<stop  offset="5.762670e-002" style="stop-color:#292929"/>
				<stop  offset="0.1455" style="stop-color:#626262"/>
				<stop  offset="0.2308" style="stop-color:#919191"/>
				<stop  offset="0.3114" style="stop-color:#B6B6B6"/>
				<stop  offset="0.3863" style="stop-color:#D0D0D0"/>
				<stop  offset="0.4531" style="stop-color:#E0E0E0"/>
				<stop  offset="0.5054" style="stop-color:#E6E6E6"/>
				<stop  offset="0.5514" style="stop-color:#DEDEDE"/>
				<stop  offset="0.6211" style="stop-color:#C9C9C9"/>
				<stop  offset="0.7058" style="stop-color:#A7A7A7"/>
				<stop  offset="0.8025" style="stop-color:#777777"/>
				<stop  offset="0.9076" style="stop-color:#3B3B3B"/>
				<stop  offset="1" style="stop-color:#000000"/>
			</linearGradient>
			<path id="XMLID_10_" class="st32" d="M154.1,81.2l-1.4,0.8c-5.1,2.9-4.5,8,1.4,11.4l107.8,63c5.8,3.4,14.7,3.8,19.7,0.9l1.4-0.8
				c5.1-2.9,4.5-8-1.4-11.4l-107.8-63C168,78.8,159.1,78.4,154.1,81.2z"/>
		</g>
	</mask>
	
		<linearGradient id="XMLID_63_" gradientUnits="userSpaceOnUse" x1="-282.9933" y1="1609.2048" x2="-282.9933" y2="1479.9547" gradientTransform="matrix(0.8686 -0.4955 0.997 0.5825 -1076.3177 -920.6578)">
		<stop  offset="0" style="stop-color:#5761D7"/>
		<stop  offset="9.657808e-003" style="stop-color:#5665D7"/>
		<stop  offset="0.1262" style="stop-color:#4F94DA"/>
		<stop  offset="0.2375" style="stop-color:#49B8DD"/>
		<stop  offset="0.3408" style="stop-color:#45D3DF"/>
		<stop  offset="0.4332" style="stop-color:#43E2E0"/>
		<stop  offset="0.5054" style="stop-color:#42E8E0"/>
		<stop  offset="0.5719" style="stop-color:#43E0DF"/>
		<stop  offset="0.6727" style="stop-color:#46CCDE"/>
		<stop  offset="0.7952" style="stop-color:#4CA9DC"/>
		<stop  offset="0.9335" style="stop-color:#537AD9"/>
		<stop  offset="1" style="stop-color:#5761D7"/>
	</linearGradient>
	<path id="XMLID_11_" class="st33" d="M154.1,81.2l-1.4,0.8c-5.1,2.9-4.5,8,1.4,11.4l107.8,63c5.8,3.4,14.7,3.8,19.7,0.9l1.4-0.8
		c5.1-2.9,4.5-8-1.4-11.4l-107.8-63C168,78.8,159.1,78.4,154.1,81.2z"/>
</g>
<g id="XMLID_4_" class="st34">
	<g class="st35">
		<path class="st36" d="M66.7,160.5l-2.2-12.3l0.7,0l1.8,10.7l2-10.4h0.8l2,10.4l1.7-10.7h0.7l-2,12.4h-0.7l-2.1-10.8l-2.1,10.8
			H66.7z"/>
		<path class="st36" d="M75.9,160.5v-12.4h4.3v0.7h-3.4v5h2.8v0.6h-2.8v5.4h3.5v0.7H75.9z"/>
		<path class="st36" d="M84.8,160.5v-12.4h3c0.4,0,0.8,0.1,1.1,0.2c0.3,0.1,0.6,0.2,0.8,0.4c0.2,0.2,0.4,0.4,0.5,0.7
			c0.1,0.3,0.2,0.5,0.3,0.8c0,0.3,0.1,0.6,0.1,1c0,0.3,0,0.6,0,0.8c0,0.2-0.1,0.5-0.2,0.7c-0.1,0.2-0.2,0.5-0.3,0.6
			c-0.1,0.2-0.3,0.3-0.5,0.5c-0.2,0.1-0.5,0.2-0.8,0.3l2,6.4h-0.8l-1.9-6.2h-2.3v6.2H84.8z M85.6,153.6h2.1c0.4,0,0.7-0.1,1-0.2
			c0.3-0.1,0.5-0.3,0.6-0.5c0.1-0.2,0.2-0.5,0.3-0.8c0.1-0.3,0.1-0.6,0.1-1c0-0.8-0.1-1.4-0.4-1.8c-0.3-0.4-0.8-0.6-1.5-0.6h-2.1
			V153.6z"/>
		<path class="st36" d="M92.6,160.5v-12.4h4.3v0.7h-3.4v5h2.8v0.6h-2.8v5.4h3.5v0.7H92.6z"/>
		<path class="st36" d="M98.5,160.5v-12.4h2.9c0.5,0,1,0.1,1.4,0.2c0.4,0.2,0.7,0.4,0.9,0.7s0.4,0.6,0.5,1c0.1,0.4,0.1,0.8,0.1,1.3
			c0,0.3,0,0.7-0.1,1c-0.1,0.3-0.2,0.6-0.3,0.9c-0.1,0.3-0.3,0.5-0.5,0.7c-0.2,0.2-0.5,0.4-0.8,0.5c-0.3,0.1-0.7,0.2-1.1,0.2h-2.1
			v5.9H98.5z M99.4,153.9h1.9c0.8,0,1.3-0.2,1.7-0.6c0.4-0.4,0.5-1.1,0.5-2c0-1-0.2-1.6-0.5-2c-0.3-0.4-0.9-0.5-1.7-0.5h-1.9V153.9z
			"/>
		<path class="st36" d="M106,160.5v-12.4h3c0.4,0,0.8,0.1,1.1,0.2c0.3,0.1,0.6,0.2,0.8,0.4c0.2,0.2,0.4,0.4,0.5,0.7
			c0.1,0.3,0.2,0.5,0.3,0.8c0,0.3,0.1,0.6,0.1,1c0,0.3,0,0.6,0,0.8c0,0.2-0.1,0.5-0.2,0.7c-0.1,0.2-0.2,0.5-0.3,0.6
			c-0.1,0.2-0.3,0.3-0.5,0.5c-0.2,0.1-0.5,0.2-0.8,0.3l2,6.4H111l-1.9-6.2h-2.3v6.2H106z M106.8,153.6h2.1c0.4,0,0.7-0.1,1-0.2
			c0.3-0.1,0.5-0.3,0.6-0.5c0.1-0.2,0.2-0.5,0.3-0.8c0.1-0.3,0.1-0.6,0.1-1c0-0.8-0.1-1.4-0.4-1.8c-0.3-0.4-0.8-0.6-1.5-0.6h-2.1
			V153.6z"/>
		<path class="st36" d="M113.7,160.5v-12.4h4.3v0.7h-3.4v5h2.8v0.6h-2.8v5.4h3.5v0.7H113.7z"/>
		<path class="st36" d="M122.2,160.6c-1.8,0-2.8-1.1-3-3.2l0.7-0.2c0,0.4,0.1,0.7,0.2,0.9c0.1,0.3,0.2,0.5,0.3,0.7
			c0.1,0.2,0.3,0.4,0.4,0.6c0.2,0.2,0.4,0.3,0.6,0.4c0.2,0.1,0.5,0.1,0.8,0.1c1.3,0,2-0.7,2-2c0-0.5-0.1-1-0.4-1.4
			c-0.3-0.4-0.7-0.9-1.2-1.5l-2.3-2.3c-0.7-0.7-1.1-1.5-1.1-2.3c0-0.8,0.2-1.4,0.7-1.9c0.5-0.4,1.1-0.7,2-0.7h0c0.9,0,1.6,0.2,2,0.7
			c0.5,0.5,0.8,1.3,0.8,2.4l-0.7,0.2c-0.1-0.9-0.3-1.5-0.6-2c-0.3-0.4-0.8-0.6-1.5-0.6h-0.1c-0.6,0-1.1,0.2-1.4,0.5
			c-0.4,0.3-0.5,0.7-0.5,1.3c0,0.3,0.1,0.6,0.2,0.9c0.1,0.3,0.4,0.6,0.7,0.9l2.2,2.2c0.6,0.6,1,1.1,1.3,1.7c0.3,0.5,0.5,1.1,0.5,1.7
			c0,0.9-0.2,1.6-0.7,2S123,160.6,122.2,160.6z"/>
		<path class="st36" d="M126.6,160.5v-12.4h4.3v0.7h-3.4v5h2.8v0.6h-2.8v5.4h3.5v0.7H126.6z"/>
		<path class="st36" d="M132.6,160.5v-12.4h0.7l4.2,10.4v-10.4h0.7v12.4h-0.7l-4.2-10.5v10.5H132.6z"/>
		<path class="st36" d="M141.8,160.5v-11.7h-2.6v-0.7h6v0.7h-2.6v11.7H141.8z"/>
		<path class="st36" d="M150.5,160.5v-11.7h-2.6v-0.7h6v0.7h-2.6v11.7H150.5z"/>
		<path class="st36" d="M159,160.4c-0.4,0.1-0.8,0.2-1.2,0.2c-0.5,0-0.9-0.1-1.2-0.2c-0.4-0.1-0.6-0.3-0.9-0.5
			c-0.2-0.2-0.4-0.5-0.6-0.8c-0.1-0.3-0.2-0.7-0.3-1c-0.1-0.4-0.1-0.8-0.1-1.2v-5.4c0-0.4,0-0.8,0.1-1.2c0.1-0.4,0.2-0.7,0.3-1
			c0.1-0.3,0.3-0.6,0.6-0.8c0.2-0.2,0.5-0.4,0.9-0.5c0.4-0.1,0.8-0.2,1.2-0.2c0.6,0,1.1,0.1,1.5,0.3c0.4,0.2,0.7,0.4,0.9,0.8
			c0.2,0.3,0.4,0.7,0.5,1.1c0.1,0.4,0.2,0.9,0.2,1.4v5.4c0,0.4,0,0.8-0.1,1.2c-0.1,0.4-0.2,0.7-0.3,1c-0.1,0.3-0.3,0.6-0.6,0.8
			C159.6,160.2,159.3,160.3,159,160.4z M156.6,159.7c0.3,0.1,0.7,0.2,1.1,0.2c0.4,0,0.8-0.1,1.1-0.2c0.3-0.1,0.5-0.3,0.7-0.6
			c0.2-0.3,0.3-0.5,0.3-0.9c0.1-0.3,0.1-0.7,0.1-1.2v-5.7c0-0.4,0-0.8-0.1-1.2c-0.1-0.3-0.2-0.6-0.3-0.9c-0.2-0.3-0.4-0.4-0.7-0.6
			c-0.3-0.1-0.7-0.2-1.1-0.2c-0.4,0-0.8,0.1-1.1,0.2c-0.3,0.1-0.5,0.3-0.7,0.6c-0.2,0.3-0.3,0.5-0.3,0.9c-0.1,0.3-0.1,0.7-0.1,1.2
			v5.7c0,0.4,0,0.8,0.1,1.2c0.1,0.3,0.2,0.6,0.3,0.9C156.1,159.4,156.3,159.6,156.6,159.7z"/>
		<path class="st36" d="M167.7,160.5v-3.9l-2.9-8.4h0.9l2.4,7.4l2.3-7.4h0.8l-2.8,8.4v3.9H167.7z"/>
		<path class="st36" d="M176.8,160.4c-0.4,0.1-0.8,0.2-1.2,0.2c-0.5,0-0.9-0.1-1.2-0.2c-0.4-0.1-0.6-0.3-0.9-0.5
			c-0.2-0.2-0.4-0.5-0.6-0.8s-0.2-0.7-0.3-1c-0.1-0.4-0.1-0.8-0.1-1.2v-5.4c0-0.4,0-0.8,0.1-1.2c0.1-0.4,0.2-0.7,0.3-1
			c0.1-0.3,0.3-0.6,0.6-0.8c0.2-0.2,0.5-0.4,0.9-0.5c0.4-0.1,0.8-0.2,1.2-0.2c0.6,0,1.1,0.1,1.5,0.3c0.4,0.2,0.7,0.4,0.9,0.8
			c0.2,0.3,0.4,0.7,0.5,1.1c0.1,0.4,0.2,0.9,0.2,1.4v5.4c0,0.4,0,0.8-0.1,1.2c-0.1,0.4-0.2,0.7-0.3,1c-0.1,0.3-0.3,0.6-0.6,0.8
			C177.4,160.2,177.1,160.3,176.8,160.4z M174.4,159.7c0.3,0.1,0.7,0.2,1.1,0.2c0.4,0,0.8-0.1,1.1-0.2c0.3-0.1,0.5-0.3,0.7-0.6
			c0.2-0.3,0.3-0.5,0.3-0.9c0.1-0.3,0.1-0.7,0.1-1.2v-5.7c0-0.4,0-0.8-0.1-1.2c-0.1-0.3-0.2-0.6-0.3-0.9c-0.2-0.3-0.4-0.4-0.7-0.6
			c-0.3-0.1-0.7-0.2-1.1-0.2c-0.4,0-0.8,0.1-1.1,0.2c-0.3,0.1-0.5,0.3-0.7,0.6c-0.2,0.3-0.3,0.5-0.3,0.9c-0.1,0.3-0.1,0.7-0.1,1.2
			v5.7c0,0.4,0,0.8,0.1,1.2c0.1,0.3,0.2,0.6,0.3,0.9C173.9,159.4,174.2,159.6,174.4,159.7z"/>
		<path class="st36" d="M183.5,160.6c-0.6,0-1.1-0.1-1.5-0.2c-0.4-0.2-0.7-0.4-0.9-0.7c-0.2-0.3-0.4-0.6-0.5-1
			c-0.1-0.4-0.1-0.8-0.1-1.2v-9.5h0.8v9.5c0,0.4,0,0.7,0.1,0.9c0.1,0.3,0.2,0.5,0.4,0.7c0.2,0.2,0.4,0.4,0.7,0.5
			c0.3,0.1,0.7,0.2,1.1,0.2c1.5,0,2.3-0.8,2.3-2.4v-9.5h0.8v9.5C186.6,159.6,185.6,160.6,183.5,160.6z"/>
	</g>
	<g class="st37">
		<path class="st36" d="M69.3,183c-0.6,0-1.2-0.1-1.7-0.2c-0.5-0.2-0.9-0.4-1.2-0.7c-0.3-0.3-0.6-0.6-0.8-1.1
			c-0.2-0.4-0.3-0.9-0.4-1.4c-0.1-0.5-0.1-1-0.1-1.6v-5.2c0-0.6,0-1.2,0.1-1.7c0.1-0.5,0.2-1,0.4-1.4c0.2-0.4,0.5-0.8,0.8-1.1
			c0.3-0.3,0.7-0.5,1.2-0.6c0.5-0.2,1.1-0.2,1.7-0.2c0.7,0,1.4,0.1,1.9,0.3c0.5,0.2,0.9,0.5,1.2,0.9c0.3,0.4,0.5,0.8,0.7,1.3
			c0.1,0.5,0.2,1.1,0.2,1.8v1.3h-2.6v-1.3c0-0.7,0-1.2-0.1-1.5c-0.2-0.5-0.5-0.8-1.1-0.8c0,0-0.1,0-0.1,0c-0.2,0-0.4,0-0.6,0.1
			c-0.2,0.1-0.3,0.1-0.4,0.3c-0.1,0.1-0.2,0.2-0.3,0.4c-0.1,0.1-0.1,0.3-0.1,0.5c0,0.2-0.1,0.4-0.1,0.6c0,0.2,0,0.4,0,0.7v6.3
			c0,0.9,0.1,1.5,0.3,1.9c0.2,0.4,0.6,0.6,1.2,0.6c0.2,0,0.4,0,0.5-0.1c0.1,0,0.3-0.1,0.4-0.2c0.1-0.1,0.2-0.2,0.3-0.3
			c0.1-0.1,0.1-0.2,0.2-0.4c0-0.1,0.1-0.3,0.1-0.5c0-0.2,0-0.4,0-0.5c0-0.1,0-0.3,0-0.6v-1.3h2.6v1.2c0,0.6,0,1.1-0.1,1.5
			c-0.1,0.4-0.2,0.9-0.4,1.2c-0.2,0.4-0.4,0.7-0.7,1c-0.3,0.3-0.7,0.5-1.1,0.6C70.4,182.9,69.9,183,69.3,183z"/>
		<path class="st36" d="M75.2,182.8V168h2.7v13h3.5v1.9H75.2z"/>
		<path class="st36" d="M86.7,183c-1.5,0-2.6-0.4-3.3-1.2c-0.7-0.8-1-2-1-3.6v-5.5c0-0.8,0.1-1.5,0.2-2c0.1-0.6,0.4-1.1,0.7-1.5
			c0.3-0.4,0.8-0.7,1.3-1c0.6-0.2,1.2-0.3,2-0.3c1.5,0,2.6,0.4,3.3,1.2c0.7,0.8,1,2,1,3.6v5.5c0,0.8-0.1,1.5-0.2,2
			c-0.2,0.6-0.4,1.1-0.7,1.5c-0.3,0.4-0.8,0.8-1.3,1C88.2,182.9,87.5,183,86.7,183z M86,180.9c0.2,0.1,0.4,0.1,0.7,0.1
			c0.3,0,0.5,0,0.7-0.1c0.2-0.1,0.3-0.2,0.4-0.3c0.1-0.1,0.2-0.3,0.3-0.5c0.1-0.2,0.1-0.4,0.1-0.6c0-0.2,0-0.4,0-0.7V172
			c0-0.4,0-0.7-0.1-0.9c0-0.2-0.1-0.5-0.2-0.7c-0.1-0.2-0.3-0.4-0.5-0.5c-0.2-0.1-0.5-0.2-0.8-0.2c-0.3,0-0.6,0.1-0.8,0.2
			c-0.2,0.1-0.4,0.3-0.5,0.5c-0.1,0.2-0.2,0.4-0.2,0.7c0,0.2-0.1,0.5-0.1,0.9v6.7c0,0.3,0,0.5,0,0.7c0,0.2,0.1,0.4,0.1,0.6
			c0.1,0.2,0.1,0.4,0.3,0.5C85.7,180.7,85.9,180.8,86,180.9z"/>
		<path class="st36" d="M97,183c-0.7,0-1.2-0.1-1.7-0.2c-0.5-0.2-0.9-0.4-1.2-0.7c-0.3-0.3-0.6-0.6-0.8-1.1
			c-0.2-0.4-0.3-0.9-0.4-1.4c-0.1-0.5-0.1-1.1-0.1-1.8V168h2.6v10.1c0,0.3,0,0.6,0,0.9c0,0.2,0.1,0.5,0.1,0.8
			c0.1,0.3,0.1,0.5,0.3,0.6c0.1,0.2,0.3,0.3,0.5,0.4c0.2,0.1,0.4,0.2,0.7,0.2c0.3,0,0.5-0.1,0.7-0.2c0.2-0.1,0.3-0.2,0.4-0.4
			c0.1-0.2,0.2-0.4,0.3-0.6c0.1-0.3,0.1-0.5,0.1-0.8c0-0.2,0-0.5,0-0.9V168h2.6v9.8c0,0.7,0,1.3-0.1,1.8c-0.1,0.5-0.2,1-0.4,1.4
			c-0.2,0.4-0.4,0.8-0.7,1.1c-0.3,0.3-0.7,0.5-1.2,0.7C98.3,182.9,97.7,183,97,183z"/>
		<path class="st36" d="M103.3,182.8V168h3.5c0.9,0,1.6,0.1,2.2,0.3c0.6,0.2,1.1,0.5,1.4,0.8c0.4,0.4,0.6,0.9,0.8,1.4
			c0.2,0.6,0.2,1.3,0.2,2.1v5.3c0,0.8-0.1,1.6-0.2,2.2c-0.2,0.6-0.4,1.1-0.8,1.5c-0.4,0.4-0.8,0.7-1.4,0.9c-0.6,0.2-1.3,0.3-2.2,0.3
			H103.3z M106,180.9h0.8c0.3,0,0.5,0,0.7-0.1c0.2,0,0.4-0.1,0.5-0.2s0.3-0.2,0.3-0.3c0.1-0.1,0.2-0.3,0.2-0.4
			c0-0.1,0.1-0.3,0.1-0.6c0-0.3,0-0.5,0-0.6c0-0.2,0-0.4,0-0.8v-5.4c0-0.4,0-0.6,0-0.8c0-0.2,0-0.4-0.1-0.6c0-0.2-0.1-0.4-0.2-0.5
			c-0.1-0.1-0.2-0.2-0.3-0.3c-0.1-0.1-0.3-0.2-0.5-0.2c-0.2,0-0.5-0.1-0.8-0.1H106V180.9z"/>
		<path class="st36" d="M121.9,183c-0.6,0-1.2-0.1-1.7-0.2c-0.5-0.2-0.9-0.4-1.2-0.7c-0.3-0.3-0.6-0.6-0.8-1.1
			c-0.2-0.4-0.3-0.9-0.4-1.4c-0.1-0.5-0.1-1-0.1-1.6v-5.2c0-0.6,0-1.2,0.1-1.7c0.1-0.5,0.2-1,0.4-1.4c0.2-0.4,0.5-0.8,0.8-1.1
			c0.3-0.3,0.7-0.5,1.2-0.6c0.5-0.2,1.1-0.2,1.7-0.2c0.7,0,1.4,0.1,1.9,0.3c0.5,0.2,0.9,0.5,1.2,0.9c0.3,0.4,0.5,0.8,0.7,1.3
			c0.1,0.5,0.2,1.1,0.2,1.8v1.3h-2.6v-1.3c0-0.7,0-1.2-0.1-1.5c-0.2-0.5-0.5-0.8-1.1-0.8c0,0-0.1,0-0.1,0c-0.2,0-0.4,0-0.6,0.1
			c-0.2,0.1-0.3,0.1-0.4,0.3c-0.1,0.1-0.2,0.2-0.3,0.4c-0.1,0.1-0.1,0.3-0.1,0.5c0,0.2-0.1,0.4-0.1,0.6c0,0.2,0,0.4,0,0.7v6.3
			c0,0.9,0.1,1.5,0.3,1.9c0.2,0.4,0.6,0.6,1.2,0.6c0.2,0,0.4,0,0.5-0.1c0.1,0,0.3-0.1,0.4-0.2c0.1-0.1,0.2-0.2,0.3-0.3
			c0.1-0.1,0.1-0.2,0.2-0.4c0-0.1,0.1-0.3,0.1-0.5c0-0.2,0-0.4,0-0.5c0-0.1,0-0.3,0-0.6v-1.3h2.6v1.2c0,0.6,0,1.1-0.1,1.5
			c-0.1,0.4-0.2,0.9-0.4,1.2c-0.2,0.4-0.4,0.7-0.7,1c-0.3,0.3-0.7,0.5-1.1,0.6C123,182.9,122.5,183,121.9,183z"/>
		<path class="st36" d="M131.8,183c-1.5,0-2.6-0.4-3.3-1.2c-0.7-0.8-1-2-1-3.6v-5.5c0-0.8,0.1-1.5,0.2-2c0.1-0.6,0.4-1.1,0.7-1.5
			c0.3-0.4,0.8-0.7,1.3-1c0.6-0.2,1.2-0.3,2-0.3c1.5,0,2.6,0.4,3.3,1.2c0.7,0.8,1,2,1,3.6v5.5c0,0.8-0.1,1.5-0.2,2
			c-0.2,0.6-0.4,1.1-0.7,1.5c-0.3,0.4-0.8,0.8-1.3,1C133.2,182.9,132.6,183,131.8,183z M131.1,180.9c0.2,0.1,0.4,0.1,0.7,0.1
			c0.3,0,0.5,0,0.7-0.1c0.2-0.1,0.3-0.2,0.4-0.3c0.1-0.1,0.2-0.3,0.3-0.5c0.1-0.2,0.1-0.4,0.1-0.6c0-0.2,0-0.4,0-0.7V172
			c0-0.4,0-0.7-0.1-0.9c0-0.2-0.1-0.5-0.2-0.7c-0.1-0.2-0.3-0.4-0.5-0.5c-0.2-0.1-0.5-0.2-0.8-0.2c-0.3,0-0.6,0.1-0.8,0.2
			c-0.2,0.1-0.4,0.3-0.5,0.5c-0.1,0.2-0.2,0.4-0.2,0.7c0,0.2-0.1,0.5-0.1,0.9v6.7c0,0.3,0,0.5,0,0.7c0,0.2,0.1,0.4,0.1,0.6
			c0.1,0.2,0.1,0.4,0.3,0.5C130.8,180.7,130.9,180.8,131.1,180.9z"/>
		<path class="st36" d="M138,182.8l0.2-14.8h2.8l2.1,10.4l2.2-10.4h2.7l0.3,14.8h-2l-0.2-10.2l-2.1,10.2h-1.6l-2.2-10.2l-0.2,10.2
			H138z"/>
		<path class="st36" d="M150.5,182.8V168h4.3c2.5,0,3.8,1.4,3.8,4.2c0,1.4-0.3,2.4-1,3c-0.7,0.6-1.7,1-2.9,1h-1.4v6.6H150.5z
			 M153.2,174.3h0.9c0.8,0,1.3-0.2,1.5-0.5c0.3-0.3,0.4-0.9,0.4-1.7c0-0.5,0-0.8-0.1-1.1c0-0.3-0.1-0.5-0.3-0.7
			c-0.1-0.2-0.3-0.3-0.6-0.4c-0.3-0.1-0.6-0.1-1.1-0.1h-0.9V174.3z"/>
		<path class="st36" d="M164.1,183c-0.7,0-1.2-0.1-1.7-0.2c-0.5-0.2-0.9-0.4-1.2-0.7c-0.3-0.3-0.6-0.6-0.8-1.1
			c-0.2-0.4-0.3-0.9-0.4-1.4c-0.1-0.5-0.1-1.1-0.1-1.8V168h2.6v10.1c0,0.3,0,0.6,0,0.9c0,0.2,0.1,0.5,0.1,0.8
			c0.1,0.3,0.1,0.5,0.3,0.6c0.1,0.2,0.3,0.3,0.5,0.4c0.2,0.1,0.4,0.2,0.7,0.2c0.3,0,0.5-0.1,0.7-0.2c0.2-0.1,0.3-0.2,0.4-0.4
			c0.1-0.2,0.2-0.4,0.3-0.6c0.1-0.3,0.1-0.5,0.1-0.8c0-0.2,0-0.5,0-0.9V168h2.6v9.8c0,0.7,0,1.3-0.1,1.8c-0.1,0.5-0.2,1-0.4,1.4
			c-0.2,0.4-0.4,0.8-0.7,1.1c-0.3,0.3-0.7,0.5-1.2,0.7C165.3,182.9,164.7,183,164.1,183z"/>
		<path class="st36" d="M171.8,182.8V170h-2.5v-2h7.6v2h-2.4v12.8H171.8z"/>
		<path class="st36" d="M178.2,182.8V168h2.7v14.8H178.2z"/>
		<path class="st36" d="M183.1,182.8V168h1.9l3.6,8.4V168h2.2v14.8h-1.8l-3.7-8.8v8.8H183.1z"/>
		<path class="st36" d="M196.8,183c-1.4,0-2.4-0.4-3-1.3c-0.6-0.9-0.9-2.2-0.9-3.8V173c0-0.9,0.1-1.6,0.2-2.2
			c0.1-0.6,0.4-1.2,0.7-1.6c0.3-0.5,0.8-0.8,1.3-1c0.6-0.2,1.2-0.3,2-0.3c1.5,0,2.5,0.4,3.2,1.1c0.6,0.7,1,1.8,1,3.3v0.7h-2.6v-0.8
			c0-0.3,0-0.6,0-0.8c0-0.2-0.1-0.4-0.1-0.6c-0.1-0.2-0.1-0.4-0.2-0.5c-0.1-0.1-0.3-0.2-0.4-0.3c-0.2-0.1-0.4-0.1-0.7-0.1
			c-0.2,0-0.4,0-0.5,0.1c-0.2,0.1-0.3,0.1-0.4,0.2c-0.1,0.1-0.2,0.2-0.3,0.3c-0.1,0.1-0.1,0.3-0.2,0.4c0,0.1-0.1,0.3-0.1,0.5
			c0,0.2,0,0.4,0,0.5c0,0.2,0,0.4,0,0.6v6c0,0.9,0.1,1.5,0.3,2c0.2,0.4,0.6,0.6,1.3,0.6c0.3,0,0.6-0.1,0.8-0.2
			c0.2-0.1,0.4-0.3,0.5-0.6c0.1-0.2,0.2-0.5,0.3-0.8c0.1-0.3,0.1-0.7,0.1-1.2V177h-1.6v-1.7h4v7.5h-1.8l-0.2-1.5
			C198.8,182.4,198,183,196.8,183z"/>
		<path class="st36" d="M202.8,182.8L207,168h1.7l-4.2,14.8H202.8z"/>
		<path class="st36" d="M215,182.8V168h3.5c0.9,0,1.6,0.1,2.2,0.3c0.6,0.2,1.1,0.5,1.4,0.8c0.4,0.4,0.6,0.9,0.8,1.4
			c0.2,0.6,0.2,1.3,0.2,2.1v5.3c0,0.8-0.1,1.6-0.2,2.2c-0.2,0.6-0.4,1.1-0.8,1.5c-0.4,0.4-0.8,0.7-1.4,0.9c-0.6,0.2-1.3,0.3-2.2,0.3
			H215z M217.7,180.9h0.8c0.3,0,0.5,0,0.7-0.1c0.2,0,0.4-0.1,0.5-0.2c0.1-0.1,0.3-0.2,0.3-0.3c0.1-0.1,0.2-0.3,0.2-0.4
			c0-0.1,0.1-0.3,0.1-0.6c0-0.3,0-0.5,0-0.6c0-0.2,0-0.4,0-0.8v-5.4c0-0.4,0-0.6,0-0.8c0-0.2,0-0.4-0.1-0.6c0-0.2-0.1-0.4-0.2-0.5
			c-0.1-0.1-0.2-0.2-0.3-0.3c-0.1-0.1-0.3-0.2-0.5-0.2c-0.2,0-0.5-0.1-0.8-0.1h-0.7V180.9z"/>
		<path class="st36" d="M224.1,182.8l3-14.8h2.8l3,14.8h-2.5l-0.6-3.4h-2.6l-0.6,3.4H224.1z M227.6,177.6h2l-1-6.1L227.6,177.6z"/>
		<path class="st36" d="M235.4,182.8V170h-2.5v-2h7.6v2h-2.4v12.8H235.4z"/>
		<path class="st36" d="M240.8,182.8l3-14.8h2.8l3,14.8h-2.5l-0.6-3.4H244l-0.6,3.4H240.8z M244.3,177.6h2l-1-6.1L244.3,177.6z"/>
		<path class="st36" d="M259.3,183c-2.6,0-4-1.5-4.1-4.5l2.4-0.5c0.1,2,0.6,2.9,1.7,2.9c0.4,0,0.7-0.1,0.9-0.4s0.3-0.6,0.3-1
			c0-0.4-0.1-0.8-0.2-1.1s-0.3-0.6-0.5-0.8c-0.2-0.2-0.5-0.5-0.8-0.8l-1.9-1.7c-0.6-0.5-1-1-1.3-1.6c-0.3-0.5-0.4-1.2-0.4-2
			c0-1.2,0.3-2,1-2.7c0.7-0.6,1.6-1,2.8-1c0.5,0,1,0.1,1.4,0.2c0.4,0.1,0.8,0.3,1,0.6c0.3,0.2,0.5,0.5,0.7,0.9
			c0.2,0.4,0.3,0.7,0.4,1.1c0.1,0.4,0.2,0.8,0.2,1.3l-2.3,0.5c0-0.3,0-0.6-0.1-0.8c0-0.2-0.1-0.4-0.1-0.7c-0.1-0.2-0.2-0.4-0.3-0.5
			c-0.1-0.1-0.2-0.3-0.4-0.3c-0.2-0.1-0.4-0.1-0.6-0.1c-0.4,0-0.7,0.2-0.9,0.4c-0.2,0.2-0.3,0.6-0.3,1c0,0.5,0.1,0.9,0.3,1.2
			c0.2,0.3,0.5,0.6,0.9,1l1.9,1.7c0.3,0.3,0.6,0.6,0.8,0.8c0.2,0.3,0.5,0.6,0.7,0.9c0.2,0.4,0.4,0.7,0.5,1.2
			c0.1,0.4,0.2,0.9,0.2,1.3c0,1.1-0.3,2-1,2.6C261.3,182.7,260.4,183,259.3,183z"/>
		<path class="st36" d="M266.1,182.8V170h-2.5v-2h7.6v2h-2.4v12.8H266.1z"/>
		<path class="st36" d="M276.4,183c-1.5,0-2.6-0.4-3.3-1.2c-0.7-0.8-1-2-1-3.6v-5.5c0-0.8,0.1-1.5,0.2-2c0.1-0.6,0.4-1.1,0.7-1.5
			c0.3-0.4,0.8-0.7,1.3-1c0.6-0.2,1.2-0.3,2-0.3c1.5,0,2.6,0.4,3.3,1.2c0.7,0.8,1,2,1,3.6v5.5c0,0.8-0.1,1.5-0.2,2
			c-0.2,0.6-0.4,1.1-0.7,1.5c-0.3,0.4-0.8,0.8-1.3,1C277.8,182.9,277.1,183,276.4,183z M275.7,180.9c0.2,0.1,0.4,0.1,0.7,0.1
			c0.3,0,0.5,0,0.7-0.1c0.2-0.1,0.3-0.2,0.4-0.3c0.1-0.1,0.2-0.3,0.3-0.5c0.1-0.2,0.1-0.4,0.1-0.6c0-0.2,0-0.4,0-0.7V172
			c0-0.4,0-0.7-0.1-0.9c0-0.2-0.1-0.5-0.2-0.7c-0.1-0.2-0.3-0.4-0.5-0.5c-0.2-0.1-0.5-0.2-0.8-0.2c-0.3,0-0.6,0.1-0.8,0.2
			c-0.2,0.1-0.4,0.3-0.5,0.5c-0.1,0.2-0.2,0.4-0.2,0.7c0,0.2-0.1,0.5-0.1,0.9v6.7c0,0.3,0,0.5,0,0.7c0,0.2,0.1,0.4,0.1,0.6
			c0.1,0.2,0.1,0.4,0.3,0.5C275.4,180.7,275.5,180.8,275.7,180.9z"/>
		<path class="st36" d="M282.6,182.8V168h3.4c0.8,0,1.5,0.1,2,0.2c0.6,0.1,1,0.3,1.5,0.6c0.4,0.3,0.7,0.7,0.9,1.2
			c0.2,0.5,0.3,1.1,0.3,1.9c0,0.9-0.1,1.7-0.4,2.3c-0.3,0.6-0.7,1-1.4,1.3l2.1,7.3h-2.7l-1.8-6.8h-1.2v6.8H282.6z M285.3,174.3h0.7
			c0.8,0,1.4-0.2,1.7-0.5c0.3-0.3,0.5-0.9,0.5-1.7c0-0.8-0.1-1.4-0.4-1.7c-0.3-0.3-0.8-0.5-1.6-0.5h-0.8V174.3z"/>
		<path class="st36" d="M292,182.8l3-14.8h2.8l3,14.8h-2.5l-0.6-3.4h-2.6l-0.6,3.4H292z M295.5,177.6h2l-1-6.1L295.5,177.6z"/>
		<path class="st36" d="M306,183c-1.4,0-2.4-0.4-3-1.3c-0.6-0.9-0.9-2.2-0.9-3.8V173c0-0.9,0.1-1.6,0.2-2.2c0.1-0.6,0.4-1.2,0.7-1.6
			c0.3-0.5,0.8-0.8,1.3-1c0.6-0.2,1.2-0.3,2-0.3c1.5,0,2.5,0.4,3.2,1.1c0.6,0.7,1,1.8,1,3.3v0.7h-2.6v-0.8c0-0.3,0-0.6,0-0.8
			c0-0.2-0.1-0.4-0.1-0.6c-0.1-0.2-0.1-0.4-0.2-0.5s-0.3-0.2-0.4-0.3c-0.2-0.1-0.4-0.1-0.7-0.1c-0.2,0-0.4,0-0.5,0.1
			c-0.2,0.1-0.3,0.1-0.4,0.2c-0.1,0.1-0.2,0.2-0.3,0.3c-0.1,0.1-0.1,0.3-0.2,0.4c0,0.1-0.1,0.3-0.1,0.5c0,0.2,0,0.4,0,0.5
			c0,0.2,0,0.4,0,0.6v6c0,0.9,0.1,1.5,0.3,2c0.2,0.4,0.6,0.6,1.3,0.6c0.3,0,0.6-0.1,0.8-0.2c0.2-0.1,0.4-0.3,0.5-0.6
			c0.1-0.2,0.2-0.5,0.3-0.8c0.1-0.3,0.1-0.7,0.1-1.2V177h-1.6v-1.7h4v7.5h-1.8l-0.2-1.5C308,182.4,307.2,183,306,183z"/>
		<path class="st36" d="M312.5,182.8V168h6.2v1.9h-3.5v4.3h2.8v1.9h-2.8v4.9h3.5v1.9H312.5z"/>
	</g>
	<g class="st37">
		<path class="st38" d="M66.4,206v-7.4h0.7v6.9h2.1v0.5H66.4z"/>
		<path class="st38" d="M71.7,206.1c-0.4,0-0.7-0.1-0.9-0.2c-0.3-0.1-0.4-0.3-0.6-0.5c-0.1-0.2-0.2-0.4-0.3-0.7
			c-0.1-0.3-0.1-0.6-0.1-0.9v-3.1c0-0.3,0-0.7,0.1-0.9c0.1-0.3,0.2-0.5,0.3-0.7c0.1-0.2,0.3-0.4,0.6-0.5c0.3-0.1,0.6-0.2,0.9-0.2
			c0.4,0,0.7,0.1,0.9,0.2c0.3,0.1,0.4,0.3,0.6,0.5c0.1,0.2,0.2,0.4,0.3,0.7c0.1,0.3,0.1,0.6,0.1,0.9v3.1c0,0.3,0,0.5-0.1,0.8
			c0,0.2-0.1,0.4-0.2,0.6c-0.1,0.2-0.2,0.4-0.4,0.5c-0.1,0.1-0.3,0.2-0.5,0.3C72.2,206,72,206.1,71.7,206.1z M71.1,205.4
			c0.2,0.1,0.4,0.1,0.6,0.1c0.2,0,0.4,0,0.6-0.1c0.2-0.1,0.3-0.2,0.4-0.3c0.1-0.1,0.1-0.3,0.2-0.5c0-0.2,0.1-0.4,0.1-0.6v-3.4
			c0-0.3,0-0.5-0.1-0.6c0-0.2-0.1-0.3-0.2-0.5c-0.1-0.1-0.2-0.2-0.4-0.3c-0.2-0.1-0.4-0.1-0.6-0.1c-0.2,0-0.4,0-0.6,0.1
			c-0.2,0.1-0.3,0.2-0.4,0.3c-0.1,0.1-0.1,0.3-0.2,0.5c0,0.2-0.1,0.4-0.1,0.6v3.4c0,0.3,0,0.5,0.1,0.6c0,0.2,0.1,0.3,0.2,0.5
			C70.8,205.2,70.9,205.3,71.1,205.4z"/>
		<path class="st38" d="M74.7,206v-7.4h1.7c0.7,0,1.1,0.2,1.4,0.5c0.3,0.3,0.4,0.8,0.4,1.4c0,1-0.3,1.6-1,1.7l1.1,3.8h-0.7l-1.1-3.6
			h-1.2v3.6H74.7z M75.4,201.8h0.9c0.4,0,0.8-0.1,0.9-0.3c0.2-0.2,0.3-0.6,0.3-1.1c0-0.5-0.1-0.8-0.3-1c-0.2-0.2-0.5-0.3-0.9-0.3h-1
			V201.8z"/>
		<path class="st38" d="M79.4,206v-7.4h2.7v0.5h-2v2.8h1.6v0.5h-1.6v3.1h2v0.5H79.4z"/>
		<path class="st38" d="M83,206l0.2-7.4h0.7l1.5,6.4l1.5-6.4h0.7l0.2,7.4h-0.6l-0.1-5.9l-1.4,5.9h-0.4l-1.4-5.9l-0.1,5.9H83z"/>
		<path class="st38" d="M90.8,206v-7.4h0.7v7.4H90.8z"/>
		<path class="st38" d="M92.8,206v-7.4h1.8c0.3,0,0.6,0,0.8,0.1c0.2,0.1,0.4,0.2,0.5,0.4c0.1,0.2,0.2,0.4,0.3,0.6
			c0.1,0.2,0.1,0.5,0.1,0.8c0,0.3,0,0.5-0.1,0.8c-0.1,0.2-0.2,0.4-0.3,0.6c-0.1,0.2-0.3,0.3-0.5,0.4c-0.2,0.1-0.5,0.2-0.8,0.2h-1.1
			v3.5H92.8z M93.5,202h0.9c0.5,0,0.8-0.1,1-0.3c0.2-0.2,0.3-0.6,0.3-1.1c0-0.6-0.1-1-0.3-1.2c-0.2-0.2-0.5-0.3-1-0.3h-0.9V202z"/>
		<path class="st38" d="M98.8,206.1c-0.6,0-1-0.2-1.3-0.5c-0.3-0.4-0.5-0.8-0.5-1.5l0.6-0.2c0,0.2,0,0.4,0.1,0.5
			c0,0.2,0.1,0.3,0.1,0.4c0.1,0.1,0.1,0.3,0.2,0.4c0.1,0.1,0.2,0.2,0.3,0.2c0.1,0.1,0.3,0.1,0.5,0.1c0.7,0,1-0.4,1-1.1
			c0-0.2,0-0.3-0.1-0.4c0-0.1-0.1-0.3-0.2-0.4c-0.1-0.1-0.2-0.3-0.3-0.4c-0.1-0.1-0.2-0.2-0.4-0.4l-1.3-1.3
			c-0.4-0.4-0.7-0.9-0.7-1.5c0-0.5,0.1-0.9,0.4-1.2c0.3-0.3,0.7-0.4,1.2-0.4c0,0,0,0,0,0c0.5,0,1,0.1,1.2,0.4
			c0.3,0.3,0.5,0.8,0.5,1.4l-0.6,0.2c0-0.5-0.1-0.9-0.3-1.1c-0.2-0.2-0.4-0.4-0.8-0.4c0,0,0,0-0.1,0c-0.3,0-0.6,0.1-0.8,0.3
			c-0.2,0.2-0.3,0.4-0.3,0.7c0,0.2,0,0.4,0.1,0.6c0.1,0.2,0.2,0.3,0.4,0.5l1.3,1.2c0.3,0.3,0.6,0.6,0.8,1c0.2,0.3,0.3,0.7,0.3,1.1
			c0,0.5-0.2,1-0.5,1.2C99.8,205.9,99.3,206.1,98.8,206.1z"/>
		<path class="st38" d="M103.3,206.1c-0.3,0-0.6,0-0.8-0.1c-0.2-0.1-0.4-0.2-0.5-0.3c-0.1-0.1-0.3-0.3-0.3-0.5
			c-0.1-0.2-0.1-0.4-0.2-0.6c0-0.2-0.1-0.4-0.1-0.7v-5.4h0.7v5.4c0,0.2,0,0.4,0,0.5c0,0.1,0.1,0.3,0.1,0.4c0.1,0.1,0.1,0.2,0.2,0.3
			c0.1,0.1,0.2,0.2,0.4,0.2c0.1,0.1,0.3,0.1,0.5,0.1c0.2,0,0.4,0,0.6-0.1c0.2-0.1,0.3-0.2,0.4-0.3c0.1-0.1,0.2-0.3,0.2-0.5
			c0-0.2,0.1-0.4,0.1-0.6v-5.4h0.7v5.4c0,0.3,0,0.5-0.1,0.7c0,0.2-0.1,0.4-0.2,0.6c-0.1,0.2-0.2,0.3-0.3,0.5
			c-0.1,0.1-0.3,0.2-0.5,0.3C103.8,206.1,103.6,206.1,103.3,206.1z"/>
		<path class="st38" d="M106.3,206l0.2-7.4h0.7l1.5,6.4l1.5-6.4h0.7l0.2,7.4h-0.6l-0.1-5.9l-1.4,5.9h-0.4l-1.4-5.9l-0.1,5.9H106.3z"
			/>
		<path class="st38" d="M114.1,206v-7.4h1.6c0.3,0,0.6,0,0.8,0.1c0.2,0.1,0.4,0.2,0.6,0.3c0.2,0.1,0.3,0.3,0.4,0.5
			c0.1,0.2,0.2,0.4,0.2,0.6c0,0.2,0.1,0.5,0.1,0.7v2.9c0,0.4,0,0.7-0.1,0.9c-0.1,0.3-0.2,0.5-0.3,0.7c-0.1,0.2-0.4,0.4-0.6,0.5
			c-0.3,0.1-0.6,0.2-0.9,0.2H114.1z M114.8,205.5h0.9c0.2,0,0.4,0,0.6-0.1c0.2-0.1,0.3-0.1,0.4-0.2c0.1-0.1,0.2-0.2,0.2-0.4
			c0.1-0.2,0.1-0.3,0.1-0.5c0-0.2,0-0.4,0-0.6v-2.8c0-0.2,0-0.4,0-0.6c0-0.2-0.1-0.3-0.1-0.5c-0.1-0.1-0.1-0.3-0.2-0.4
			c-0.1-0.1-0.2-0.2-0.4-0.2c-0.2,0-0.3-0.1-0.6-0.1h-0.9V205.5z"/>
		<path class="st38" d="M120.6,206.1c-0.4,0-0.7-0.1-0.9-0.2c-0.3-0.1-0.4-0.3-0.6-0.5c-0.1-0.2-0.2-0.4-0.3-0.7
			c-0.1-0.3-0.1-0.6-0.1-0.9v-3.1c0-0.3,0-0.7,0.1-0.9c0.1-0.3,0.2-0.5,0.3-0.7c0.1-0.2,0.3-0.4,0.6-0.5c0.3-0.1,0.6-0.2,0.9-0.2
			c0.4,0,0.7,0.1,0.9,0.2c0.3,0.1,0.4,0.3,0.6,0.5c0.1,0.2,0.2,0.4,0.3,0.7c0.1,0.3,0.1,0.6,0.1,0.9v3.1c0,0.3,0,0.5-0.1,0.8
			c0,0.2-0.1,0.4-0.2,0.6c-0.1,0.2-0.2,0.4-0.4,0.5c-0.1,0.1-0.3,0.2-0.5,0.3C121.2,206,120.9,206.1,120.6,206.1z M120,205.4
			c0.2,0.1,0.4,0.1,0.6,0.1c0.2,0,0.4,0,0.6-0.1c0.2-0.1,0.3-0.2,0.4-0.3c0.1-0.1,0.1-0.3,0.2-0.5c0-0.2,0.1-0.4,0.1-0.6v-3.4
			c0-0.3,0-0.5-0.1-0.6c0-0.2-0.1-0.3-0.2-0.5c-0.1-0.1-0.2-0.2-0.4-0.3c-0.2-0.1-0.4-0.1-0.6-0.1c-0.2,0-0.4,0-0.6,0.1
			c-0.2,0.1-0.3,0.2-0.4,0.3c-0.1,0.1-0.1,0.3-0.2,0.5c0,0.2-0.1,0.4-0.1,0.6v3.4c0,0.3,0,0.5,0.1,0.6c0,0.2,0.1,0.3,0.2,0.5
			C119.8,205.2,119.9,205.3,120,205.4z"/>
		<path class="st38" d="M123.7,206v-7.4h0.7v6.9h2.1v0.5H123.7z"/>
		<path class="st38" d="M128.9,206.1c-0.4,0-0.7-0.1-0.9-0.2c-0.3-0.1-0.4-0.3-0.6-0.5c-0.1-0.2-0.2-0.4-0.3-0.7
			c-0.1-0.3-0.1-0.6-0.1-0.9v-3.1c0-0.3,0-0.7,0.1-0.9c0.1-0.3,0.2-0.5,0.3-0.7c0.1-0.2,0.3-0.4,0.6-0.5c0.3-0.1,0.6-0.2,0.9-0.2
			c0.4,0,0.7,0.1,0.9,0.2c0.3,0.1,0.4,0.3,0.6,0.5c0.1,0.2,0.2,0.4,0.3,0.7c0.1,0.3,0.1,0.6,0.1,0.9v3.1c0,0.3,0,0.5-0.1,0.8
			c0,0.2-0.1,0.4-0.2,0.6c-0.1,0.2-0.2,0.4-0.4,0.5c-0.1,0.1-0.3,0.2-0.5,0.3C129.5,206,129.2,206.1,128.9,206.1z M128.3,205.4
			c0.2,0.1,0.4,0.1,0.6,0.1c0.2,0,0.4,0,0.6-0.1c0.2-0.1,0.3-0.2,0.4-0.3c0.1-0.1,0.1-0.3,0.2-0.5c0-0.2,0.1-0.4,0.1-0.6v-3.4
			c0-0.3,0-0.5-0.1-0.6c0-0.2-0.1-0.3-0.2-0.5c-0.1-0.1-0.2-0.2-0.4-0.3c-0.2-0.1-0.4-0.1-0.6-0.1c-0.2,0-0.4,0-0.6,0.1
			c-0.2,0.1-0.3,0.2-0.4,0.3c-0.1,0.1-0.1,0.3-0.2,0.5c0,0.2-0.1,0.4-0.1,0.6v3.4c0,0.3,0,0.5,0.1,0.6c0,0.2,0.1,0.3,0.2,0.5
			C128.1,205.2,128.2,205.3,128.3,205.4z"/>
		<path class="st38" d="M132,206v-7.4h1.7c0.7,0,1.1,0.2,1.4,0.5c0.3,0.3,0.4,0.8,0.4,1.4c0,1-0.3,1.6-1,1.7l1.1,3.8h-0.7l-1.1-3.6
			h-1.2v3.6H132z M132.7,201.8h0.9c0.4,0,0.8-0.1,0.9-0.3c0.2-0.2,0.3-0.6,0.3-1.1c0-0.5-0.1-0.8-0.3-1c-0.2-0.2-0.5-0.3-0.9-0.3h-1
			V201.8z"/>
		<path class="st38" d="M140.1,206.1c-0.6,0-1-0.2-1.3-0.5c-0.3-0.4-0.5-0.8-0.5-1.5l0.6-0.2c0,0.2,0,0.4,0.1,0.5
			c0,0.2,0.1,0.3,0.1,0.4c0.1,0.1,0.1,0.3,0.2,0.4s0.2,0.2,0.3,0.2c0.1,0.1,0.3,0.1,0.5,0.1c0.7,0,1-0.4,1-1.1c0-0.2,0-0.3-0.1-0.4
			c0-0.1-0.1-0.3-0.2-0.4c-0.1-0.1-0.2-0.3-0.3-0.4c-0.1-0.1-0.2-0.2-0.4-0.4l-1.3-1.3c-0.4-0.4-0.7-0.9-0.7-1.5
			c0-0.5,0.1-0.9,0.4-1.2c0.3-0.3,0.7-0.4,1.2-0.4c0,0,0,0,0,0c0.5,0,1,0.1,1.2,0.4c0.3,0.3,0.5,0.8,0.5,1.4l-0.6,0.2
			c0-0.5-0.1-0.9-0.3-1.1c-0.2-0.2-0.4-0.4-0.8-0.4c0,0,0,0-0.1,0c-0.3,0-0.6,0.1-0.8,0.3c-0.2,0.2-0.3,0.4-0.3,0.7
			c0,0.2,0,0.4,0.1,0.6c0.1,0.2,0.2,0.3,0.4,0.5l1.3,1.2c0.3,0.3,0.6,0.6,0.8,1c0.2,0.3,0.3,0.7,0.3,1.1c0,0.5-0.2,1-0.5,1.2
			C141,205.9,140.6,206.1,140.1,206.1z"/>
		<path class="st38" d="M142.8,206v-7.4h0.7v7.4H142.8z"/>
		<path class="st38" d="M145.6,206v-6.9h-1.5v-0.5h3.6v0.5h-1.5v6.9H145.6z"/>
		<path class="st38" d="M149.8,206l1.6-7.4h0.7l1.6,7.4H153l-0.4-2h-1.8l-0.4,2H149.8z M150.9,203.5h1.6l-0.8-4L150.9,203.5z"/>
		<path class="st38" d="M154.5,206l0.2-7.4h0.7l1.5,6.4l1.5-6.4h0.7l0.2,7.4h-0.6l-0.1-5.9l-1.4,5.9h-0.4l-1.4-5.9l-0.1,5.9H154.5z"
			/>
		<path class="st38" d="M160.4,206v-7.4h2.7v0.5h-2v2.8h1.6v0.5h-1.6v3.1h2v0.5H160.4z"/>
		<path class="st38" d="M164.9,206v-6.9h-1.5v-0.5h3.6v0.5h-1.5v6.9H164.9z"/>
	</g>
	<g class="st37">
		<path class="st39" d="M115.2,303.3H75.1c-5.2,0-9.4-4.2-9.4-9.4l0,0c0-5.2,4.2-9.4,9.4-9.4h40.1c5.2,0,9.4,4.2,9.4,9.4l0,0
			C124.6,299.1,120.4,303.3,115.2,303.3z"/>
		<g>
			<path class="st36" d="M85,298.5c-0.7,0-1.2-0.2-1.6-0.6c-0.4-0.4-0.6-1-0.6-1.8l0.7-0.2c0,0.2,0.1,0.4,0.1,0.6
				c0,0.2,0.1,0.4,0.2,0.5c0.1,0.2,0.2,0.3,0.3,0.4c0.1,0.1,0.2,0.2,0.4,0.3c0.2,0.1,0.4,0.1,0.6,0.1c0.8,0,1.3-0.4,1.3-1.3
				c0-0.2,0-0.4-0.1-0.5c0-0.2-0.1-0.3-0.2-0.5c-0.1-0.2-0.2-0.3-0.3-0.4c-0.1-0.1-0.3-0.3-0.5-0.5l-1.6-1.5
				c-0.5-0.5-0.8-1.1-0.8-1.8c0-0.6,0.2-1.1,0.5-1.4c0.4-0.3,0.8-0.5,1.5-0.5c0,0,0,0,0,0c0.6,0,1.1,0.2,1.5,0.5
				c0.4,0.4,0.6,0.9,0.6,1.7l-0.7,0.2c-0.1-0.6-0.2-1.1-0.4-1.4c-0.2-0.3-0.5-0.4-1-0.4c0,0,0,0-0.1,0c-0.4,0-0.7,0.1-0.9,0.3
				c-0.2,0.2-0.3,0.5-0.3,0.9c0,0.2,0,0.5,0.1,0.7c0.1,0.2,0.3,0.4,0.5,0.6l1.6,1.5c0.4,0.4,0.7,0.8,1,1.2c0.2,0.4,0.3,0.8,0.3,1.3
				c0,0.6-0.2,1.1-0.6,1.5C86.1,298.3,85.6,298.5,85,298.5z"/>
			<path class="st36" d="M88.1,291.1V290h0.8v1.1H88.1z M88.1,298.4V292h0.8v6.4H88.1z"/>
			<path class="st36" d="M92,300.5c-0.3,0-0.6,0-0.9-0.1c-0.3,0-0.5-0.1-0.7-0.2c-0.2-0.1-0.3-0.2-0.5-0.3c-0.1-0.1-0.2-0.3-0.2-0.5
				c0-0.3,0.1-0.6,0.3-0.8c0.2-0.3,0.5-0.5,0.7-0.6c-0.2-0.1-0.4-0.1-0.5-0.2c-0.1-0.1-0.2-0.2-0.2-0.3c0-0.3,0.3-0.8,0.8-1.3
				c-0.5-0.4-0.8-1-0.8-1.9c0-0.3,0-0.6,0.1-0.9c0.1-0.3,0.2-0.5,0.3-0.7c0.1-0.2,0.3-0.4,0.6-0.5c0.2-0.1,0.5-0.2,0.8-0.2
				c0.6,0,1.1,0.3,1.4,0.8c0.1-0.1,0.2-0.2,0.3-0.4c0.2-0.1,0.3-0.2,0.5-0.3l0.2-0.1l0.2,0.6c-0.2,0-0.4,0.1-0.6,0.2
				c-0.2,0.1-0.4,0.2-0.5,0.3c0.1,0.1,0.1,0.3,0.1,0.5c0,0.2,0.1,0.4,0.1,0.6c0,0.7-0.1,1.2-0.4,1.6c-0.3,0.4-0.7,0.6-1.3,0.6
				c-0.1,0-0.2,0-0.4,0c-0.1,0-0.2,0-0.3-0.1c0,0-0.1,0.1-0.1,0.2c-0.1,0.1-0.1,0.2-0.2,0.2c0,0.1-0.1,0.1-0.1,0.2
				c0,0.1-0.1,0.1-0.1,0.2c0,0.1,0.2,0.2,0.5,0.2c0.1,0,0.3,0.1,0.5,0.1c0.3,0,0.4,0.1,0.5,0.1c0.5,0.1,0.9,0.3,1.2,0.5
				c0.3,0.2,0.4,0.6,0.4,1c0,0.5-0.2,0.9-0.5,1.1C93.1,300.4,92.6,300.5,92,300.5z M91.9,299.8c0.4,0,0.7-0.1,1-0.2
				c0.2-0.1,0.4-0.3,0.4-0.6c0-0.2-0.1-0.4-0.2-0.5c-0.2-0.1-0.5-0.2-1-0.3l-0.8-0.1c-0.5,0.3-0.8,0.7-0.8,1.1
				c0,0.2,0.1,0.4,0.3,0.5S91.4,299.8,91.9,299.8z M91.9,295.8c0.2,0,0.3,0,0.5-0.1c0.1-0.1,0.2-0.2,0.3-0.3
				c0.1-0.1,0.1-0.2,0.2-0.4c0-0.2,0.1-0.3,0.1-0.4c0-0.1,0-0.3,0-0.5c0-1.1-0.3-1.6-1-1.6c-0.2,0-0.3,0-0.4,0.1
				c-0.1,0.1-0.2,0.2-0.3,0.3c-0.1,0.1-0.1,0.2-0.2,0.4c0,0.2-0.1,0.3-0.1,0.4c0,0.1,0,0.3,0,0.4C90.8,295.3,91.2,295.8,91.9,295.8z
				"/>
			<path class="st36" d="M95,298.4V292h0.8v0.7c0.5-0.5,1-0.8,1.5-0.8c0.3,0,0.6,0.1,0.7,0.4c0.2,0.2,0.3,0.6,0.3,1v5.1h-0.8v-4.9
				c0-0.3,0-0.6-0.1-0.7c-0.1-0.1-0.3-0.2-0.5-0.2c-0.3,0-0.7,0.2-1.1,0.6v5.2H95z"/>
			<path class="st36" d="M101.9,298.4v-8.9h0.8v8.9H101.9z"/>
			<path class="st36" d="M104.2,298.4V292h0.8v0.7c0.5-0.5,1-0.8,1.5-0.8c0.3,0,0.6,0.1,0.7,0.4c0.2,0.2,0.3,0.6,0.3,1v5.1h-0.8
				v-4.9c0-0.3,0-0.6-0.1-0.7c-0.1-0.1-0.3-0.2-0.5-0.2c-0.3,0-0.7,0.2-1.1,0.6v5.2H104.2z"/>
		</g>
	</g>
	<g class="st37">
		<g>
			<path class="st36" d="M164.7,239.8H75.1c-5.3,0-9.6-4.3-9.6-9.6c0-5.3,4.3-9.6,9.6-9.6h89.6c5.3,0,9.6,4.3,9.6,9.6
				C174.3,235.5,170,239.8,164.7,239.8z M75.1,220.9c-5.1,0-9.3,4.2-9.3,9.3c0,5.1,4.2,9.3,9.3,9.3h89.6c5.1,0,9.3-4.2,9.3-9.3
				c0-5.1-4.2-9.3-9.3-9.3H75.1z"/>
			<path class="st36" d="M164.7,270.1H75.1c-5.3,0-9.6-4.3-9.6-9.6c0-5.3,4.3-9.6,9.6-9.6h89.6c5.3,0,9.6,4.3,9.6,9.6
				C174.3,265.8,170,270.1,164.7,270.1z M75.1,251.3c-5.1,0-9.3,4.2-9.3,9.3s4.2,9.3,9.3,9.3h89.6c5.1,0,9.3-4.2,9.3-9.3
				s-4.2-9.3-9.3-9.3H75.1z"/>
		</g>
		<g>
			<path class="st36" d="M80.2,233.2c-0.3,0-0.5,0-0.7-0.1c-0.2-0.1-0.4-0.1-0.5-0.3c-0.1-0.1-0.2-0.2-0.3-0.4
				c-0.1-0.2-0.1-0.3-0.2-0.5c0-0.2,0-0.4,0-0.6v-4.8h0.6v4.8c0,0.2,0,0.3,0,0.4c0,0.1,0.1,0.3,0.1,0.4c0,0.1,0.1,0.2,0.2,0.3
				c0.1,0.1,0.2,0.1,0.3,0.2c0.1,0,0.3,0.1,0.5,0.1c0.2,0,0.4,0,0.5-0.1c0.1-0.1,0.3-0.2,0.3-0.3c0.1-0.1,0.1-0.3,0.2-0.4
				c0-0.2,0.1-0.3,0.1-0.5v-4.8h0.6v4.8c0,0.2,0,0.4,0,0.6c0,0.2-0.1,0.4-0.2,0.5c-0.1,0.2-0.2,0.3-0.3,0.4
				c-0.1,0.1-0.3,0.2-0.5,0.3C80.7,233.2,80.5,233.2,80.2,233.2z"/>
			<path class="st36" d="M83.9,233.2c-0.4,0-0.7-0.1-0.9-0.4c-0.2-0.2-0.4-0.6-0.4-1l0.5-0.2c0,0.4,0.1,0.6,0.2,0.8
				c0.1,0.2,0.3,0.3,0.6,0.3c0.2,0,0.4-0.1,0.5-0.2c0.1-0.1,0.2-0.3,0.2-0.5c0,0,0,0,0,0c0-0.3-0.2-0.6-0.6-0.9l-0.6-0.5
				c-0.2-0.2-0.4-0.4-0.5-0.6c-0.1-0.2-0.2-0.4-0.2-0.6c0-0.3,0.1-0.6,0.3-0.8c0.2-0.2,0.5-0.3,0.8-0.3c0.3,0,0.6,0.1,0.8,0.3
				c0.2,0.2,0.3,0.5,0.3,0.9l-0.4,0.1c0-0.3-0.1-0.6-0.2-0.7c-0.1-0.2-0.3-0.2-0.5-0.2c-0.2,0-0.3,0.1-0.4,0.2
				c-0.1,0.1-0.2,0.2-0.2,0.4c0,0.2,0,0.3,0.1,0.4c0.1,0.1,0.2,0.2,0.3,0.4l0.7,0.6c0.1,0.1,0.2,0.2,0.3,0.3
				c0.1,0.1,0.2,0.2,0.2,0.3c0.1,0.1,0.1,0.2,0.2,0.4c0,0.1,0.1,0.3,0.1,0.4c0,0.4-0.1,0.6-0.3,0.8
				C84.6,233.1,84.3,233.2,83.9,233.2z"/>
			<path class="st36" d="M87,233.2c-0.5,0-0.8-0.1-1-0.4c-0.2-0.3-0.3-0.8-0.3-1.4v-1.2c0-0.5,0-0.8,0.1-1.1
				c0.1-0.3,0.2-0.5,0.4-0.6c0.2-0.1,0.4-0.2,0.7-0.2c0.2,0,0.4,0,0.5,0.1c0.1,0.1,0.3,0.1,0.4,0.2c0.1,0.1,0.2,0.2,0.2,0.4
				c0.1,0.2,0.1,0.3,0.1,0.5c0,0.2,0,0.4,0,0.7l0,0.4h-1.9v0.7c0,0.5,0,0.8,0.1,1c0.1,0.2,0.3,0.3,0.5,0.3c0.2,0,0.4-0.1,0.5-0.2
				c0.1-0.1,0.2-0.4,0.2-0.7v-0.3h0.6v0.3c0,0.5-0.1,0.8-0.3,1.1C87.8,233,87.5,233.2,87,233.2z M86.3,230.3h1.3v-0.4
				c0-0.2,0-0.3,0-0.4c0-0.1,0-0.2-0.1-0.3c0-0.1-0.1-0.2-0.1-0.3c0-0.1-0.1-0.1-0.2-0.1c-0.1,0-0.2-0.1-0.3-0.1
				c-0.3,0-0.4,0.1-0.5,0.3c-0.1,0.2-0.2,0.5-0.2,1V230.3z"/>
			<path class="st36" d="M89.1,233.1v-4.7h0.6v0.7c0.1-0.2,0.3-0.4,0.5-0.5c0.2-0.1,0.4-0.2,0.6-0.2c0,0,0.1,0,0.1,0v0.6
				c-0.1,0-0.2-0.1-0.3-0.1c-0.4,0-0.7,0.2-0.9,0.6v3.6H89.1z"/>
			<path class="st36" d="M93.2,233.1v-4.7h0.6v0.5c0.4-0.4,0.7-0.6,1.1-0.6c0.2,0,0.4,0.1,0.5,0.3c0.1,0.2,0.2,0.4,0.2,0.7v3.8h-0.6
				v-3.7c0-0.2,0-0.4-0.1-0.5c-0.1-0.1-0.2-0.2-0.3-0.2c-0.3,0-0.5,0.1-0.8,0.4v3.9H93.2z"/>
			<path class="st36" d="M97.4,233.2c-0.3,0-0.5-0.1-0.7-0.3c-0.2-0.2-0.3-0.5-0.3-0.8c0-0.2,0-0.3,0-0.4c0-0.1,0.1-0.2,0.2-0.4
				c0.1-0.1,0.2-0.2,0.2-0.3c0.1-0.1,0.2-0.2,0.4-0.3c0.2-0.1,0.3-0.2,0.5-0.3c0.2-0.1,0.4-0.2,0.6-0.3v-0.3c0-0.4,0-0.7-0.1-0.9
				c-0.1-0.2-0.2-0.2-0.5-0.2c-0.4,0-0.7,0.3-0.7,0.8v0.2l-0.6,0c0-0.1,0-0.1,0-0.1c0-0.4,0.1-0.8,0.3-1c0.2-0.2,0.5-0.3,0.9-0.3
				c0.4,0,0.7,0.1,0.9,0.4c0.2,0.2,0.3,0.6,0.3,1.2v2.3c0,0.4,0,0.7,0,0.9h-0.5l-0.1-0.7c-0.1,0.2-0.2,0.4-0.4,0.5
				C97.8,233.1,97.6,233.2,97.4,233.2z M97.6,232.7c0.2,0,0.3-0.1,0.4-0.2c0.1-0.1,0.2-0.2,0.3-0.4v-1.5c0,0,0,0-0.1,0
				c-0.1,0.1-0.2,0.1-0.3,0.2c-0.1,0-0.2,0.1-0.3,0.1c-0.1,0.1-0.2,0.1-0.2,0.1c0,0-0.1,0.1-0.2,0.1c-0.1,0.1-0.1,0.1-0.1,0.1
				c0,0-0.1,0.1-0.1,0.2c0,0.1,0,0.1-0.1,0.2c0,0.1,0,0.1,0,0.2c0,0.2,0.1,0.4,0.2,0.5C97.3,232.6,97.4,232.7,97.6,232.7z"/>
			<path class="st36" d="M99.8,233.1v-4.7h0.6v0.5c0.3-0.4,0.7-0.6,1.1-0.6c0.4,0,0.6,0.2,0.7,0.6c0.3-0.4,0.7-0.6,1.2-0.6
				c0.2,0,0.4,0.1,0.6,0.3c0.2,0.2,0.2,0.4,0.2,0.8v3.7h-0.6v-3.7c0-0.3,0-0.4-0.1-0.5c-0.1-0.1-0.2-0.2-0.3-0.2
				c-0.3,0-0.6,0.2-0.9,0.5c0,0.1,0,0.1,0,0.2v3.7h-0.6v-3.7c0-0.3,0-0.4-0.1-0.5c-0.1-0.1-0.2-0.2-0.3-0.2c-0.3,0-0.6,0.2-0.9,0.5
				v3.9H99.8z"/>
			<path class="st36" d="M106.3,233.2c-0.5,0-0.8-0.1-1-0.4c-0.2-0.3-0.3-0.8-0.3-1.4v-1.2c0-0.5,0-0.8,0.1-1.1
				c0.1-0.3,0.2-0.5,0.4-0.6c0.2-0.1,0.4-0.2,0.7-0.2c0.2,0,0.4,0,0.5,0.1c0.1,0.1,0.3,0.1,0.4,0.2c0.1,0.1,0.2,0.2,0.2,0.4
				c0.1,0.2,0.1,0.3,0.1,0.5c0,0.2,0,0.4,0,0.7l0,0.4h-1.9v0.7c0,0.5,0,0.8,0.1,1c0.1,0.2,0.3,0.3,0.5,0.3c0.2,0,0.4-0.1,0.5-0.2
				c0.1-0.1,0.2-0.4,0.2-0.7v-0.3h0.6v0.3c0,0.5-0.1,0.8-0.3,1.1C107.1,233,106.7,233.2,106.3,233.2z M105.6,230.3h1.3v-0.4
				c0-0.2,0-0.3,0-0.4c0-0.1,0-0.2-0.1-0.3c0-0.1-0.1-0.2-0.1-0.3c0-0.1-0.1-0.1-0.2-0.1c-0.1,0-0.2-0.1-0.3-0.1
				c-0.3,0-0.4,0.1-0.5,0.3c-0.1,0.2-0.2,0.5-0.2,1V230.3z"/>
			<path class="st36" d="M111.8,233.1c-0.2,0.1-0.4,0.1-0.6,0.1c-0.2,0-0.4,0-0.6-0.1c-0.2-0.1-0.3-0.2-0.4-0.4
				c-0.1-0.2-0.2-0.3-0.2-0.6c0-0.2-0.1-0.5-0.1-0.8v-1.3c0-0.6,0.1-1.1,0.3-1.3c0.2-0.3,0.5-0.4,1-0.4c0.5,0,0.8,0.1,1,0.4
				c0.2,0.3,0.3,0.7,0.3,1.3v1.3c0,0.3,0,0.6-0.1,0.8c0,0.2-0.1,0.4-0.2,0.6C112.1,232.9,112,233,111.8,233.1z M111.2,232.7
				c0.1,0,0.2,0,0.3-0.1c0.1,0,0.1-0.1,0.2-0.2c0-0.1,0.1-0.2,0.1-0.3c0-0.1,0-0.2,0-0.4c0-0.1,0-0.3,0-0.4V230c0-0.2,0-0.3,0-0.4
				c0-0.1,0-0.2,0-0.4c0-0.1-0.1-0.2-0.1-0.3c0-0.1-0.1-0.1-0.2-0.2c-0.1,0-0.2-0.1-0.3-0.1c-0.1,0-0.2,0-0.3,0
				c-0.1,0-0.1,0.1-0.2,0.1c0,0.1-0.1,0.1-0.1,0.2c0,0.1-0.1,0.2-0.1,0.3c0,0.1,0,0.2,0,0.3c0,0.1,0,0.2,0,0.4v1.4
				c0,0.1,0,0.3,0,0.4c0,0.1,0,0.2,0,0.3c0,0.1,0,0.2,0.1,0.3c0,0.1,0.1,0.1,0.1,0.2c0,0.1,0.1,0.1,0.2,0.1
				C111,232.7,111.1,232.7,111.2,232.7z"/>
			<path class="st36" d="M113.3,233.1v-4.7h0.6v0.7c0.1-0.2,0.3-0.4,0.5-0.5c0.2-0.1,0.4-0.2,0.6-0.2c0,0,0.1,0,0.1,0v0.6
				c-0.1,0-0.2-0.1-0.3-0.1c-0.4,0-0.7,0.2-0.9,0.6v3.6H113.3z"/>
			<path class="st36" d="M118.6,233.2c-0.5,0-0.8-0.1-1-0.4c-0.2-0.3-0.3-0.8-0.3-1.4v-1.2c0-0.5,0-0.8,0.1-1.1
				c0.1-0.3,0.2-0.5,0.4-0.6c0.2-0.1,0.4-0.2,0.7-0.2c0.2,0,0.4,0,0.5,0.1c0.1,0.1,0.3,0.1,0.4,0.2c0.1,0.1,0.2,0.2,0.2,0.4
				c0.1,0.2,0.1,0.3,0.1,0.5c0,0.2,0,0.4,0,0.7l0,0.4h-1.9v0.7c0,0.5,0,0.8,0.1,1c0.1,0.2,0.3,0.3,0.5,0.3c0.2,0,0.4-0.1,0.5-0.2
				c0.1-0.1,0.2-0.4,0.2-0.7v-0.3h0.6v0.3c0,0.5-0.1,0.8-0.3,1.1C119.4,233,119,233.2,118.6,233.2z M117.9,230.3h1.3v-0.4
				c0-0.2,0-0.3,0-0.4c0-0.1,0-0.2-0.1-0.3c0-0.1-0.1-0.2-0.1-0.3c0-0.1-0.1-0.1-0.2-0.1c-0.1,0-0.2-0.1-0.3-0.1
				c-0.3,0-0.4,0.1-0.5,0.3c-0.1,0.2-0.2,0.5-0.2,1V230.3z"/>
			<path class="st36" d="M120.7,233.1v-4.7h0.6v0.5c0.3-0.4,0.7-0.6,1.1-0.6c0.4,0,0.6,0.2,0.7,0.6c0.3-0.4,0.7-0.6,1.2-0.6
				c0.2,0,0.4,0.1,0.6,0.3c0.2,0.2,0.2,0.4,0.2,0.8v3.7h-0.6v-3.7c0-0.3,0-0.4-0.1-0.5c-0.1-0.1-0.2-0.2-0.3-0.2
				c-0.3,0-0.6,0.2-0.9,0.5c0,0.1,0,0.1,0,0.2v3.7h-0.6v-3.7c0-0.3,0-0.4-0.1-0.5c-0.1-0.1-0.2-0.2-0.3-0.2c-0.3,0-0.6,0.2-0.9,0.5
				v3.9H120.7z"/>
			<path class="st36" d="M126.8,233.2c-0.3,0-0.5-0.1-0.7-0.3c-0.2-0.2-0.3-0.5-0.3-0.8c0-0.2,0-0.3,0-0.4c0-0.1,0.1-0.2,0.2-0.4
				c0.1-0.1,0.2-0.2,0.2-0.3c0.1-0.1,0.2-0.2,0.4-0.3c0.2-0.1,0.3-0.2,0.5-0.3c0.2-0.1,0.4-0.2,0.6-0.3v-0.3c0-0.4,0-0.7-0.1-0.9
				c-0.1-0.2-0.2-0.2-0.5-0.2c-0.4,0-0.7,0.3-0.7,0.8v0.2l-0.6,0c0-0.1,0-0.1,0-0.1c0-0.4,0.1-0.8,0.3-1c0.2-0.2,0.5-0.3,0.9-0.3
				c0.4,0,0.7,0.1,0.9,0.4c0.2,0.2,0.3,0.6,0.3,1.2v2.3c0,0.4,0,0.7,0,0.9h-0.5l-0.1-0.7c-0.1,0.2-0.2,0.4-0.4,0.5
				C127.2,233.1,127,233.2,126.8,233.2z M127,232.7c0.2,0,0.3-0.1,0.4-0.2c0.1-0.1,0.2-0.2,0.3-0.4v-1.5c0,0,0,0-0.1,0
				c-0.1,0.1-0.2,0.1-0.3,0.2c-0.1,0-0.2,0.1-0.3,0.1c-0.1,0.1-0.2,0.1-0.2,0.1c0,0-0.1,0.1-0.2,0.1c-0.1,0.1-0.1,0.1-0.1,0.1
				c0,0-0.1,0.1-0.1,0.2c0,0.1,0,0.1-0.1,0.2c0,0.1,0,0.1,0,0.2c0,0.2,0.1,0.4,0.2,0.5C126.7,232.6,126.8,232.7,127,232.7z"/>
			<path class="st36" d="M129.3,227.7v-0.8h0.6v0.8H129.3z M129.3,233.1v-4.7h0.6v4.7H129.3z"/>
			<path class="st36" d="M131,233.1v-6.6h0.6v6.6H131z"/>
		</g>
		<g>
			<path class="st36" d="M78.6,263.1v-6.6h1.6c0.3,0,0.5,0,0.7,0.1c0.2,0.1,0.4,0.2,0.5,0.4c0.1,0.2,0.2,0.3,0.3,0.6
				c0.1,0.2,0.1,0.4,0.1,0.7c0,0.2,0,0.5-0.1,0.7c-0.1,0.2-0.1,0.4-0.3,0.5c-0.1,0.2-0.3,0.3-0.5,0.4s-0.4,0.1-0.7,0.1h-1v3.1H78.6z
				 M79.2,259.5H80c0.4,0,0.7-0.1,0.9-0.3c0.2-0.2,0.3-0.5,0.3-1c0-0.5-0.1-0.9-0.2-1c-0.2-0.2-0.5-0.3-0.9-0.3h-0.8V259.5z"/>
			<path class="st36" d="M83.2,263.2c-0.3,0-0.5-0.1-0.7-0.3c-0.2-0.2-0.3-0.5-0.3-0.8c0-0.2,0-0.3,0-0.4c0-0.1,0.1-0.2,0.2-0.4
				c0.1-0.1,0.2-0.2,0.2-0.3c0.1-0.1,0.2-0.2,0.4-0.3c0.2-0.1,0.3-0.2,0.5-0.3c0.2-0.1,0.4-0.2,0.6-0.3v-0.3c0-0.4,0-0.7-0.1-0.9
				c-0.1-0.2-0.2-0.2-0.5-0.2c-0.4,0-0.7,0.3-0.7,0.8v0.2l-0.6,0c0-0.1,0-0.1,0-0.1c0-0.4,0.1-0.8,0.3-1c0.2-0.2,0.5-0.3,0.9-0.3
				c0.4,0,0.7,0.1,0.9,0.4c0.2,0.2,0.3,0.6,0.3,1.2v2.3c0,0.4,0,0.7,0,0.9h-0.5l-0.1-0.7c-0.1,0.2-0.2,0.4-0.4,0.5
				C83.7,263.1,83.5,263.2,83.2,263.2z M83.4,262.7c0.2,0,0.3-0.1,0.4-0.2c0.1-0.1,0.2-0.2,0.3-0.4v-1.5c0,0,0,0-0.1,0
				c-0.1,0.1-0.2,0.1-0.3,0.2c-0.1,0-0.2,0.1-0.3,0.1c-0.1,0.1-0.2,0.1-0.2,0.1c0,0-0.1,0.1-0.2,0.1c-0.1,0.1-0.1,0.1-0.1,0.1
				c0,0-0.1,0.1-0.1,0.2c0,0.1,0,0.1-0.1,0.2c0,0.1,0,0.1,0,0.2c0,0.2,0.1,0.4,0.2,0.5C83.1,262.6,83.3,262.7,83.4,262.7z"/>
			<path class="st36" d="M86.8,263.2c-0.4,0-0.7-0.1-0.9-0.4c-0.2-0.2-0.4-0.6-0.4-1l0.5-0.2c0,0.4,0.1,0.6,0.2,0.8
				c0.1,0.2,0.3,0.3,0.6,0.3c0.2,0,0.4-0.1,0.5-0.2c0.1-0.1,0.2-0.3,0.2-0.5c0,0,0,0,0,0c0-0.3-0.2-0.6-0.6-0.9l-0.6-0.5
				c-0.2-0.2-0.4-0.4-0.5-0.6c-0.1-0.2-0.2-0.4-0.2-0.6c0-0.3,0.1-0.6,0.3-0.8c0.2-0.2,0.5-0.3,0.8-0.3c0.3,0,0.6,0.1,0.8,0.3
				c0.2,0.2,0.3,0.5,0.3,0.9l-0.4,0.1c0-0.3-0.1-0.6-0.2-0.7c-0.1-0.2-0.3-0.2-0.5-0.2c-0.2,0-0.3,0.1-0.4,0.2
				c-0.1,0.1-0.2,0.2-0.2,0.4c0,0.2,0,0.3,0.1,0.4c0.1,0.1,0.2,0.2,0.3,0.4l0.7,0.6c0.1,0.1,0.2,0.2,0.3,0.3
				c0.1,0.1,0.2,0.2,0.2,0.3c0.1,0.1,0.1,0.2,0.2,0.4c0,0.1,0.1,0.3,0.1,0.4c0,0.4-0.1,0.6-0.3,0.8
				C87.4,263.1,87.1,263.2,86.8,263.2z"/>
			<path class="st36" d="M89.7,263.2c-0.4,0-0.7-0.1-0.9-0.4c-0.2-0.2-0.4-0.6-0.4-1l0.5-0.2c0,0.4,0.1,0.6,0.2,0.8
				c0.1,0.2,0.3,0.3,0.6,0.3c0.2,0,0.4-0.1,0.5-0.2c0.1-0.1,0.2-0.3,0.2-0.5c0,0,0,0,0,0c0-0.3-0.2-0.6-0.6-0.9l-0.6-0.5
				c-0.2-0.2-0.4-0.4-0.5-0.6c-0.1-0.2-0.2-0.4-0.2-0.6c0-0.3,0.1-0.6,0.3-0.8c0.2-0.2,0.5-0.3,0.8-0.3c0.3,0,0.6,0.1,0.8,0.3
				c0.2,0.2,0.3,0.5,0.3,0.9l-0.4,0.1c0-0.3-0.1-0.6-0.2-0.7c-0.1-0.2-0.3-0.2-0.5-0.2c-0.2,0-0.3,0.1-0.4,0.2
				c-0.1,0.1-0.2,0.2-0.2,0.4c0,0.2,0,0.3,0.1,0.4c0.1,0.1,0.2,0.2,0.3,0.4l0.7,0.6c0.1,0.1,0.2,0.2,0.3,0.3
				c0.1,0.1,0.2,0.2,0.2,0.3c0.1,0.1,0.1,0.2,0.2,0.4c0,0.1,0.1,0.3,0.1,0.4c0,0.4-0.1,0.6-0.3,0.8
				C90.4,263.1,90.1,263.2,89.7,263.2z"/>
			<path class="st36" d="M92.2,263.1l-0.8-4.7h0.5l0.6,4l0.7-4h0.5l0.8,3.9l0.6-3.9h0.5l-0.8,4.7h-0.6l-0.8-3.9l-0.7,3.9H92.2z"/>
			<path class="st36" d="M98.1,263.1c-0.2,0.1-0.4,0.1-0.6,0.1c-0.2,0-0.4,0-0.6-0.1c-0.2-0.1-0.3-0.2-0.4-0.4
				c-0.1-0.2-0.2-0.3-0.2-0.6c0-0.2-0.1-0.5-0.1-0.8v-1.3c0-0.6,0.1-1.1,0.3-1.3c0.2-0.3,0.5-0.4,1-0.4c0.5,0,0.8,0.1,1,0.4
				c0.2,0.3,0.3,0.7,0.3,1.3v1.3c0,0.3,0,0.6-0.1,0.8c0,0.2-0.1,0.4-0.2,0.6C98.4,262.9,98.3,263,98.1,263.1z M97.5,262.7
				c0.1,0,0.2,0,0.3-0.1c0.1,0,0.1-0.1,0.2-0.2c0-0.1,0.1-0.2,0.1-0.3c0-0.1,0-0.2,0-0.4c0-0.1,0-0.3,0-0.4v-1.4c0-0.2,0-0.3,0-0.4
				c0-0.1,0-0.2,0-0.4c0-0.1-0.1-0.2-0.1-0.3c0-0.1-0.1-0.1-0.2-0.2c-0.1,0-0.2-0.1-0.3-0.1c-0.1,0-0.2,0-0.3,0
				c-0.1,0-0.1,0.1-0.2,0.1c0,0.1-0.1,0.1-0.1,0.2c0,0.1-0.1,0.2-0.1,0.3c0,0.1,0,0.2,0,0.3c0,0.1,0,0.2,0,0.4v1.4
				c0,0.1,0,0.3,0,0.4c0,0.1,0,0.2,0,0.3c0,0.1,0,0.2,0.1,0.3c0,0.1,0.1,0.1,0.1,0.2c0,0.1,0.1,0.1,0.2,0.1
				C97.3,262.7,97.4,262.7,97.5,262.7z"/>
			<path class="st36" d="M99.7,263.1v-4.7h0.6v0.7c0.1-0.2,0.3-0.4,0.5-0.5c0.2-0.1,0.4-0.2,0.6-0.2c0,0,0.1,0,0.1,0v0.6
				c-0.1,0-0.2-0.1-0.3-0.1c-0.4,0-0.7,0.2-0.9,0.6v3.6H99.7z"/>
			<path class="st36" d="M103.1,263.2c-0.4,0-0.7-0.2-0.9-0.5c-0.2-0.3-0.3-0.8-0.3-1.5v-0.9c0-0.3,0-0.5,0-0.7
				c0-0.2,0.1-0.4,0.1-0.6c0.1-0.2,0.1-0.3,0.2-0.4c0.1-0.1,0.2-0.2,0.3-0.3c0.1-0.1,0.3-0.1,0.5-0.1c0.3,0,0.6,0.1,0.8,0.4v-2.2
				h0.6v6.6h-0.6v-0.3C103.7,263.1,103.4,263.2,103.1,263.2z M103.2,262.7c0.2,0,0.5-0.1,0.7-0.3v-3.3c-0.2-0.2-0.5-0.3-0.7-0.3
				c-0.3,0-0.4,0.1-0.5,0.3c-0.1,0.2-0.1,0.6-0.1,1v1.1c0,0.5,0,0.9,0.1,1.1C102.8,262.6,103,262.7,103.2,262.7z"/>
		</g>
	</g>
</g>
<g id="XMLID_2_">
	
		<linearGradient id="SVGID_1_" gradientUnits="userSpaceOnUse" x1="-3406.9595" y1="280.2181" x2="-3393.0405" y2="288.2542" gradientTransform="matrix(-1 0 0 1 -3113.9871 0)">
		<stop  offset="0" style="stop-color:#42E8E0"/>
		<stop  offset="0.1507" style="stop-color:#43E3E0"/>
		<stop  offset="0.3285" style="stop-color:#45D5DF"/>
		<stop  offset="0.5199" style="stop-color:#49BDDD"/>
		<stop  offset="0.7209" style="stop-color:#4E9CDB"/>
		<stop  offset="0.9274" style="stop-color:#5472D8"/>
		<stop  offset="1" style="stop-color:#5761D7"/>
	</linearGradient>
	<path class="st40" d="M282.9,294.8l-0.6-0.9l12.2-7.3c0.2-0.1,0.4-0.4,0.4-0.7c0-0.3-0.1-0.5-0.4-0.7l-12-7.1l0.6-0.9l12,7.1
		c0.6,0.3,0.9,0.9,0.9,1.6c0,0.7-0.3,1.3-0.9,1.6L282.9,294.8z"/>
	<g>
		
			<linearGradient id="SVGID_2_" gradientUnits="userSpaceOnUse" x1="-1355.4418" y1="1718.3918" x2="-1326.3789" y2="1718.3918" gradientTransform="matrix(-0.866 0.5 1 0.5774 -2572.1099 -14.6605)">
			<stop  offset="0" style="stop-color:#42E8E0"/>
			<stop  offset="0.1507" style="stop-color:#43E3E0"/>
			<stop  offset="0.3285" style="stop-color:#45D5DF"/>
			<stop  offset="0.5199" style="stop-color:#49BDDD"/>
			<stop  offset="0.7209" style="stop-color:#4E9CDB"/>
			<stop  offset="0.9274" style="stop-color:#5472D8"/>
			<stop  offset="1" style="stop-color:#5761D7"/>
		</linearGradient>
		<path class="st41" d="M307.6,320.7c-1.1,0-2.2-0.3-3.2-0.9l-21.7-12.5l0.5-0.9l21.7,12.5c1.6,0.9,3.7,0.9,5.3,0l21.4-12.4l0.5,0.9
			l-21.4,12.4C309.8,320.4,308.7,320.7,307.6,320.7z"/>
		
			<linearGradient id="SVGID_4_" gradientUnits="userSpaceOnUse" x1="-3397.5432" y1="300.8146" x2="-3373.2361" y2="300.8146" gradientTransform="matrix(-1 0 0 1 -3113.9871 0)">
			<stop  offset="0" style="stop-color:#42E8E0"/>
			<stop  offset="0.1507" style="stop-color:#43E3E0"/>
			<stop  offset="0.3285" style="stop-color:#45D5DF"/>
			<stop  offset="0.5199" style="stop-color:#49BDDD"/>
			<stop  offset="0.7209" style="stop-color:#4E9CDB"/>
			<stop  offset="0.9274" style="stop-color:#5472D8"/>
			<stop  offset="1" style="stop-color:#5761D7"/>
		</linearGradient>
		<path class="st42" d="M271.4,308c-3.1,0-6.1-0.7-8.5-2v0c-2.4-1.4-3.7-3.2-3.7-5.2c0-2,1.3-3.8,3.7-5.2c4.7-2.7,12.3-2.7,17,0
			c2.4,1.4,3.7,3.2,3.7,5.2c0,2-1.3,3.8-3.7,5.2C277.5,307.4,274.5,308,271.4,308z M271.4,294.6c-2.9,0-5.8,0.6-7.9,1.9
			c-2,1.2-3.1,2.7-3.1,4.3c0,1.6,1.1,3.1,3.1,4.3v0c4.4,2.5,11.5,2.5,15.9,0c2-1.2,3.1-2.7,3.1-4.3c0-1.6-1.1-3.1-3.1-4.3
			C277.2,295.3,274.3,294.6,271.4,294.6z M271.4,305c-1.7,0-3.4-0.4-4.7-1.1c-1.4-0.8-2.1-1.9-2.1-3c0-1.2,0.7-2.2,2.1-3
			c2.6-1.5,6.8-1.5,9.4,0c1.4,0.8,2.1,1.9,2.1,3c0,1.2-0.7,2.2-2.1,3C274.8,304.6,273.1,305,271.4,305z M271.4,297.7
			c-1.5,0-3,0.3-4.2,1c-1,0.6-1.6,1.3-1.6,2.1s0.6,1.5,1.6,2.1c2.3,1.3,6,1.3,8.3,0c1-0.6,1.6-1.3,1.6-2.1c0-0.8-0.6-1.5-1.6-2.1
			C274.4,298.1,272.9,297.7,271.4,297.7z"/>
		<g>
			
				<linearGradient id="SVGID_5_" gradientUnits="userSpaceOnUse" x1="-3380.8845" y1="290.696" x2="-3389.8945" y2="310.933" gradientTransform="matrix(-1 0 0 1 -3113.9871 0)">
				<stop  offset="0" style="stop-color:#42E8E0"/>
				<stop  offset="0.1507" style="stop-color:#43E3E0"/>
				<stop  offset="0.3285" style="stop-color:#45D5DF"/>
				<stop  offset="0.5199" style="stop-color:#49BDDD"/>
				<stop  offset="0.7209" style="stop-color:#4E9CDB"/>
				<stop  offset="0.9274" style="stop-color:#5472D8"/>
				<stop  offset="1" style="stop-color:#5761D7"/>
			</linearGradient>
			<path class="st43" d="M271.4,310.5c-4.1,0-8.3-0.9-11.5-2.7c-3.2-1.8-4.9-4.3-4.9-6.9s1.7-5.1,4.9-6.9c6.3-3.6,16.6-3.6,22.9,0
				c3.2,1.8,4.9,4.3,4.9,6.9s-1.7,5.1-4.9,6.9C279.7,309.6,275.5,310.5,271.4,310.5z M271.4,292.2c-4,0-7.9,0.9-10.9,2.6
				c-2.8,1.6-4.4,3.8-4.4,6c0,2.2,1.5,4.4,4.4,6v0c6,3.5,15.8,3.5,21.8,0c2.8-1.6,4.4-3.8,4.4-6c0-2.2-1.5-4.4-4.4-6
				C279.3,293.1,275.4,292.2,271.4,292.2z"/>
		</g>
	</g>
	<g>
		<g>
			<g>
				<g>
					
						<linearGradient id="SVGID_6_" gradientUnits="userSpaceOnUse" x1="-3623.0608" y1="310.4323" x2="-3430.283" y2="310.4323" gradientTransform="matrix(-1 0 0 1 -3113.9871 0)">
						<stop  offset="0" style="stop-color:#42E8E0"/>
						<stop  offset="0.1507" style="stop-color:#43E3E0"/>
						<stop  offset="0.3285" style="stop-color:#45D5DF"/>
						<stop  offset="0.5199" style="stop-color:#49BDDD"/>
						<stop  offset="0.7209" style="stop-color:#4E9CDB"/>
						<stop  offset="0.9274" style="stop-color:#5472D8"/>
						<stop  offset="1" style="stop-color:#5761D7"/>
					</linearGradient>
					<path class="st44" d="M436.7,366.5c-1.8,0-3.5-0.5-5.1-1.4l-114.3-66c-0.7-0.4-1-1.1-1-1.8c0-0.8,0.4-1.4,1-1.8l71.3-41.2
						l0.3,0.2L508,323.3c0.7,0.4,1,1.1,1,1.8c0,0.8-0.4,1.4-1,1.8l-66.2,38.2C440.3,366,438.5,366.5,436.7,366.5z M388.6,255.6
						l-70.7,40.8c-0.3,0.2-0.5,0.5-0.5,0.9c0,0.4,0.2,0.7,0.5,0.9l114.3,66c2.8,1.6,6.3,1.6,9.2,0l66.2-38.2
						c0.3-0.2,0.5-0.5,0.5-0.9c0-0.4-0.2-0.7-0.5-0.9L388.6,255.6z"/>
				</g>
				<g>
					<g>
						
							<linearGradient id="SVGID_7_" gradientUnits="userSpaceOnUse" x1="-3649.4265" y1="217.3058" x2="-3502.4338" y2="217.3058" gradientTransform="matrix(-1 0 0 1 -3113.9871 0)">
							<stop  offset="0" style="stop-color:#C0BFF6"/>
							<stop  offset="0.2938" style="stop-color:#C5C4F7"/>
							<stop  offset="0.6399" style="stop-color:#D3D2F9"/>
							<stop  offset="1" style="stop-color:#E9E9FD"/>
						</linearGradient>
						<path class="st45" d="M388.5,226.4l15.9-94.5l-1.3-0.5l1.9-1.1l0,0c0.4-0.2,0.9-0.2,1.5,0.1l127.2,73.5c1,0.6,1.8,2.2,1.7,3.2
							l-16,95.2c-0.1,0.5-0.3,0.8-0.7,1l0,0l-1.9,1.1l-0.3-1.8l0.1,0l-126.5-73C389.1,229.1,388.3,227.5,388.5,226.4z"/>
						
							<linearGradient id="SVGID_8_" gradientUnits="userSpaceOnUse" x1="-3649.4255" y1="255.0027" x2="-3624.1855" y2="255.0027" gradientTransform="matrix(-1 0 0 1 -3113.9871 0)">
							<stop  offset="0" style="stop-color:#5761D7"/>
							<stop  offset="0.1779" style="stop-color:#5C66D9"/>
							<stop  offset="0.3876" style="stop-color:#6A73DF"/>
							<stop  offset="0.6134" style="stop-color:#8289E8"/>
							<stop  offset="0.849" style="stop-color:#A3A7F5"/>
							<stop  offset="1" style="stop-color:#BCBEFF"/>
						</linearGradient>
						<path class="st46" d="M533.1,206.5l2.1-0.9c0.2,0.5,0.3,1.1,0.3,1.6l-16,95.2c-0.1,0.5-0.3,0.8-0.7,1l0,0l-1.9,1.1l-0.3-1.8
							l0.1,0l-6.4-3.7L533.1,206.5z"/>
						<path class="st47" d="M388.1,230.8l127.2,73.5c1,0.6,1.8,0.2,2-0.8l16-95.2c0.2-1.1-0.6-2.6-1.7-3.2l-127.2-73.5
							c-1-0.6-1.8-0.2-2,0.8l-16,95.2C386.3,228.7,387.1,230.2,388.1,230.8z"/>
						<g class="st48">
							<polygon class="st49" points="406.2,137.7 528.8,208.5 513.6,298.2 391.1,227.4 							"/>
						</g>
					</g>
					<g>
						
							<linearGradient id="SVGID_9_" gradientUnits="userSpaceOnUse" x1="-3629.7329" y1="297.3786" x2="-3422.1311" y2="297.3786" gradientTransform="matrix(-1 0 0 1 -3113.9871 0)">
							<stop  offset="0" style="stop-color:#5761D7"/>
							<stop  offset="0.1779" style="stop-color:#5C66D9"/>
							<stop  offset="0.3876" style="stop-color:#6A73DF"/>
							<stop  offset="0.6134" style="stop-color:#8289E8"/>
							<stop  offset="0.849" style="stop-color:#A3A7F5"/>
							<stop  offset="1" style="stop-color:#BCBEFF"/>
						</linearGradient>
						<path class="st50" d="M308.1,275.9l6.9,3.6l69.6-40.2c1.2-0.7,3.2-0.6,4.5,0.2l120.1,69.3c1.1-0.6,6.4-3.2,6.4-3.2l-2.5,6.6
							c0,0,0,0,0,0c-0.1,0.3-0.3,0.6-0.7,0.8l-73.3,42.3c-1.2,0.7-3.2,0.6-4.5-0.2l-122.9-71c-0.6-0.3-0.9-0.7-1-1.1l0,0
							L308.1,275.9z"/>
						
							<linearGradient id="SVGID_10_" gradientUnits="userSpaceOnUse" x1="-3559.978" y1="290.4564" x2="-3352.2656" y2="290.4564" gradientTransform="matrix(-1 0 0 1 -3113.9871 0)">
							<stop  offset="0" style="stop-color:#C0BFF6"/>
							<stop  offset="0.2938" style="stop-color:#C5C4F7"/>
							<stop  offset="0.6399" style="stop-color:#D3D2F9"/>
							<stop  offset="1" style="stop-color:#E9E9FD"/>
						</linearGradient>
						<path class="st51" d="M309.2,277l125.9,72.7c1.4,0.8,3.5,0.9,4.7,0.2l75.2-43.4c1.2-0.7,1-1.9-0.3-2.7l-125.9-72.7
							c-1.4-0.8-3.5-0.9-4.7-0.2l-75.2,43.4C307.7,275,307.8,276.2,309.2,277z"/>
						<path class="st52" d="M473.2,334v-1.4c0-0.1-0.1-0.2-0.2-0.1l-4.9,2.8c-0.1,0.1-0.2,0.2-0.2,0.3v1.4c0,0.1,0.1,0.2,0.2,0.1
							l4.9-2.8C473.1,334.3,473.2,334.2,473.2,334z"/>
						<path class="st52" d="M465.9,338.2v-1.4c0-0.1-0.1-0.2-0.2-0.1l-4.9,2.8c-0.1,0.1-0.2,0.2-0.2,0.3v1.4c0,0.1,0.1,0.2,0.2,0.1
							l4.9-2.8C465.8,338.5,465.9,338.4,465.9,338.2z"/>
						<path class="st53" d="M495.4,302.5l-104.7-60.4c-0.7-0.4-1.6-0.4-2.3,0l-37.3,21.6c-0.5,0.3-0.5,1.1,0,1.4l104.6,60.4
							c0.7,0.4,1.6,0.4,2.3,0l37.3-21.5C495.9,303.6,495.9,302.8,495.4,302.5z"/>
						<path class="st54" d="M495.4,303.9l-0.4,0.2l-104.3-60.2c-0.7-0.4-1.6-0.4-2.3,0l-36.9,21.3l-0.4-0.2c-0.5-0.3-0.5-1.1,0-1.4
							l37.3-21.6c0.7-0.4,1.6-0.4,2.3,0l104.7,60.4C495.9,302.8,495.9,303.6,495.4,303.9z"/>
						<g>
							<polygon class="st47" points="385.7,247.5 476.6,300 480.6,297.7 389.7,245.2 							"/>
							<polygon class="st47" points="375.7,253.3 461,302.5 465.1,300.2 379.8,250.9 							"/>
							<polygon class="st47" points="369.3,257 469.7,314.9 473.7,312.6 373.3,254.6 							"/>
							<polygon class="st47" points="362.8,260.7 463.2,318.7 467.3,316.3 366.9,258.4 							"/>
							<polygon class="st47" points="356.4,264.4 456.8,322.4 460.8,320.1 360.4,262.1 							"/>
							<polygon class="st47" points="482.1,303.2 486.1,305.5 490.2,303.2 486.1,300.9 							"/>
							<polygon class="st47" points="467.8,306.4 476.2,311.2 480.2,308.9 471.9,304.1 							"/>
						</g>
						
							<linearGradient id="SVGID_11_" gradientUnits="userSpaceOnUse" x1="-3524.8022" y1="302.2479" x2="-3471.6335" y2="302.2479" gradientTransform="matrix(-1 0 0 1 -3113.9871 0)">
							<stop  offset="0" style="stop-color:#C0BFF6"/>
							<stop  offset="0.2938" style="stop-color:#C5C4F7"/>
							<stop  offset="0.6399" style="stop-color:#D3D2F9"/>
							<stop  offset="1" style="stop-color:#E9E9FD"/>
						</linearGradient>
						<path class="st55" d="M386.7,317.1l-28.2-16.3c-1.1-0.6-1.1-1.7,0-2.3l19.3-11.1c1.1-0.6,2.9-0.6,4,0l28.2,16.3
							c1.1,0.6,1.1,1.7,0,2.3l-19.3,11.1C389.6,317.8,387.8,317.8,386.7,317.1z"/>
						<path class="st54" d="M410,304.6l-28.2-16.3c-1.1-0.6-2.9-0.6-4,0l-19.3,11.1c-0.3,0.2-0.6,0.4-0.7,0.7
							c-0.3-0.6-0.1-1.2,0.7-1.6l19.3-11.1c1.1-0.6,2.9-0.6,4,0l28.2,16.3c0.8,0.4,1,1.1,0.7,1.6C410.6,305,410.3,304.8,410,304.6z"
							/>
					</g>
				</g>
				<g class="st56">
					<defs>
						<polygon id="SVGID_3_" class="st56" points="406.2,137.7 528.8,208.5 513.6,298.2 391.1,227.4 						"/>
					</defs>
					<clipPath id="SVGID_12_">
						<use xlink:href="#SVGID_3_"  style="overflow:visible;"/>
					</clipPath>
					<g class="st57">
						
							<linearGradient id="SVGID_13_" gradientUnits="userSpaceOnUse" x1="-3639.3362" y1="244.4176" x2="-3431.6235" y2="244.4176" gradientTransform="matrix(-1 0 0 1 -3113.9871 0)">
							<stop  offset="0" style="stop-color:#C0BFF6"/>
							<stop  offset="0.2938" style="stop-color:#C5C4F7"/>
							<stop  offset="0.6399" style="stop-color:#D3D2F9"/>
							<stop  offset="1" style="stop-color:#E9E9FD"/>
						</linearGradient>
						<path class="st58" d="M388.6,231l125.9,72.7c1.4,0.8,3.5,0.9,4.7,0.2l75.2-43.4c1.2-0.7,1-1.9-0.3-2.7l-125.9-72.7
							c-1.4-0.8-3.5-0.9-4.7-0.2l-75.2,43.4C387,229,387.2,230.2,388.6,231z"/>
						
							<linearGradient id="SVGID_14_" gradientUnits="userSpaceOnUse" x1="-3653.0071" y1="229.17" x2="-3599.8386" y2="229.17" gradientTransform="matrix(-1 0 0 1 -3113.9871 0)">
							<stop  offset="0" style="stop-color:#C0BFF6"/>
							<stop  offset="0.2938" style="stop-color:#C5C4F7"/>
							<stop  offset="0.6399" style="stop-color:#D3D2F9"/>
							<stop  offset="1" style="stop-color:#E9E9FD"/>
						</linearGradient>
						<path class="st59" d="M514.9,244l-28.2-16.3c-1.1-0.6-1.1-1.7,0-2.3l19.3-11.1c1.1-0.6,2.9-0.6,4,0l28.2,16.3
							c1.1,0.6,1.1,1.7,0,2.3L518.9,244C517.8,244.7,516,244.7,514.9,244z"/>
						<path class="st54" d="M538.2,231.5L510,215.2c-1.1-0.6-2.9-0.6-4,0l-19.3,11.1c-0.3,0.2-0.6,0.4-0.7,0.7
							c-0.3-0.6-0.1-1.2,0.7-1.6l19.3-11.1c1.1-0.6,2.9-0.6,4,0l28.2,16.3c0.8,0.4,1,1.1,0.7,1.6C538.8,232,538.5,231.7,538.2,231.5
							z"/>
						<g>
							<path class="st53" d="M550.6,269.5l-104.7-60.4c-0.7-0.4-1.6-0.4-2.3,0l-37.3,21.6c-0.5,0.3-0.5,1.1,0,1.4L511,292.4
								c0.7,0.4,1.6,0.4,2.3,0l37.3-21.5C551.1,270.6,551.1,269.8,550.6,269.5z"/>
							<path class="st54" d="M550.6,270.9l-0.4,0.2l-104.3-60.2c-0.7-0.4-1.6-0.4-2.3,0l-36.9,21.3l-0.4-0.2c-0.5-0.3-0.5-1.1,0-1.4
								l37.3-21.6c0.7-0.4,1.6-0.4,2.3,0l104.7,60.4C551.1,269.8,551.1,270.6,550.6,270.9z"/>
							<g>
								<polygon class="st47" points="416.2,229.2 507.3,281.8 503.7,283.9 412.6,231.3 								"/>
								<polygon class="st47" points="425.8,223.6 512.4,273.7 508.8,275.7 422.2,225.7 								"/>
								<polygon class="st47" points="518.9,277.4 527,282.1 523.4,284.2 515.3,279.5 								"/>
								<polygon class="st47" points="511.8,284.4 517.4,287.6 513.8,289.7 508.1,286.4 								"/>
								<polygon class="st47" points="431.8,220.1 533,278.6 529.4,280.7 428.2,222.2 								"/>
								<polygon class="st47" points="437.8,216.7 539,275.1 535.4,277.2 434.2,218.8 								"/>
								<polygon class="st47" points="443.8,213.2 545.1,271.6 541.4,273.7 440.2,215.3 								"/>
							</g>
						</g>
					</g>
				</g>
			</g>
		</g>
	</g>
	<g>
		
			<linearGradient id="SVGID_15_" gradientUnits="userSpaceOnUse" x1="-3403.7947" y1="259.5443" x2="-3324.6145" y2="259.5443" gradientTransform="matrix(-1 0 0 1 -3113.9871 0)">
			<stop  offset="0" style="stop-color:#42E8E0"/>
			<stop  offset="0.1507" style="stop-color:#43E3E0"/>
			<stop  offset="0.3285" style="stop-color:#45D5DF"/>
			<stop  offset="0.5199" style="stop-color:#49BDDD"/>
			<stop  offset="0.7209" style="stop-color:#4E9CDB"/>
			<stop  offset="0.9274" style="stop-color:#5472D8"/>
			<stop  offset="1" style="stop-color:#5761D7"/>
		</linearGradient>
		<path class="st60" d="M274.3,282.7c-0.5,0-1.1-0.1-1.5-0.3l-61.4-35.5c-0.5-0.3-0.8-0.7-0.8-1.2c0-0.5,0.3-1,1-1.4l12.8-7.4
			c1-0.6,2.4-0.6,3.3-0.1l61.4,35.5c0.5,0.3,0.8,0.7,0.8,1.2c0,0.5-0.3,1-1,1.4l-12.8,7.4C275.6,282.5,274.9,282.7,274.3,282.7z
			 M273.4,281.3c0.5,0.3,1.5,0.2,2.1-0.1l12.8-7.4c0.3-0.2,0.4-0.3,0.4-0.3c0,0,0-0.1-0.2-0.1L227,237.8c-0.5-0.3-1.5-0.2-2.1,0.1
			l-12.8,7.4c-0.3,0.2-0.4,0.3-0.4,0.3c0,0,0,0.1,0.2,0.1L273.4,281.3z"/>
		<g>
			
				<linearGradient id="SVGID_16_" gradientUnits="userSpaceOnUse" x1="-4091.9861" y1="-1894.5244" x2="-4018.3162" y2="-1894.5244" gradientTransform="matrix(-0.866 -0.5 0 1.1547 -3253.7771 395.1707)">
				<stop  offset="0" style="stop-color:#5761D7"/>
				<stop  offset="0.1779" style="stop-color:#5C66D9"/>
				<stop  offset="0.3876" style="stop-color:#6A73DF"/>
				<stop  offset="0.6134" style="stop-color:#8289E8"/>
				<stop  offset="0.849" style="stop-color:#A3A7F5"/>
				<stop  offset="1" style="stop-color:#BCBEFF"/>
			</linearGradient>
			<path class="st61" d="M236.4,216.4c1.6,0.9,3.1,2.2,4.5,3.8c1.9-6.1,7.6-7.9,14.5-4c5.6,3.3,10.5,9.7,13.1,16.4
				c0.9,0,1.8,0.3,2.8,0.9c3.7,2.1,6.7,7.3,6.7,11.5c0,0.1,0,0.2,0,0.3c1,0.1,2.2,0.4,3.4,1.1c4.7,2.7,8.5,9.3,8.5,14.7
				s-3.8,7.6-8.5,4.9l-45-26c-5.7-3.3-10.3-11.2-10.3-17.8S230.7,213.1,236.4,216.4z"/>
			
				<radialGradient id="SVGID_17_" cx="-3388.8765" cy="234.4063" r="30.4329" fx="-3417.5759" fy="224.2821" gradientTransform="matrix(-1 0 0 1 -3113.9871 0)" gradientUnits="userSpaceOnUse">
				<stop  offset="0" style="stop-color:#2B237C"/>
				<stop  offset="1" style="stop-color:#180D5B"/>
			</radialGradient>
			<path class="st62" d="M236.4,216.4c0.9,0.5,1.8,1.2,2.7,2l5-2.9l0,0c2.8-1.9,6.8-1.9,11.2,0.7c5.6,3.3,10.5,9.7,13.1,16.4
				c0.9,0,1.8,0.3,2.8,0.9c3.7,2.1,6.7,7.3,6.7,11.5c0,0.1,0,0.2,0,0.3c1,0.1,2.2,0.4,3.4,1.1c4.7,2.7,8.5,9.3,8.5,14.7
				c0,2.7-0.9,4.6-2.5,5.5l0,0l0,0c0,0,0,0,0,0l-12.3,7.2l-2.7-13l-36-20.8c-5.7-3.3-10.3-11.2-10.3-17.8S230.7,213.1,236.4,216.4z"
				/>
			
				<linearGradient id="SVGID_18_" gradientUnits="userSpaceOnUse" x1="-3403.8699" y1="243.9655" x2="-3330.5369" y2="243.9655" gradientTransform="matrix(-1 0 0 1 -3113.9871 0)">
				<stop  offset="0" style="stop-color:#5761D7"/>
				<stop  offset="0.1779" style="stop-color:#5C66D9"/>
				<stop  offset="0.3876" style="stop-color:#6A73DF"/>
				<stop  offset="0.6134" style="stop-color:#8289E8"/>
				<stop  offset="0.849" style="stop-color:#A3A7F5"/>
				<stop  offset="1" style="stop-color:#BCBEFF"/>
			</linearGradient>
			<path class="st63" d="M216.5,222.9l12.5-7.3l0,0c1.9-1.1,4.5-1,7.3,0.7c0.9,0.5,1.8,1.2,2.7,2l5-2.9l0,0
				c2.8-1.9,6.8-1.9,11.2,0.7c5.6,3.3,10.5,9.7,13.1,16.4c0.9,0,1.8,0.3,2.8,0.9c3.7,2.1,6.7,7.3,6.7,11.5c0,0.1,0,0.2,0,0.3
				c1,0.1,2.2,0.4,3.4,1.1c4.7,2.7,8.5,9.3,8.5,14.7c0,2.7-0.9,4.6-2.5,5.5l0,0l0,0c0,0,0,0,0,0l-12.3,7.2l-2.7-13l-36-20.8
				c-4.6-2.7-8.5-8.4-9.8-14L216.5,222.9z"/>
			
				<linearGradient id="SVGID_19_" gradientUnits="userSpaceOnUse" x1="-4077.7058" y1="-1882.1244" x2="-4004.0359" y2="-1882.1244" gradientTransform="matrix(-0.866 -0.5 0 1.1547 -3253.7771 395.1707)">
				<stop  offset="0" style="stop-color:#C0BFF6"/>
				<stop  offset="0.2938" style="stop-color:#C5C4F7"/>
				<stop  offset="0.6399" style="stop-color:#D3D2F9"/>
				<stop  offset="1" style="stop-color:#E9E9FD"/>
			</linearGradient>
			<path class="st64" d="M224,223.5c1.6,0.9,3.1,2.2,4.5,3.8c1.9-6.1,7.6-7.9,14.5-4c5.6,3.3,10.5,9.7,13.1,16.4
				c0.9,0,1.8,0.3,2.8,0.9c3.7,2.1,6.7,7.3,6.7,11.5c0,0.1,0,0.2,0,0.3c1,0.1,2.2,0.4,3.4,1.1c4.7,2.7,8.5,9.3,8.5,14.7
				s-3.8,7.6-8.5,4.9l-45-26c-5.7-3.3-10.3-11.2-10.3-17.8S218.3,220.3,224,223.5z"/>
		</g>
	</g>
</g>
<g id="XMLID_1_">
	<polygon class="st65" points="422.1,101.5 408.6,93.8 408.6,90.8 422.1,98.6 	"/>
	<polygon class="st65" points="429,105.5 424.1,102.7 424.1,99.8 429,102.5 	"/>
	<polygon class="st65" points="434.3,108.6 431,106.7 431,103.7 434.3,105.6 	"/>
	<polygon class="st65" points="415.9,104.7 408.6,100.5 408.6,97.5 415.9,101.8 	"/>
	<polygon class="st65" points="427,111.1 418,105.9 418,103 427,108.2 	"/>
	<polygon class="st65" points="432.3,114.2 429,112.3 429,109.3 432.3,111.2 	"/>
	<polygon class="st65" points="437.4,117.1 434.1,115.2 434.1,112.3 437.4,114.2 	"/>
	<polygon class="st38" points="413.9,110.3 408.6,107.2 408.6,104.3 413.9,107.4 	"/>
	<polygon class="st38" points="417.8,112.5 416,111.5 416,108.5 417.8,109.6 	"/>
	<polygon class="st65" points="423.1,115.6 419.8,113.7 419.8,110.8 423.1,112.7 	"/>
	<polygon class="st65" points="428.2,125.3 408.6,114 408.6,111 428.2,122.3 	"/>
	<polygon class="st65" points="435.1,129.3 430.2,126.5 430.2,123.5 435.1,126.3 	"/>
	<polygon class="st65" points="413.9,123.8 408.6,120.7 408.6,117.8 413.9,120.9 	"/>
	<polygon class="st65" points="426.4,131 416,125 416,122 426.4,128 	"/>
	<polygon class="st65" points="431.7,134.1 428.4,132.2 428.4,129.2 431.7,131.1 	"/>
	<polygon class="st65" points="419.5,133.8 408.6,127.5 408.6,124.5 419.5,130.8 	"/>
	<polygon class="st38" points="429.4,139.5 421.5,134.9 421.5,132 429.4,136.5 	"/>
	<polygon class="st65" points="436.7,143.7 431.4,140.7 431.4,137.7 436.7,140.8 	"/>
	<polygon class="st65" points="412.3,136.4 408.6,134.2 408.6,131.3 412.3,133.4 	"/>
	<polygon class="st65" points="419.2,140.3 414.3,137.5 414.3,134.6 419.2,137.4 	"/>
	<polygon class="st65" points="429,146 421.2,141.5 421.2,138.6 429,143.1 	"/>
	<polygon class="st65" points="419.8,147.5 408.6,141 408.6,138 419.8,144.5 	"/>
	<polygon class="st65" points="432.4,154.7 421.9,148.7 421.9,145.7 432.4,151.8 	"/>
	<polygon class="st38" points="437.8,157.8 434.5,155.9 434.5,153 437.8,154.9 	"/>
	<polygon class="st65" points="442.9,160.8 439.6,158.9 439.6,155.9 442.9,157.8 	"/>
	<polygon class="st65" points="415.3,151.6 408.6,147.7 408.6,144.8 415.3,148.7 	"/>
	<polygon class="st38" points="443.5,113.9 452.8,119.3 452.8,116.3 443.5,110.9 	"/>
	<polygon class="st65" points="445.5,121.8 452.8,126 452.8,123.1 445.5,118.8 	"/>
	<polygon class="st65" points="447.5,129.7 452.8,132.8 452.8,129.8 447.5,126.7 	"/>
	<polygon class="st65" points="445.1,135.1 452.8,139.5 452.8,136.6 445.1,132.1 	"/>
	<polygon class="st65" points="447.5,143.2 452.8,146.3 452.8,143.3 447.5,140.2 	"/>
	<polygon class="st65" points="446.1,149.1 452.8,153 452.8,150.1 446.1,146.2 	"/>
	<polygon class="st65" points="449.1,157.6 452.8,159.8 452.8,156.8 449.1,154.7 	"/>
	<polygon class="st65" points="445.7,162.4 452.8,166.5 452.8,163.6 445.7,159.5 	"/>
	<polygon class="st65" points="446.1,169.4 452.8,173.3 452.8,170.3 446.1,166.4 	"/>
	<polygon class="st65" points="420.2,154.5 417.4,152.8 417.4,149.9 420.2,151.5 	"/>
	<polygon class="st65" points="428.7,159.4 422.3,155.7 422.3,152.7 428.7,156.4 	"/>
	<polygon class="st65" points="474.2,131.5 460.8,123.8 460.8,120.8 474.2,128.6 	"/>
	<polygon class="st65" points="481.1,135.5 476.3,132.7 476.3,129.8 481.1,132.6 	"/>
	<polygon class="st38" points="486.5,138.6 483.2,136.7 483.2,133.7 486.5,135.6 	"/>
	<polygon class="st65" points="468.1,134.7 460.8,130.5 460.8,127.5 468.1,131.8 	"/>
	<polygon class="st65" points="479.1,141.1 470.2,135.9 470.2,133 479.1,138.2 	"/>
	<polygon class="st38" points="484.5,144.2 481.2,142.3 481.2,139.3 484.5,141.2 	"/>
	<polygon class="st65" points="489.6,147.1 486.3,145.2 486.3,142.3 489.6,144.2 	"/>
	<polygon class="st65" points="466.1,140.3 460.8,137.3 460.8,134.3 466.1,137.4 	"/>
	<polygon class="st65" points="469.9,142.5 468.1,141.5 468.1,138.5 469.9,139.6 	"/>
	<polygon class="st65" points="475.3,145.6 472,143.7 472,140.8 475.3,142.7 	"/>
	<polygon class="st65" points="480.4,155.3 460.8,144 460.8,141 480.4,152.3 	"/>
	<polygon class="st65" points="487.2,159.3 482.4,156.5 482.4,153.5 487.2,156.3 	"/>
	<polygon class="st65" points="466.1,153.8 460.8,150.8 460.8,147.8 466.1,150.9 	"/>
	<polygon class="st65" points="478.5,161 468.1,155 468.1,152 478.5,158 	"/>
	<polygon class="st65" points="483.9,164.1 480.6,162.2 480.6,159.2 483.9,161.1 	"/>
	<polygon class="st38" points="471.6,163.8 460.8,157.5 460.8,154.5 471.6,160.8 	"/>
	<polygon class="st65" points="481.5,169.5 473.7,165 473.7,162 481.5,166.5 	"/>
	<polygon class="st65" points="488.9,173.7 483.6,170.7 483.6,167.7 488.9,170.8 	"/>
	<polygon class="st65" points="464.4,166.4 460.8,164.2 460.8,161.3 464.4,163.4 	"/>
	<polygon class="st65" points="471.3,170.3 466.5,167.6 466.5,164.6 471.3,167.4 	"/>
	<polygon class="st38" points="481.2,176 473.4,171.5 473.4,168.6 481.2,173.1 	"/>
	<polygon class="st65" points="472,177.5 460.8,171 460.8,168 472,174.5 	"/>
	<polygon class="st65" points="484.6,184.7 474.1,178.7 474.1,175.7 484.6,181.8 	"/>
	<polygon class="st65" points="489.9,187.8 486.6,185.9 486.6,183 489.9,184.9 	"/>
	<polygon class="st65" points="495.1,190.8 491.8,188.9 491.8,185.9 495.1,187.8 	"/>
	<polygon class="st65" points="467.5,181.6 460.8,177.7 460.8,174.8 467.5,178.7 	"/>
	<polygon class="st38" points="495.6,143.9 505,149.3 505,146.3 495.6,140.9 	"/>
	<polygon class="st65" points="497.6,151.8 505,156 505,153.1 497.6,148.8 	"/>
	<polygon class="st65" points="499.7,159.7 505,162.8 505,159.8 499.7,156.7 	"/>
	<polygon class="st65" points="497.2,165.1 505,169.5 505,166.6 497.2,162.1 	"/>
	<polygon class="st65" points="499.7,173.2 505,176.3 505,173.3 499.7,170.2 	"/>
	<polygon class="st65" points="498.2,179.1 505,183 505,180.1 498.2,176.2 	"/>
	<polygon class="st65" points="501.3,187.6 505,189.8 505,186.8 501.3,184.7 	"/>
	<polygon class="st65" points="497.9,192.4 505,196.5 505,193.6 497.9,189.5 	"/>
	<polygon class="st65" points="498.2,199.4 505,203.3 505,200.3 498.2,196.4 	"/>
	<polygon class="st38" points="472.4,184.5 469.6,182.8 469.6,179.9 472.4,181.5 	"/>
	<polygon class="st65" points="480.9,189.4 474.5,185.7 474.5,182.7 480.9,186.4 	"/>
	<polygon class="st65" points="422.1,162.3 408.6,154.5 408.6,151.6 422.1,159.3 	"/>
	<polygon class="st65" points="429,166.3 424.1,163.5 424.1,160.5 429,163.3 	"/>
	<polygon class="st65" points="434.3,169.4 431,167.5 431,164.5 434.3,166.4 	"/>
	<polygon class="st65" points="415.9,165.5 408.6,161.3 408.6,158.3 415.9,162.6 	"/>
	<polygon class="st65" points="427,171.9 418,166.7 418,163.7 427,168.9 	"/>
	<polygon class="st65" points="432.3,175 429,173.1 429,170.1 432.3,172 	"/>
	<polygon class="st65" points="437.4,177.9 434.1,176 434.1,173.1 437.4,175 	"/>
	<polygon class="st65" points="413.9,171.1 408.6,168 408.6,165.1 413.9,168.1 	"/>
	<polygon class="st65" points="417.8,173.3 416,172.3 416,169.3 417.8,170.4 	"/>
	<polygon class="st65" points="423.1,176.4 419.8,174.5 419.8,171.6 423.1,173.5 	"/>
	<polygon class="st65" points="428.2,186.1 408.6,174.8 408.6,171.8 428.2,183.1 	"/>
	<polygon class="st65" points="435.1,190.1 430.2,187.3 430.2,184.3 435.1,187.1 	"/>
	<polygon class="st65" points="413.9,184.6 408.6,181.5 408.6,178.6 413.9,181.6 	"/>
	<polygon class="st65" points="426.4,191.8 416,185.8 416,182.8 426.4,188.8 	"/>
	<polygon class="st65" points="431.7,194.9 428.4,193 428.4,190 431.7,191.9 	"/>
	<polygon class="st65" points="419.5,194.5 408.6,188.3 408.6,185.3 419.5,191.6 	"/>
	<polygon class="st65" points="429.4,200.3 421.5,195.7 421.5,192.8 429.4,197.3 	"/>
	<polygon class="st65" points="436.7,204.5 431.4,201.4 431.4,198.5 436.7,201.6 	"/>
	<polygon class="st65" points="412.3,197.1 408.6,195 408.6,192.1 412.3,194.2 	"/>
	<polygon class="st65" points="419.2,201.1 414.3,198.3 414.3,195.4 419.2,198.2 	"/>
	<polygon class="st65" points="429,206.8 421.2,202.3 421.2,199.4 429,203.9 	"/>
	<polygon class="st65" points="419.8,208.3 408.6,201.8 408.6,198.8 419.8,205.3 	"/>
	<polygon class="st65" points="432.4,215.5 421.9,209.4 421.9,206.5 432.4,212.6 	"/>
	<polygon class="st65" points="437.8,218.6 434.5,216.7 434.5,213.7 437.8,215.6 	"/>
	<polygon class="st65" points="442.9,221.6 439.6,219.7 439.6,216.7 442.9,218.6 	"/>
	<polygon class="st65" points="415.3,212.4 408.6,208.5 408.6,205.6 415.3,209.5 	"/>
	<polygon class="st65" points="443.5,174.7 452.8,180 452.8,177.1 443.5,171.7 	"/>
	<polygon class="st65" points="445.5,182.6 452.8,186.8 452.8,183.8 445.5,179.6 	"/>
	<polygon class="st65" points="447.5,190.5 452.8,193.5 452.8,190.6 447.5,187.5 	"/>
	<polygon class="st65" points="445.1,195.8 452.8,200.3 452.8,197.3 445.1,192.9 	"/>
	<polygon class="st65" points="447.5,204 452.8,207 452.8,204.1 447.5,201 	"/>
	<polygon class="st65" points="446.1,209.9 452.8,213.8 452.8,210.8 446.1,206.9 	"/>
	<polygon class="st65" points="449.1,218.4 452.8,220.5 452.8,217.6 449.1,215.5 	"/>
	<polygon class="st65" points="445.7,223.2 452.8,227.3 452.8,224.3 445.7,220.2 	"/>
	<polygon class="st65" points="446.1,230.2 452.8,234 452.8,231.1 446.1,227.2 	"/>
	<polygon class="st65" points="420.2,215.2 417.4,213.6 417.4,210.6 420.2,212.3 	"/>
	<polygon class="st65" points="428.7,220.1 422.3,216.4 422.3,213.5 428.7,217.2 	"/>
	<polygon class="st65" points="434.1,242.9 423.2,236.6 423.2,233.6 434.1,239.9 	"/>
	<polygon class="st65" points="441.5,247.1 437.2,244.7 437.2,241.7 441.5,244.2 	"/>
	<polygon class="st65" points="474.2,192.3 460.8,184.5 460.8,181.6 474.2,189.3 	"/>
	<polygon class="st65" points="481.1,196.3 476.3,193.5 476.3,190.5 481.1,193.3 	"/>
	<polygon class="st65" points="486.5,199.4 483.2,197.5 483.2,194.5 486.5,196.4 	"/>
	<polygon class="st65" points="468.1,195.5 460.8,191.3 460.8,188.3 468.1,192.6 	"/>
	<polygon class="st65" points="479.1,201.9 470.2,196.7 470.2,193.7 479.1,198.9 	"/>
	<polygon class="st65" points="484.5,205 481.2,203.1 481.2,200.1 484.5,202 	"/>
	<polygon class="st65" points="489.6,207.9 486.3,206 486.3,203.1 489.6,205 	"/>
	<polygon class="st65" points="466.1,201.1 460.8,198 460.8,195.1 466.1,198.1 	"/>
	<polygon class="st65" points="469.9,203.3 468.1,202.3 468.1,199.3 469.9,200.4 	"/>
	<polygon class="st65" points="475.3,206.4 472,204.5 472,201.6 475.3,203.5 	"/>
	<polygon class="st65" points="480.4,216.1 460.8,204.8 460.8,201.8 480.4,213.1 	"/>
	<polygon class="st65" points="487.2,220.1 482.4,217.3 482.4,214.3 487.2,217.1 	"/>
	<polygon class="st65" points="466.1,214.6 460.8,211.5 460.8,208.6 466.1,211.6 	"/>
	<polygon class="st65" points="478.5,221.8 468.1,215.8 468.1,212.8 478.5,218.8 	"/>
	<polygon class="st65" points="483.9,224.9 480.6,223 480.6,220 483.9,221.9 	"/>
	<polygon class="st65" points="471.6,224.5 460.8,218.3 460.8,215.3 471.6,221.6 	"/>
	<polygon class="st65" points="481.5,230.3 473.7,225.7 473.7,222.8 481.5,227.3 	"/>
	<polygon class="st65" points="488.9,234.5 483.6,231.4 483.6,228.5 488.9,231.6 	"/>
	<polygon class="st65" points="464.4,227.1 460.8,225 460.8,222.1 464.4,224.2 	"/>
	<polygon class="st65" points="471.3,231.1 466.5,228.3 466.5,225.4 471.3,228.2 	"/>
	<polygon class="st65" points="481.2,236.8 473.4,232.3 473.4,229.4 481.2,233.9 	"/>
	<polygon class="st65" points="472,238.3 460.8,231.8 460.8,228.8 472,235.3 	"/>
	<polygon class="st65" points="484.6,245.5 474.1,239.4 474.1,236.5 484.6,242.6 	"/>
	<polygon class="st65" points="489.9,248.6 486.6,246.7 486.6,243.8 489.9,245.7 	"/>
	<polygon class="st65" points="495.1,251.6 491.8,249.7 491.8,246.7 495.1,248.6 	"/>
	<polygon class="st65" points="467.5,242.4 460.8,238.5 460.8,235.6 467.5,239.5 	"/>
	<polygon class="st65" points="495.6,204.7 505,210 505,207.1 495.6,201.7 	"/>
	<polygon class="st65" points="497.6,212.6 505,216.8 505,213.8 497.6,209.6 	"/>
	<polygon class="st65" points="499.7,220.5 505,223.5 505,220.6 499.7,217.5 	"/>
	<polygon class="st65" points="497.2,225.8 505,230.3 505,227.3 497.2,222.9 	"/>
	<polygon class="st65" points="499.7,234 505,237 505,234.1 499.7,231 	"/>
	<polygon class="st65" points="498.2,239.9 505,243.8 505,240.8 498.2,237 	"/>
	<polygon class="st65" points="501.3,248.4 505,250.5 505,247.6 501.3,245.5 	"/>
	<polygon class="st65" points="497.9,253.2 505,257.3 505,254.3 497.9,250.2 	"/>
	<polygon class="st65" points="498.2,260.2 505,264 505,261.1 498.2,257.2 	"/>
	<polygon class="st65" points="472.4,245.2 469.6,243.6 469.6,240.6 472.4,242.3 	"/>
	<polygon class="st65" points="480.9,250.2 474.5,246.4 474.5,243.5 480.9,247.2 	"/>
	<polygon class="st65" points="486.2,272.9 475.4,266.6 475.4,263.6 486.2,269.9 	"/>
	<polygon class="st65" points="493.7,277.2 489.4,274.7 489.4,271.7 493.7,274.2 	"/>
</g>
</svg>
